SplineFontDB: 3.2
FontName: DrukaatieBurti-Light
FullName: Drukaatie burti tievi
FamilyName: Drukaatie burti
Weight: Light
Copyright: License: SIL OFL.\nAuthor: Karlis Kalviskis\nLast update: 2023.02.15.\nContact: eko@lanet.lv
Version: 0.14.4
ItalicAngle: 0
UnderlinePosition: -173
UnderlineWidth: 100
Ascent: 1638
Descent: 410
InvalidEm: 0
LayerCount: 2
Layer: 0 1 "Back" 1
Layer: 1 1 "Fore" 0
XUID: [1021 827 580535596 12029684]
FSType: 0
OS2Version: 3
OS2_WeightWidthSlopeOnly: 1
OS2_UseTypoMetrics: 1
CreationTime: 1277802766
ModificationTime: 1677172682
PfmFamily: 65
TTFWeight: 300
TTFWidth: 5
LineGap: 87
VLineGap: 0
Panose: 3 8 4 2 3 2 2 3 2 4
OS2TypoAscent: 1420
OS2TypoAOffset: 0
OS2TypoDescent: -442
OS2TypoDOffset: 0
OS2TypoLinegap: 307
OS2WinAscent: 1825
OS2WinAOffset: 0
OS2WinDescent: 443
OS2WinDOffset: 0
HheadAscent: 1825
HheadAOffset: 0
HheadDescent: -443
HheadDOffset: 0
OS2SubXSize: 1434
OS2SubYSize: 1332
OS2SubXOff: 0
OS2SubYOff: 292
OS2SupXSize: 1434
OS2SupYSize: 1332
OS2SupXOff: 0
OS2SupYOff: 928
OS2StrikeYSize: 100
OS2StrikeYPos: 420
OS2CapHeight: 1344
OS2XHeight: 855
OS2FamilyClass: 2568
OS2Vendor: '    '
Lookup: 4 0 0 "'dlig' Discretionary Ligatures in Latin lookup 0" { "My Spelling"  } ['dlig' ('DFLT' <'dflt' > 'latn' <'LVI ' > ) ]
Lookup: 258 0 0 "'kern' Horizontal Kerning in Latin lookup 0" { "'TVWYFf' Horizontal Kerning in Latin lookup 0-1" [307,60,2] "'beforeTVWY' Horizontal Kerning in Latin lookup 0-2" [307,30,0] } ['kern' ('DFLT' <'dflt' > 'latn' <'dflt' > ) ]
MarkAttachClasses: 1
DEI: 91125
KernClass2: 3 3 "'beforeTVWY' Horizontal Kerning in Latin lookup 0-2"

StartChar: .notdef
Encoding: 65536 -1 0
Width: 1602
VWidth: 1894
Flags: W
HStem: 22 76<150 1452> 1366 23G<231 306 731.951 831> 1462 74<150 1452>
VStem: 76 74<98 1462> 231 75<897 1386> 752 77<277 762> 1452 76<98 1462>
LayerCount: 2
Fore
SplineSet
231 804 m 1,0,-1
 231 1386 l 1,1,-1
 306 1386 l 1,2,-1
 306 897 l 1,3,-1
 750 1389 l 1,4,-1
 831 1389 l 1,5,-1
 568 1098 l 1,6,-1
 829 804 l 1,7,-1
 829 277 l 1,8,-1
 1260 804 l 1,9,-1
 1350 804 l 1,10,-1
 1085 459 l 1,11,-1
 1358 168 l 1,12,-1
 1263 168 l 1,13,-1
 1038 394 l 1,14,-1
 829 165 l 1,15,-1
 752 165 l 1,16,-1
 752 762 l 1,17,-1
 515 1027 l 1,18,-1
 307 804 l 1,19,-1
 231 804 l 1,0,-1
76 22 m 1,20,-1
 76 1536 l 1,21,-1
 1528 1536 l 1,22,-1
 1528 22 l 1,23,-1
 76 22 l 1,20,-1
150 98 m 1,24,-1
 1452 98 l 1,25,-1
 1452 1462 l 1,26,-1
 150 1462 l 1,27,-1
 150 98 l 1,24,-1
EndSplineSet
EndChar

StartChar: exclam
Encoding: 33 33 2
Width: 630
Flags: W
HStem: -24 98<303.692 343.794> 122 110<299.309 367.5> 1300 126<318.406 367.598>
VStem: 176 98<738.834 1226.48> 176 121<74.3711 121.461> 344 94<74.6849 171.5> 382 92<757.812 1296.98>
LayerCount: 2
Fore
SplineSet
342 1300 m 0,0,1
 322 1300 322 1300 298 1172 c 0,2,3
 274 1044 274 1044 274 1008 c 0,4,5
 274 972 274 972 290 862 c 0,6,7
 306 752 306 752 314 740 c 0,8,9
 322 728 322 728 330 740 c 0,10,11
 338 752 338 752 342 780 c 0,12,13
 346 808 346 808 362 884 c 1,14,15
 382 960 382 960 382 1008 c 1,16,-1
 390 1136 l 2,17,18
 390 1156 390 1156 386 1172 c 0,19,20
 364 1300 364 1300 342 1300 c 0,0,1
474 1098 m 0,21,22
 474 1036 474 1036 462 956 c 0,23,24
 450 876 450 876 426 720 c 0,25,26
 402 564 402 564 394 524 c 0,27,28
 376 444 376 444 316 444 c 0,29,30
 300 444 300 444 276 452 c 0,31,32
 252 460 252 460 228 548 c 0,33,34
 204 636 204 636 196 744 c 0,35,36
 188 852 188 852 182 912 c 0,37,38
 176 972 176 972 176 1010 c 0,39,40
 176 1048 176 1048 204 1164 c 0,41,42
 266 1424 266 1424 350 1426 c 0,43,44
 374 1426 374 1426 384 1420 c 0,45,46
 434 1392 434 1392 454 1276 c 0,47,48
 474 1160 474 1160 474 1098 c 0,21,22
EndSplineSet
Refer: 13 46 N 1 0 0 1 0 -12 2
Validated: 1
EndChar

StartChar: numbersign
Encoding: 35 35 3
Width: 1216
VWidth: 1894
Flags: W
HStem: 278 120<113.168 260 559.441 680.304> 294 125<887.973 1019.43> 294 84<429.392 745.677> 696 94<426.633 724.358> 746 112<930 1140.96>
VStem: 282 102<404 683.87 812.135 1078.66> 738 128<54.5322 255.494 871.224 1237.16> 738 110<505.271 685.37 859.51 1076.5 1085.5 1237.16> 756 134<119.25 282.655> 762 106<442.512 685.37>
LayerCount: 2
Fore
SplineSet
144 828 m 1,0,-1
 280 812 l 1,1,-1
 284 936 l 2,2,3
 286 1056 286 1056 308 1111 c 128,-1,4
 330 1166 330 1166 341 1179 c 128,-1,5
 352 1192 352 1192 366 1192 c 0,6,7
 410 1192 410 1192 412 1146 c 1,8,-1
 394 1008 l 1,9,10
 394 984 394 984 404 898 c 128,-1,11
 414 812 414 812 424 801 c 128,-1,12
 434 790 434 790 554 790 c 128,-1,13
 674 790 674 790 726 828 c 0,14,15
 738 838 738 838 738 922 c 2,16,17
 738 922 738 922 738 948 c 2,18,19
 738 1262 738 1262 822 1262 c 0,20,21
 844 1262 844 1262 855 1244 c 128,-1,22
 866 1226 866 1226 866 1081 c 128,-1,23
 866 936 866 936 857 907 c 128,-1,24
 848 878 848 878 848 871 c 128,-1,25
 848 864 848 864 861 861 c 128,-1,26
 874 858 874 858 967 858 c 128,-1,27
 1060 858 1060 858 1094 850 c 128,-1,28
 1128 842 1128 842 1139 818 c 128,-1,29
 1150 794 1150 794 1150 782 c 0,30,31
 1150 746 1150 746 1080 746 c 1,32,-1
 930 736 l 1,33,34
 866 728 866 728 856 717 c 128,-1,35
 846 706 846 706 846 686 c 128,-1,36
 846 666 846 666 857 626 c 128,-1,37
 868 586 868 586 868 522 c 128,-1,38
 868 458 868 458 881 442 c 128,-1,39
 894 426 894 426 948 419 c 128,-1,40
 1002 412 1002 412 1020 397 c 128,-1,41
 1038 382 1038 382 1038 347 c 128,-1,42
 1038 312 1038 312 1024 303 c 128,-1,43
 1010 294 1010 294 970 294 c 2,44,-1
 896 292 l 1,45,46
 890 288 890 288 890 266 c 128,-1,47
 890 244 890 244 864 164 c 128,-1,48
 838 84 838 84 824 59 c 128,-1,49
 810 34 810 34 793 34 c 128,-1,50
 776 34 776 34 752 56 c 128,-1,51
 728 78 728 78 728 118 c 128,-1,52
 728 158 728 158 742 199 c 128,-1,53
 756 240 756 240 756 256 c 128,-1,54
 756 272 756 272 746 283 c 128,-1,55
 736 294 736 294 682 294 c 128,-1,56
 628 294 628 294 539 278 c 128,-1,57
 450 262 450 262 418 248 c 1,58,59
 392 232 392 232 372 133 c 128,-1,60
 352 34 352 34 302 34 c 0,61,62
 268 34 268 34 259 60 c 128,-1,63
 250 86 250 86 250 118 c 2,64,-1
 250 176 l 1,65,-1
 260 270 l 1,66,-1
 202 278 l 1,67,68
 108 286 108 286 108 334 c 128,-1,69
 108 382 108 382 216 398 c 1,70,-1
 282 404 l 1,71,-1
 282 684 l 1,72,-1
 232 696 l 1,73,-1
 192 704 l 2,74,75
 94 724 94 724 78 741 c 128,-1,76
 62 758 62 758 62 774 c 0,77,78
 62 828 62 828 144 828 c 1,0,-1
762 503 m 128,-1,80
 762 576 762 576 754 608 c 128,-1,81
 746 640 746 640 741 658 c 128,-1,82
 736 676 736 676 726 686 c 128,-1,83
 716 696 716 696 670 696 c 128,-1,84
 624 696 624 696 588 694 c 128,-1,85
 552 692 552 692 499 690 c 128,-1,86
 446 688 446 688 426 684 c 128,-1,87
 406 680 406 680 395 654 c 128,-1,88
 384 628 384 628 384 575 c 128,-1,89
 384 522 384 522 385 462 c 128,-1,90
 386 402 386 402 399 390 c 128,-1,91
 412 378 412 378 555 378 c 128,-1,92
 698 378 698 378 727 390 c 128,-1,93
 756 402 756 402 759 416 c 128,-1,79
 762 430 762 430 762 503 c 128,-1,80
EndSplineSet
Validated: 1
EndChar

StartChar: dollar
Encoding: 36 36 4
Width: 1136
VWidth: 1894
Flags: W
HStem: -12 80<570.186 602.79> 654 126<488.255 568.59> 677 127<700.316 738> 1206 94<468.375 494>
VStem: 188 110<862.143 1091.47> 352 104<863.246 1089.2> 356 78<1324.57 1464.7> 447 125<-183.239 -44.9937> 565 127<804 1077.5 1304.26 1435.31> 582 108<325.575 653.775 804 1058.32> 974 102<255.106 572.233>
LayerCount: 2
Fore
SplineSet
542 654 m 2,0,1
 484 654 484 654 484 608 c 1,2,-1
 522 162 l 1,3,4
 528 128 528 128 550 98 c 128,-1,5
 572 68 572 68 592 68 c 0,6,7
 604 68 604 68 604 150 c 1,8,-1
 582 654 l 1,9,-1
 542 654 l 2,0,1
784 678 m 128,-1,11
 762 678 762 678 736 677 c 128,-1,12
 710 676 710 676 700 663 c 128,-1,13
 690 650 690 650 690 580 c 0,14,15
 690 134 690 134 730 104 c 0,16,17
 736 100 736 100 751 100 c 128,-1,18
 766 100 766 100 808 120 c 0,19,20
 890 160 890 160 932 261 c 128,-1,21
 974 362 974 362 974 434 c 128,-1,22
 974 506 974 506 957 535 c 128,-1,23
 940 564 940 564 898 607 c 128,-1,24
 856 650 856 650 831 664 c 128,-1,10
 806 678 806 678 784 678 c 128,-1,11
586 1160 m 1,25,-1
 494 1206 l 1,26,27
 480 1206 480 1206 468 1185 c 128,-1,28
 456 1164 456 1164 456 1016 c 128,-1,29
 456 868 456 868 468 832 c 128,-1,30
 480 796 480 796 488 788 c 128,-1,31
 496 780 496 780 526 780 c 128,-1,32
 556 780 556 780 569 795 c 128,-1,33
 582 810 582 810 584 984 c 2,34,-1
 586 1160 l 1,25,-1
174 194 m 1,35,-1
 396 162 l 1,36,37
 398 170 398 170 400 208 c 1,38,-1
 376 674 l 1,39,-1
 330 702 l 2,40,41
 292 724 292 724 255 767 c 128,-1,42
 218 810 218 810 203 845 c 128,-1,43
 188 880 188 880 188 956 c 128,-1,44
 188 1032 188 1032 209 1083 c 128,-1,45
 230 1134 230 1134 272 1183 c 128,-1,46
 314 1232 314 1232 329 1272 c 128,-1,47
 344 1312 344 1312 356 1384 c 128,-1,48
 368 1456 368 1456 375 1465 c 128,-1,49
 382 1474 382 1474 392 1474 c 128,-1,50
 402 1474 402 1474 413 1451 c 128,-1,51
 424 1428 424 1428 434 1385 c 128,-1,52
 444 1342 444 1342 456 1324 c 0,53,54
 468 1304 468 1304 500 1300 c 1,55,56
 500 1300 500 1300 512 1300 c 1,57,-1
 522 1300 l 2,58,59
 536 1300 536 1300 544 1304 c 0,60,61
 556 1312 556 1312 565 1364 c 128,-1,62
 574 1416 574 1416 587 1437 c 128,-1,63
 600 1458 600 1458 626 1458 c 128,-1,64
 652 1458 652 1458 673 1436 c 128,-1,65
 694 1414 694 1414 692 1378 c 2,66,-1
 692 1236 l 1,67,68
 750 1208 750 1208 802 1178 c 1,69,-1
 846 1202 l 2,70,71
 892 1226 892 1226 920 1226 c 0,72,73
 948 1224 948 1224 958 1204 c 0,74,75
 964 1190 964 1190 964 1178 c 2,76,77
 964 1178 964 1178 964 1168 c 1,78,79
 960 1152 960 1152 932 1104 c 128,-1,80
 904 1056 904 1056 870 1022 c 128,-1,81
 836 988 836 988 815 988 c 128,-1,82
 794 988 794 988 760 1034 c 128,-1,83
 726 1080 726 1080 721 1080 c 128,-1,84
 716 1080 716 1080 702 1059 c 128,-1,85
 688 1038 688 1038 688 922 c 2,86,-1
 688 804 l 1,87,-1
 738 798 l 2,88,89
 826 784 826 784 871 763 c 128,-1,90
 916 742 916 742 966 687 c 128,-1,91
 1016 632 1016 632 1046 565 c 128,-1,92
 1076 498 1076 498 1076 416 c 128,-1,93
 1076 334 1076 334 1043 241 c 128,-1,94
 1010 148 1010 148 967 97 c 128,-1,95
 924 46 924 46 902 36 c 128,-1,96
 880 26 880 26 827 18 c 128,-1,97
 774 10 774 10 759 1 c 128,-1,98
 744 -8 744 -8 734 -31 c 128,-1,99
 724 -54 724 -54 714 -61 c 128,-1,100
 704 -68 704 -68 674 -68 c 128,-1,101
 644 -68 644 -68 625 -40 c 128,-1,102
 606 -12 606 -12 588 -12 c 128,-1,103
 570 -12 570 -12 570 -44 c 128,-1,104
 570 -76 570 -76 572 -82 c 1,105,106
 560 -204 560 -204 508 -208 c 1,107,108
 480 -208 480 -208 466 -184 c 128,-1,109
 452 -160 452 -160 447 -89 c 128,-1,110
 442 -18 442 -18 427 7 c 128,-1,111
 412 32 412 32 350 54 c 2,112,-1
 270 80 l 1,113,114
 252 78 252 78 242 27 c 128,-1,115
 232 -24 232 -24 194 -56 c 128,-1,116
 156 -88 156 -88 132 -88 c 0,117,118
 66 -88 66 -88 66 -40 c 0,119,120
 66 -18 66 -18 83 6 c 128,-1,121
 100 30 100 30 100 72 c 1,122,-1
 98 94 l 2,123,124
 98 96 98 96 98 98 c 0,125,126
 98 194 98 194 174 194 c 1,35,-1
340 1092 m 0,127,128
 298 1092 298 1092 298 1021 c 128,-1,129
 298 950 298 950 313 906 c 128,-1,130
 328 862 328 862 340 862 c 128,-1,131
 352 862 352 862 352 923 c 128,-1,132
 352 984 352 984 353 1038 c 128,-1,133
 354 1092 354 1092 340 1092 c 0,127,128
EndSplineSet
Validated: 1
EndChar

StartChar: percent
Encoding: 37 37 5
Width: 1206
VWidth: 1894
Flags: W
HStem: 8 120<850.25 994.743> 484 114<908.059 1027.09> 736 104<200.708 351.03> 1290 102<245.895 370.385>
VStem: 64 108<870.801 1212.37> 408 122<925.786 1276.83> 708 124<139.713 226> 1046 102<180.626 476.361>
LayerCount: 2
Fore
SplineSet
132 -120 m 0,0,1
 96 -120 96 -120 96 -72 c 2,2,3
 96 -72 96 -72 96 -66 c 1,4,-1
 96 -62 l 2,5,6
 96 -4 96 -4 218 209 c 128,-1,7
 340 422 340 422 438 565 c 128,-1,8
 536 708 536 708 575 775 c 128,-1,9
 614 842 614 842 650 900 c 128,-1,10
 686 958 686 958 773 1129 c 128,-1,11
 860 1300 860 1300 887 1341 c 128,-1,12
 914 1382 914 1382 929 1392 c 128,-1,13
 944 1402 944 1402 969 1402 c 128,-1,14
 994 1402 994 1402 999 1395 c 128,-1,15
 1004 1388 1004 1388 1004 1346 c 128,-1,16
 1004 1304 1004 1304 970 1239 c 128,-1,17
 936 1174 936 1174 859 1047 c 128,-1,18
 782 920 782 920 738 835 c 128,-1,19
 694 750 694 750 538 511 c 128,-1,20
 382 272 382 272 333 193 c 128,-1,21
 284 114 284 114 254 44 c 1,22,23
 192 -120 192 -120 132 -120 c 0,0,1
112 1280 m 1,24,25
 156 1392 156 1392 283 1392 c 128,-1,26
 410 1392 410 1392 448 1342 c 128,-1,27
 486 1292 486 1292 508 1213 c 128,-1,28
 530 1134 530 1134 530 1091 c 128,-1,29
 530 1048 530 1048 490 938 c 0,30,31
 416 736 416 736 298 736 c 0,32,33
 242 736 242 736 170 773 c 128,-1,34
 98 810 98 810 81 845 c 128,-1,35
 64 880 64 880 64 924 c 128,-1,36
 64 968 64 968 71 1084 c 128,-1,37
 78 1200 78 1200 112 1280 c 1,24,25
408 1118 m 128,-1,39
 408 1212 408 1212 388 1244 c 128,-1,40
 368 1276 368 1276 356 1283 c 128,-1,41
 344 1290 344 1290 308 1290 c 128,-1,42
 272 1290 272 1290 260 1283 c 128,-1,43
 248 1276 248 1276 229 1243 c 128,-1,44
 210 1210 210 1210 191 1097 c 128,-1,45
 172 984 172 984 172 956 c 128,-1,46
 172 928 172 928 185 905 c 128,-1,47
 198 882 198 882 230 861 c 128,-1,48
 262 840 262 840 288 840 c 128,-1,49
 314 840 314 840 349 882 c 128,-1,50
 384 924 384 924 396 974 c 128,-1,38
 408 1024 408 1024 408 1118 c 128,-1,39
723 210 m 128,-1,52
 708 292 708 292 708 355 c 128,-1,53
 708 418 708 418 745 473 c 128,-1,54
 782 528 782 528 823 537 c 128,-1,55
 864 546 864 546 895 572 c 128,-1,56
 926 598 926 598 956 598 c 0,57,58
 1058 598 1058 598 1118 500 c 0,59,60
 1136 472 1136 472 1142 444 c 128,-1,61
 1148 416 1148 416 1148 342 c 128,-1,62
 1148 268 1148 268 1143 239 c 128,-1,63
 1138 210 1138 210 1114 166 c 128,-1,64
 1090 122 1090 122 1042 74 c 128,-1,65
 994 26 994 26 965 17 c 128,-1,66
 936 8 936 8 908 8 c 128,-1,67
 880 8 880 8 836 25 c 128,-1,68
 792 42 792 42 765 85 c 128,-1,51
 738 128 738 128 723 210 c 128,-1,52
1046 358 m 0,69,70
 1046 398 1046 398 1027 441 c 128,-1,71
 1008 484 1008 484 978 484 c 128,-1,72
 948 484 948 484 903 434 c 128,-1,73
 858 384 858 384 846 314 c 1,74,75
 832 250 832 250 830 228 c 1,76,-1
 832 226 l 1,77,78
 832 206 832 206 853 167 c 128,-1,79
 874 128 874 128 912 128 c 128,-1,80
 950 128 950 128 976 152 c 0,81,82
 1046 214 1046 214 1046 358 c 0,69,70
EndSplineSet
Validated: 1
EndChar

StartChar: ampersand
Encoding: 38 38 6
Width: 1208
VWidth: 1894
Flags: W
HStem: -50 114<218.576 478.08> 114 98<810.625 1132.72> 483 55<989.812 1099.99> 1234 126<480.15 608.663>
VStem: 62 108<112.272 424.996> 290 106<792.466 1138.81> 636 96<943.938 1211.33>
LayerCount: 2
Fore
SplineSet
516 1360 m 128,-1,1
 552 1360 552 1360 632 1311 c 128,-1,2
 712 1262 712 1262 728 1186 c 0,3,4
 732 1168 732 1168 732 1136 c 2,5,6
 732 1136 732 1136 732 1096 c 1,7,-1
 732 1036 l 2,8,9
 732 968 732 968 698 893 c 128,-1,10
 664 818 664 818 633 780 c 128,-1,11
 602 742 602 742 546 709 c 128,-1,12
 490 676 490 676 490 645 c 128,-1,13
 490 614 490 614 525 554 c 128,-1,14
 560 494 560 494 618 417 c 128,-1,15
 676 340 676 340 686 340 c 128,-1,16
 696 340 696 340 787 429 c 128,-1,17
 878 518 878 518 910 530 c 128,-1,18
 942 542 942 542 973 542 c 128,-1,19
 1004 542 1004 542 1052 538 c 128,-1,20
 1100 534 1100 534 1100 511 c 128,-1,21
 1100 488 1100 488 1087 483 c 128,-1,22
 1074 478 1074 478 1016 465 c 128,-1,23
 958 452 958 452 883 373 c 128,-1,24
 808 294 808 294 808 262 c 0,25,26
 808 236 808 236 893 227 c 128,-1,27
 978 218 978 218 990 215 c 128,-1,28
 1002 212 1002 212 1018 212 c 128,-1,29
 1034 212 1034 212 1058 216 c 128,-1,30
 1082 220 1082 220 1103 220 c 128,-1,31
 1124 220 1124 220 1133 208 c 128,-1,32
 1142 196 1142 196 1142 160 c 128,-1,33
 1142 124 1142 124 1120 120 c 0,34,35
 1086 114 1086 114 970 114 c 0,36,37
 842 114 842 114 772 152 c 1,38,-1
 726 172 l 1,39,-1
 680 124 l 1,40,41
 592 42 592 42 503 -4 c 128,-1,42
 414 -50 414 -50 366 -50 c 128,-1,43
 318 -50 318 -50 242 -24 c 0,44,45
 164 2 164 2 129 27 c 128,-1,46
 94 52 94 52 78 131 c 128,-1,47
 62 210 62 210 62 258 c 0,48,49
 62 458 62 458 236 638 c 1,50,-1
 318 720 l 1,51,-1
 302 786 l 1,52,53
 290 856 290 856 290 882 c 2,54,55
 290 882 290 882 290 888 c 2,56,57
 290 904 290 904 291 919 c 128,-1,58
 292 934 292 934 290 947 c 128,-1,59
 288 960 288 960 288 978 c 128,-1,60
 288 996 288 996 290 1018 c 0,61,62
 292 1062 292 1062 312 1125 c 128,-1,63
 332 1188 332 1188 373 1253 c 128,-1,64
 414 1318 414 1318 447 1339 c 128,-1,0
 480 1360 480 1360 516 1360 c 128,-1,1
526 1234 m 0,65,66
 510 1234 510 1234 494 1224 c 128,-1,67
 478 1214 478 1214 454 1168 c 128,-1,68
 430 1122 430 1122 413 1036 c 128,-1,69
 396 950 396 950 396 904 c 128,-1,70
 396 858 396 858 414 822 c 128,-1,71
 432 786 432 786 463 786 c 128,-1,72
 494 786 494 786 550 870 c 1,73,74
 606 958 606 958 621 1030 c 128,-1,75
 636 1102 636 1102 636 1122 c 128,-1,76
 636 1142 636 1142 620 1170 c 1,77,78
 592 1234 592 1234 526 1234 c 0,65,66
614 214 m 128,-1,80
 614 224 614 224 550 308 c 128,-1,81
 486 392 486 392 427 492 c 128,-1,82
 368 592 368 592 354 592 c 0,83,84
 338 592 338 592 302 552 c 0,85,86
 248 492 248 492 236 472 c 0,87,88
 214 436 214 436 192 356 c 0,89,90
 170 280 170 280 170 222 c 128,-1,91
 170 164 170 164 213 114 c 128,-1,92
 256 64 256 64 325 64 c 128,-1,93
 394 64 394 64 438 86 c 128,-1,94
 482 108 482 108 548 156 c 128,-1,79
 614 204 614 204 614 214 c 128,-1,80
EndSplineSet
Validated: 1
EndChar

StartChar: parenleft
Encoding: 40 40 7
Width: 454
VWidth: 1894
Flags: W
VStem: 66 102<224.303 837.456> 430 136<-273.871 -218.417>
LayerCount: 2
Fore
SplineSet
456 1518 m 1,0,1
 518 1518 518 1518 518 1468 c 0,2,3
 518 1436 518 1436 443 1346 c 128,-1,4
 368 1256 368 1256 286 1088 c 128,-1,5
 204 920 204 920 186 757 c 128,-1,6
 168 594 168 594 168 528 c 128,-1,7
 168 462 168 462 201 269 c 128,-1,8
 234 76 234 76 528 -190 c 1,9,10
 566 -228 566 -228 566 -249 c 128,-1,11
 566 -270 566 -270 551 -274 c 128,-1,12
 536 -278 536 -278 510 -282 c 128,-1,13
 484 -286 484 -286 457 -286 c 128,-1,14
 430 -286 430 -286 430 -274 c 256,15,16
 430 -262 430 -262 388 -221 c 128,-1,17
 346 -180 346 -180 297 -118 c 128,-1,18
 248 -56 248 -56 212 -15 c 128,-1,19
 176 26 176 26 134 120 c 128,-1,20
 92 214 92 214 79 318 c 128,-1,21
 66 422 66 422 66 532 c 128,-1,22
 66 642 66 642 90 752 c 128,-1,23
 114 862 114 862 161 1011 c 128,-1,24
 208 1160 208 1160 286 1306 c 128,-1,25
 364 1452 364 1452 392 1484 c 128,-1,26
 420 1516 420 1516 456 1518 c 1,0,1
EndSplineSet
Validated: 1
EndChar

StartChar: parenright
Encoding: 41 41 8
Width: 426
VWidth: 1894
Flags: W
VStem: -90 136<1435.12 1503.87> 264 104<429.115 1035.88>
LayerCount: 2
Fore
SplineSet
244 199 m 128,-1,1
 188 52 188 52 102 -89 c 128,-1,2
 16 -230 16 -230 -10 -259 c 128,-1,3
 -36 -288 -36 -288 -54 -288 c 2,4,-1
 -78 -290 l 1,5,6
 -138 -286 -138 -286 -140 -248 c 1,7,8
 -140 -248 -140 -248 -140 -246 c 2,9,10
 -140 -208 -140 -208 -56 -120 c 128,-1,11
 28 -32 28 -32 117 130 c 128,-1,12
 206 292 206 292 234 454 c 128,-1,13
 262 616 262 616 264 660 c 1,14,15
 264 660 264 660 264 708 c 1,16,-1
 264 760 l 1,17,18
 262 816 262 816 246 940 c 0,19,20
 222 1134 222 1134 -56 1418 c 0,21,22
 -90 1454 -90 1454 -90 1476 c 2,23,-1
 -90 1478 l 1,24,25
 -88 1500 -88 1500 -76 1504 c 0,26,27
 -66 1508 -66 1508 -56 1510 c 1,28,29
 -54 1508 -54 1508 -52 1508 c 0,30,31
 -44 1508 -44 1508 -36 1508 c 2,32,33
 -36 1508 -36 1508 -24 1508 c 2,34,35
 -20 1508 -20 1508 -12 1510 c 1,36,37
 0 1510 0 1510 20 1508 c 0,38,39
 46 1506 46 1506 46 1500 c 2,40,-1
 46 1498 l 257,41,-1
 46 1496 l 1,42,43
 48 1484 48 1484 84 1442 c 0,44,45
 124 1398 124 1398 169 1334 c 128,-1,46
 214 1270 214 1270 248 1227 c 128,-1,47
 282 1184 282 1184 319 1087 c 128,-1,48
 356 990 356 990 360 928 c 0,49,50
 364 864 364 864 368 812 c 1,51,52
 368 812 368 812 368 778 c 2,53,54
 368 728 368 728 364 660 c 0,55,56
 360 560 360 560 330 453 c 128,-1,0
 300 346 300 346 244 199 c 128,-1,1
EndSplineSet
Validated: 1
EndChar

StartChar: asterisk
Encoding: 42 42 9
Width: 986
VWidth: 1894
Flags: W
HStem: 512 162<152.257 291.703> 516 176<157.75 291.703 474.562 528.751> 572 137<710.321 825.428> 844 20G<264 314>
LayerCount: 2
Fore
SplineSet
236 816 m 0,0,1
 236 864 236 864 292 864 c 0,2,3
 336 864 336 864 400 778 c 128,-1,4
 464 692 464 692 484 692 c 0,5,6
 500 692 500 692 584 808 c 128,-1,7
 668 924 668 924 720 924 c 0,8,9
 724 924 724 924 746 908 c 128,-1,10
 768 892 768 892 768 864 c 2,11,-1
 768 860 l 2,12,13
 768 832 768 832 732 784 c 128,-1,14
 696 736 696 736 696 726 c 128,-1,15
 696 716 696 716 752 709 c 128,-1,16
 808 702 808 702 826 689 c 128,-1,17
 844 676 844 676 844 638 c 128,-1,18
 844 600 844 600 826 588 c 128,-1,19
 808 576 808 576 764 572 c 128,-1,20
 720 568 720 568 710 564 c 128,-1,21
 700 560 700 560 698 548 c 128,-1,22
 696 536 696 536 696 532 c 0,23,24
 696 508 696 508 734 487 c 128,-1,25
 772 466 772 466 772 421 c 128,-1,26
 772 376 772 376 724 372 c 1,27,28
 688 372 688 372 614 444 c 128,-1,29
 540 516 540 516 522 516 c 128,-1,30
 504 516 504 516 438 424 c 128,-1,31
 372 332 372 332 324 332 c 0,32,33
 316 332 316 332 308 336 c 0,34,35
 264 356 264 356 264 398 c 128,-1,36
 264 440 264 440 290 464 c 128,-1,37
 316 488 316 488 316 500 c 128,-1,38
 316 512 316 512 308 514 c 128,-1,39
 300 516 300 516 289 516 c 128,-1,40
 278 516 278 516 253 514 c 128,-1,41
 228 512 228 512 216 512 c 2,42,-1
 200 512 l 1,43,44
 184 514 184 514 164 535 c 128,-1,45
 144 556 144 556 144 588 c 128,-1,46
 144 620 144 620 152 638 c 128,-1,47
 160 656 160 656 196 674 c 128,-1,48
 232 692 232 692 248 692 c 2,49,-1
 272 692 l 2,50,51
 292 692 292 692 292 704 c 1,52,53
 288 718 288 718 262 753 c 128,-1,54
 236 788 236 788 236 816 c 0,0,1
EndSplineSet
Validated: 1
EndChar

StartChar: plus
Encoding: 43 43 10
Width: 974
VWidth: 1894
Flags: W
HStem: 526 114<118.747 377.869> 552 130<154.062 377.869> 574 108<534.812 827.434>
VStem: 390 124<696.463 939.166> 410 128<300.04 547.743>
LayerCount: 2
Fore
SplineSet
478 266 m 0,0,1
 440 266 440 266 425 299 c 128,-1,2
 410 332 410 332 410 400 c 128,-1,3
 410 468 410 468 398 504 c 128,-1,4
 386 540 386 540 378 548 c 0,5,6
 374 552 374 552 346 552 c 2,7,8
 346 552 346 552 322 552 c 1,9,10
 274 548 274 548 218 536 c 0,11,12
 174 526 174 526 158 526 c 2,13,-1
 154 526 l 1,14,15
 142 528 142 528 118 546 c 1,16,17
 106 562 106 562 106 574 c 0,18,19
 106 576 106 576 106 578 c 0,20,21
 106 610 106 610 154 640 c 128,-1,22
 202 670 202 670 294 678 c 1,23,-1
 382 682 l 1,24,-1
 390 800 l 1,25,26
 392 914 392 914 409 940 c 128,-1,27
 426 966 426 966 454 966 c 128,-1,28
 482 966 482 966 498 956 c 128,-1,29
 514 946 514 946 514 828 c 128,-1,30
 514 710 514 710 526 696 c 128,-1,31
 538 682 538 682 570 682 c 1,32,-1
 730 696 l 1,33,34
 846 696 846 696 846 628 c 2,35,-1
 846 626 l 2,36,37
 846 584 846 584 828 575 c 128,-1,38
 810 566 810 566 778 566 c 1,39,-1
 662 574 l 1,40,41
 618 574 618 574 586 566 c 1,42,-1
 534 548 l 1,43,-1
 538 380 l 1,44,45
 536 266 536 266 478 266 c 0,0,1
EndSplineSet
Validated: 1
EndChar

StartChar: comma
Encoding: 44 44 11
Width: 580
VWidth: 1894
Flags: W
HStem: -184 367
VStem: 176 96<29.158 95.7527> 328 82<28.2225 95.4355>
LayerCount: 2
Fore
SplineSet
272 48 m 128,-1,1
 272 32 272 32 281 30 c 128,-1,2
 290 28 290 28 301 28 c 128,-1,3
 312 28 312 28 320 36 c 128,-1,4
 328 44 328 44 328 54 c 128,-1,5
 328 64 328 64 322 80 c 128,-1,6
 316 96 316 96 304 96 c 128,-1,7
 292 96 292 96 282 80 c 128,-1,0
 272 64 272 64 272 48 c 128,-1,1
176 -150 m 0,8,9
 176 -138 176 -138 212 -96 c 128,-1,10
 248 -54 248 -54 248 -48 c 256,11,12
 248 -42 248 -42 219 -12 c 128,-1,13
 190 18 190 18 183 32 c 128,-1,14
 176 46 176 46 176 72 c 0,15,16
 176 144 176 144 252 174 c 0,17,18
 276 184 276 184 290 183 c 128,-1,19
 304 182 304 182 319 180 c 128,-1,20
 334 178 334 178 372 148 c 128,-1,21
 410 118 410 118 410 48 c 0,22,23
 410 36 410 36 404 7 c 128,-1,24
 398 -22 398 -22 339 -103 c 128,-1,25
 280 -184 280 -184 226 -184 c 0,26,27
 224 -184 224 -184 224 -186 c 1,28,29
 176 -186 176 -186 176 -150 c 0,8,9
EndSplineSet
Validated: 1
EndChar

StartChar: hyphen
Encoding: 45 45 12
Width: 974
VWidth: 1894
Flags: W
HStem: 526 114<118.747 461.719> 552 126<154.062 641.25> 574 122<382.75 778>
LayerCount: 2
Fore
SplineSet
586 566 m 0,0,1
 530 552 530 552 346 552 c 2,2,-1
 322 552 l 1,3,4
 274 548 274 548 218 536 c 0,5,6
 174 526 174 526 158 526 c 2,7,-1
 154 526 l 1,8,9
 142 528 142 528 118 546 c 1,10,11
 106 562 106 562 106 574 c 0,12,13
 106 576 106 576 106 578 c 0,14,15
 106 610 106 610 154 640 c 128,-1,16
 202 670 202 670 294 678 c 1,17,-1
 730 696 l 1,18,19
 846 696 846 696 846 628 c 2,20,-1
 846 626 l 2,21,22
 846 584 846 584 828 575 c 128,-1,23
 810 566 810 566 778 566 c 1,24,-1
 662 574 l 1,25,26
 618 574 618 574 586 566 c 0,0,1
EndSplineSet
Validated: 1
EndChar

StartChar: period
Encoding: 46 46 13
Width: 614
VWidth: 1894
Flags: W
HStem: -12 98<303.692 343.794> 134 110<299.309 367.5>
VStem: 176 121<86.3711 133.461> 344 94<86.6849 183.5>
LayerCount: 2
Fore
SplineSet
211 32 m 128,-1,1
 176 62 176 62 176 88 c 128,-1,2
 176 114 176 114 197 158 c 128,-1,3
 218 202 218 202 241 216 c 128,-1,4
 264 230 264 230 292 234 c 128,-1,5
 320 238 320 238 337 241 c 128,-1,6
 354 244 354 244 363 244 c 128,-1,7
 372 244 372 244 392 236 c 0,8,9
 438 216 438 216 438 151 c 128,-1,10
 438 86 438 86 412 51 c 128,-1,11
 386 16 386 16 354 2 c 128,-1,12
 322 -12 322 -12 310 -12 c 128,-1,13
 298 -12 298 -12 272 -5 c 128,-1,0
 246 2 246 2 211 32 c 128,-1,1
309 86 m 128,-1,15
 322 86 322 86 333 97 c 128,-1,16
 344 108 344 108 344 121 c 128,-1,17
 344 134 344 134 340 134 c 0,18,19
 298 132 298 132 297 109 c 128,-1,14
 296 86 296 86 309 86 c 128,-1,15
EndSplineSet
Validated: 1
EndChar

StartChar: slash
Encoding: 47 47 14
Width: 742
VWidth: 1894
Flags: W
LayerCount: 2
Fore
SplineSet
700 1164 m 1,0,1
 502 818 502 818 372 556 c 128,-1,2
 242 294 242 294 143 97 c 128,-1,3
 44 -100 44 -100 28 -121 c 128,-1,4
 12 -142 12 -142 -20 -144 c 0,5,6
 -24 -144 -24 -144 -28 -144 c 0,7,8
 -66 -144 -66 -144 -66 -98 c 0,9,10
 -66 -94 -66 -94 -66 -90 c 0,11,12
 -66 -70 -66 -70 -40 -20 c 128,-1,13
 -14 30 -14 30 109 280 c 128,-1,14
 232 530 232 530 546 1118 c 0,15,16
 594 1210 594 1210 624 1290 c 0,17,18
 690 1474 690 1474 754 1480 c 1,19,-1
 758 1480 l 2,20,21
 772 1480 772 1480 786 1466 c 2,22,-1
 808 1442 l 1,23,-1
 700 1164 l 1,0,1
EndSplineSet
Validated: 1
EndChar

StartChar: zero
Encoding: 48 48 15
Width: 1018
VWidth: 1894
Flags: W
HStem: -60 112<316.639 728.229> 1256 130<412.309 524.047> 1328 88<509.393 655.397>
VStem: 64 88<229.422 716.859> 518 138<757.463 924.262> 866 90<268.792 962.941>
LayerCount: 2
Fore
SplineSet
602 1416 m 128,-1,1
 642 1416 642 1416 672 1394 c 128,-1,2
 702 1372 702 1372 749 1302 c 128,-1,3
 796 1232 796 1232 807 1198 c 128,-1,4
 818 1164 818 1164 842 1128 c 0,5,6
 910 1032 910 1032 933 848 c 128,-1,7
 956 664 956 664 956 556 c 128,-1,8
 956 448 956 448 937 349 c 128,-1,9
 918 250 918 250 888 166 c 128,-1,10
 858 82 858 82 809 35 c 128,-1,11
 760 -12 760 -12 667 -36 c 128,-1,12
 574 -60 574 -60 516 -60 c 0,13,14
 312 -60 312 -60 214 29 c 128,-1,15
 116 118 116 118 90 220 c 128,-1,16
 64 322 64 322 64 360 c 0,17,18
 64 400 64 400 64 440 c 128,-1,19
 64 480 64 480 99 671 c 128,-1,20
 134 862 134 862 144 932 c 1,21,22
 148 1004 148 1004 179 1061 c 128,-1,23
 210 1118 210 1118 252 1221 c 128,-1,24
 294 1324 294 1324 343 1355 c 128,-1,25
 392 1386 392 1386 434 1386 c 128,-1,26
 476 1386 476 1386 519 1401 c 128,-1,0
 562 1416 562 1416 602 1416 c 128,-1,1
583 1328 m 128,-1,28
 548 1328 548 1328 516 1292 c 128,-1,29
 484 1256 484 1256 467 1256 c 128,-1,30
 450 1256 450 1256 392 1190 c 128,-1,31
 334 1124 334 1124 302 1063 c 128,-1,32
 270 1002 270 1002 240 894 c 128,-1,33
 210 786 210 786 192 751 c 128,-1,34
 174 716 174 716 163 619 c 128,-1,35
 152 522 152 522 152 477 c 128,-1,36
 152 432 152 432 155 369 c 128,-1,37
 158 306 158 306 187 246 c 128,-1,38
 216 186 216 186 257 137 c 128,-1,39
 298 88 298 88 334 70 c 128,-1,40
 370 52 370 52 514 52 c 128,-1,41
 658 52 658 52 690 68 c 0,42,43
 810 130 810 130 830 328 c 0,44,45
 836 404 836 404 851 488 c 128,-1,46
 866 572 866 572 866 654 c 0,47,48
 866 920 866 920 780 1090 c 0,49,50
 760 1132 760 1132 713 1203 c 128,-1,51
 666 1274 666 1274 642 1301 c 128,-1,27
 618 1328 618 1328 583 1328 c 128,-1,28
616 956 m 0,52,53
 656 956 656 956 656 904 c 0,54,55
 656 886 656 886 648 857 c 128,-1,56
 640 828 640 828 569 647 c 128,-1,57
 498 466 498 466 471 397 c 128,-1,58
 444 328 444 328 428 305 c 128,-1,59
 412 282 412 282 390 282 c 128,-1,60
 368 282 368 282 363 287 c 128,-1,61
 358 292 358 292 358 319 c 128,-1,62
 358 346 358 346 425 561 c 128,-1,63
 492 776 492 776 518 840 c 128,-1,64
 544 904 544 904 567 930 c 128,-1,65
 590 956 590 956 616 956 c 0,52,53
EndSplineSet
Validated: 1
EndChar

StartChar: one
Encoding: 49 49 16
Width: 656
VWidth: 1894
Flags: W
HStem: -2 92<224.448 371.613>
VStem: 376 108<141.16 1013>
LayerCount: 2
Fore
SplineSet
368 1308 m 128,-1,1
 396 1370 396 1370 414 1394 c 128,-1,2
 432 1418 432 1418 468 1418 c 128,-1,3
 504 1418 504 1418 512 1394 c 0,4,5
 516 1378 516 1378 518 1312 c 0,6,7
 518 1276 518 1276 516 1220 c 0,8,9
 512 1068 512 1068 501 1035 c 128,-1,10
 490 1002 490 1002 487 881 c 128,-1,11
 484 760 484 760 484 468 c 128,-1,12
 484 176 484 176 495 159 c 128,-1,13
 506 142 506 142 562 134 c 2,14,-1
 610 128 l 1,15,-1
 608 78 l 2,16,17
 604 24 604 24 588 12 c 0,18,19
 580 6 580 6 570 6 c 0,20,21
 556 6 556 6 532 16 c 0,22,23
 492 32 492 32 477 32 c 128,-1,24
 462 32 462 32 417 15 c 128,-1,25
 372 -2 372 -2 308 -2 c 2,26,27
 308 -2 308 -2 294 -2 c 2,28,29
 238 -2 238 -2 224 12 c 0,30,31
 208 26 208 26 208 52 c 2,32,-1
 208 54 l 2,33,34
 208 80 208 80 221 90 c 128,-1,35
 234 100 234 100 297 113 c 128,-1,36
 360 126 360 126 372 134 c 0,37,38
 384 144 384 144 386 280 c 0,39,40
 388 322 388 322 388 354 c 0,41,42
 388 426 388 426 380 450 c 0,43,44
 376 466 376 466 376 528 c 2,45,46
 376 528 376 528 376 574 c 2,47,48
 376 644 376 644 378 748 c 0,49,50
 380 862 380 862 380 928 c 0,51,52
 380 1014 380 1014 376 1014 c 0,53,54
 368 1014 368 1014 352 995 c 128,-1,55
 336 976 336 976 322 926 c 128,-1,56
 308 876 308 876 276 796 c 128,-1,57
 244 716 244 716 216 636 c 0,58,59
 188 560 188 560 164 536 c 1,60,61
 144 512 144 512 116 508 c 1,62,63
 116 508 116 508 106 508 c 2,64,65
 88 508 88 508 76 522 c 128,-1,66
 64 536 64 536 62 562 c 1,67,-1
 64 564 l 1,68,69
 64 592 64 592 90 669 c 128,-1,70
 116 746 116 746 228 996 c 128,-1,0
 340 1246 340 1246 368 1308 c 128,-1,1
EndSplineSet
Validated: 1
EndChar

StartChar: two
Encoding: 50 50 17
Width: 1016
VWidth: 1894
Flags: W
HStem: -68 140<582.469 732.975> 70 196<825.579 934.668> 104 110<283.359 471.812> 846 21G<186 247.538> 1272 118<360.311 637.313>
VStem: 90 164<925.53 1060.21> 698 118<806.699 1208.21>
LayerCount: 2
Fore
SplineSet
278 1078 m 1,0,1
 262 884 262 884 254 872 c 1,2,-1
 226 846 l 1,3,-1
 158 880 l 2,4,5
 104 908 104 908 97 925 c 128,-1,6
 90 942 90 942 90 955 c 128,-1,7
 90 968 90 968 104 990 c 128,-1,8
 118 1012 118 1012 137 1071 c 128,-1,9
 156 1130 156 1130 199 1203 c 128,-1,10
 242 1276 242 1276 274 1306 c 256,11,12
 306 1334 306 1334 357 1362 c 128,-1,13
 408 1390 408 1390 433 1390 c 128,-1,14
 458 1390 458 1390 483 1389 c 128,-1,15
 508 1388 508 1388 578 1372 c 128,-1,16
 648 1356 648 1356 682 1338 c 0,17,18
 776 1290 776 1290 804 1116 c 0,19,20
 816 1054 816 1054 816 1023 c 128,-1,21
 816 992 816 992 796 895 c 128,-1,22
 776 798 776 798 731 713 c 128,-1,23
 686 628 686 628 592 532 c 128,-1,24
 498 436 498 436 445 406 c 128,-1,25
 392 376 392 376 332 317 c 128,-1,26
 272 258 272 258 272 239 c 128,-1,27
 272 220 272 220 283 217 c 128,-1,28
 294 214 294 214 368 214 c 128,-1,29
 442 214 442 214 535 143 c 128,-1,30
 628 72 628 72 666 72 c 0,31,32
 720 72 720 72 761 169 c 128,-1,33
 802 266 802 266 868 266 c 0,34,35
 886 266 886 266 910 251 c 128,-1,36
 934 236 934 236 944 195 c 128,-1,37
 954 154 954 154 954 135 c 128,-1,38
 954 116 954 116 952 99 c 128,-1,39
 950 82 950 82 940 76 c 128,-1,40
 930 70 930 70 900 70 c 128,-1,41
 870 70 870 70 853 55 c 128,-1,42
 836 40 836 40 766 -44 c 0,43,44
 746 -68 746 -68 713 -68 c 128,-1,45
 680 -68 680 -68 625 -45 c 128,-1,46
 570 -22 570 -22 534 12 c 0,47,48
 432 104 432 104 346 104 c 0,49,50
 344 104 344 104 342 104 c 0,51,52
 310 104 310 104 291 90 c 128,-1,53
 272 76 272 76 205 4 c 128,-1,54
 138 -68 138 -68 107 -68 c 128,-1,55
 76 -68 76 -68 60 -14 c 1,56,-1
 60 10 l 2,57,58
 60 28 60 28 80 102 c 128,-1,59
 100 176 100 176 121 206 c 128,-1,60
 142 236 142 236 157 282 c 128,-1,61
 172 328 172 328 242 395 c 128,-1,62
 312 462 312 462 396 511 c 128,-1,63
 480 560 480 560 509 585 c 128,-1,64
 538 610 538 610 590 684 c 0,65,66
 696 830 696 830 696 990 c 0,67,68
 696 994 696 994 698 996 c 1,69,70
 698 1002 698 1002 698 1008 c 0,71,72
 698 1154 698 1154 652 1212 c 0,73,74
 604 1272 604 1272 496 1272 c 0,75,76
 494 1272 494 1272 492 1272 c 0,77,78
 322 1272 322 1272 278 1078 c 1,0,1
EndSplineSet
Validated: 1
EndChar

StartChar: three
Encoding: 51 51 18
Width: 936
VWidth: 1894
Flags: W
HStem: -62 98<295.677 589.882> 1300 114<407.935 606.106>
VStem: 56 140<123.178 270.336> 96 214<938 1049> 96 194<984.505 1086.71> 634 104<990.191 1272.02> 752 118<229.514 583.14>
LayerCount: 2
Fore
SplineSet
468 648 m 0,0,1
 416 648 416 648 416 698 c 0,2,3
 416 722 416 722 475 804 c 128,-1,4
 534 886 534 886 577 966 c 128,-1,5
 620 1046 620 1046 627 1072 c 128,-1,6
 634 1098 634 1098 634 1150 c 128,-1,7
 634 1202 634 1202 629 1220 c 128,-1,8
 624 1238 624 1238 594 1269 c 128,-1,9
 564 1300 564 1300 529 1300 c 128,-1,10
 494 1300 494 1300 441 1274 c 128,-1,11
 388 1248 388 1248 365 1218 c 128,-1,12
 342 1188 342 1188 317 1119 c 128,-1,13
 292 1050 292 1050 290 1030 c 1,14,15
 290 1030 290 1030 290 1024 c 2,16,17
 290 1004 290 1004 302 972 c 0,18,19
 310 952 310 952 310 938 c 1,20,21
 308 928 308 928 304 922 c 0,22,23
 296 912 296 912 284 912 c 2,24,25
 284 912 284 912 278 912 c 1,26,27
 262 916 262 916 199 950 c 128,-1,28
 136 984 136 984 116 1002 c 128,-1,29
 96 1020 96 1020 96 1049 c 128,-1,30
 96 1078 96 1078 102 1087 c 128,-1,31
 108 1096 108 1096 136 1106 c 128,-1,32
 164 1116 164 1116 201 1192 c 128,-1,33
 238 1268 238 1268 283 1311 c 128,-1,34
 328 1354 328 1354 399 1384 c 128,-1,35
 470 1414 470 1414 512 1414 c 0,36,37
 738 1414 738 1414 738 1136 c 0,38,39
 738 1036 738 1036 686 933 c 128,-1,40
 634 830 634 830 634 819 c 128,-1,41
 634 808 634 808 693 779 c 128,-1,42
 752 750 752 750 787 682 c 128,-1,43
 822 614 822 614 846 501 c 128,-1,44
 870 388 870 388 870 359 c 128,-1,45
 870 330 870 330 866 302 c 128,-1,46
 862 274 862 274 816 182 c 0,47,48
 718 -12 718 -12 594 -50 c 0,49,50
 558 -62 558 -62 456 -62 c 1,51,52
 448 -60 448 -60 440 -60 c 0,53,54
 324 -60 324 -60 279 -29 c 128,-1,55
 234 2 234 2 146 46 c 0,56,57
 58 92 58 92 56 132 c 0,58,59
 56 146 56 146 68 198 c 128,-1,60
 80 250 80 250 93 271 c 128,-1,61
 106 292 106 292 138 292 c 128,-1,62
 170 292 170 292 183 277 c 128,-1,63
 196 262 196 262 196 210 c 0,64,65
 196 162 196 162 252 112 c 0,66,67
 304 64 304 64 376 52 c 1,68,69
 448 36 448 36 474 36 c 2,70,71
 474 36 474 36 480 36 c 2,72,73
 504 36 504 36 532 44 c 0,74,75
 564 52 564 52 619 107 c 128,-1,76
 674 162 674 162 713 240 c 128,-1,77
 752 318 752 318 752 375 c 128,-1,78
 752 432 752 432 736 512 c 128,-1,79
 720 592 720 592 700 632 c 0,80,81
 682 672 682 672 638 684 c 0,82,83
 602 694 602 694 586 696 c 1,84,85
 586 696 586 696 580 696 c 1,86,87
 566 692 566 692 529 670 c 128,-1,88
 492 648 492 648 468 648 c 0,0,1
EndSplineSet
Validated: 1
EndChar

StartChar: four
Encoding: 52 52 19
Width: 756
VWidth: 1894
Flags: W
HStem: 384 99<219.905 452.202> 1368 20G<331 370>
VStem: 260 138<1107.76 1367> 460 88<233.472 326.296> 504 118<501.609 666.518>
LayerCount: 2
Fore
SplineSet
218 486 m 0,0,1
 218 484 218 484 322 483 c 0,2,3
 328 483 328 483 335 483 c 0,4,5
 428 483 428 483 453 497 c 0,6,7
 480 512 480 512 504 582 c 128,-1,8
 528 652 528 652 549 667 c 0,9,10
 557 672 557 672 565 672 c 0,11,12
 580 672 580 672 596 655 c 0,13,14
 622 628 622 628 622 579 c 128,-1,15
 622 530 622 530 657 488 c 128,-1,16
 692 446 692 446 692 426 c 128,-1,17
 692 406 692 406 656 387 c 128,-1,18
 620 368 620 368 606 350 c 128,-1,19
 592 332 592 332 570 278 c 128,-1,20
 548 224 548 224 548 192 c 128,-1,21
 548 160 548 160 582 135 c 128,-1,22
 616 110 616 110 630 82 c 0,23,24
 644 56 644 56 644 47 c 0,25,26
 644 47 644 47 644 46 c 0,27,28
 639 2 639 2 510.5 2 c 128,-1,29
 382 2 382 2 368 22 c 0,30,31
 361 32 361 32 361 45 c 128,-1,32
 361 58 361 58 368 75 c 0,33,34
 382 108 382 108 406 121 c 128,-1,35
 430 134 430 134 440 174 c 1,36,-1
 460 384 l 1,37,38
 297 371 297 371 112 322 c 1,39,40
 88 346 88 346 62 376 c 1,41,42
 115 543 115 543 143.5 673.5 c 128,-1,43
 172 804 172 804 216 946 c 128,-1,44
 260 1088 260 1088 260 1148 c 128,-1,45
 260 1208 260 1208 276.5 1280 c 128,-1,46
 293 1352 293 1352 308 1372 c 0,47,48
 320 1388 320 1388 342 1388 c 0,49,50
 398 1388 398 1388 398 1309 c 128,-1,51
 398 1230 398 1230 375 1178 c 128,-1,52
 352 1126 352 1126 296 849 c 128,-1,53
 240 572 240 572 218 486 c 0,0,1
EndSplineSet
Validated: 1
EndChar

StartChar: five
Encoding: 53 53 20
Width: 916
VWidth: 1894
Flags: W
HStem: -52 98<356.502 592.854> -49 75<268.542 554.949> -12 184<94.136 229.654> 808 116<391.318 630.398> 1124 248<726.508 823.492> 1252 104<388 715.668>
VStem: 56 176<58.6387 133.522> 216 120<904 1178.72> 254 82<907.82 1193.81> 714 160<1178 1252> 714 131<1138.65 1250.9> 756 96<264.406 672.762>
LayerCount: 2
Fore
SplineSet
336 904 m 1,0,-1
 460 924 l 1,1,2
 492 924 492 924 572 903 c 128,-1,3
 652 882 652 882 692 855 c 128,-1,4
 732 828 732 828 775 765 c 128,-1,5
 818 702 818 702 835 659 c 128,-1,6
 852 616 852 616 852 474 c 128,-1,7
 852 332 852 332 801 188 c 128,-1,8
 750 44 750 44 636 -28 c 0,9,10
 608 -46 608 -46 577 -49 c 128,-1,11
 546 -52 546 -52 444 -52 c 128,-1,12
 342 -52 342 -52 308 -49 c 128,-1,13
 274 -46 274 -46 250 -29 c 128,-1,14
 226 -12 226 -12 196 -12 c 128,-1,15
 166 -12 166 -12 136 -30 c 1,16,17
 110 -48 110 -48 102 -48 c 2,18,-1
 98 -48 l 2,19,20
 90 -48 90 -48 74 -30 c 0,21,22
 56 -12 56 -12 56 39 c 128,-1,23
 56 90 56 90 98 131 c 128,-1,24
 140 172 140 172 186 172 c 128,-1,25
 232 172 232 172 232 130 c 1,26,27
 230 122 230 122 230 109 c 128,-1,28
 230 96 230 96 240 84 c 128,-1,29
 250 72 250 72 289 52 c 128,-1,30
 328 32 328 32 346 28 c 0,31,32
 350 26 350 26 356 26 c 0,33,34
 372 26 372 26 398 34 c 0,35,36
 434 46 434 46 478 46 c 128,-1,37
 522 46 522 46 553 62 c 128,-1,38
 584 78 584 78 627 124 c 128,-1,39
 670 170 670 170 694 221 c 128,-1,40
 718 272 718 272 737 360 c 128,-1,41
 756 448 756 448 756 480 c 128,-1,42
 756 512 756 512 752 570 c 0,43,44
 746 628 746 628 692 702 c 0,45,46
 638 774 638 774 572 792 c 0,47,48
 512 808 512 808 476 808 c 0,49,50
 472 808 472 808 468 808 c 0,51,52
 434 806 434 806 358 734 c 0,53,54
 284 666 284 666 260 666 c 1,55,-1
 260 668 l 1,56,57
 238 668 238 668 226 702 c 0,58,59
 218 728 218 728 216 754 c 1,60,61
 216 754 216 754 216 770 c 1,62,63
 220 802 220 802 234 964 c 128,-1,64
 248 1126 248 1126 252 1156 c 0,65,66
 254 1170 254 1170 254 1179 c 128,-1,67
 254 1188 254 1188 252 1194 c 0,68,69
 248 1202 248 1202 212 1215 c 128,-1,70
 176 1228 176 1228 176 1268 c 0,71,72
 176 1326 176 1326 244 1340 c 128,-1,73
 312 1354 312 1354 512 1356 c 128,-1,74
 712 1358 712 1358 737 1365 c 128,-1,75
 762 1372 762 1372 782 1372 c 2,76,-1
 862 1366 l 2,77,78
 874 1366 874 1366 874 1341 c 128,-1,79
 874 1316 874 1316 845 1220 c 128,-1,80
 816 1124 816 1124 764 1124 c 0,81,82
 748 1124 748 1124 732 1158 c 1,83,84
 714 1186 714 1186 714 1212 c 2,85,86
 714 1212 714 1212 714 1218 c 1,87,-1
 716 1252 l 1,88,-1
 388 1252 l 1,89,-1
 360 1146 l 1,90,91
 336 1038 336 1038 336 972 c 2,92,-1
 336 904 l 1,0,-1
EndSplineSet
Validated: 1
EndChar

StartChar: six
Encoding: 54 54 21
Width: 980
VWidth: 1894
Flags: W
HStem: -70 96<277.224 655.128> 852 94<412.021 670.941> 1300 140<528.504 673.938>
VStem: 58 106<137.781 486> 794 124<205.676 600>
LayerCount: 2
Fore
SplineSet
500 1390 m 128,-1,1
 580 1440 580 1440 635 1440 c 128,-1,2
 690 1440 690 1440 719 1380 c 128,-1,3
 748 1320 748 1320 748 1270 c 128,-1,4
 748 1220 748 1220 732 1220 c 128,-1,5
 716 1220 716 1220 668 1260 c 128,-1,6
 620 1300 620 1300 600 1300 c 128,-1,7
 580 1300 580 1300 514 1244 c 128,-1,8
 448 1188 448 1188 401 1130 c 128,-1,9
 354 1072 354 1072 281 930 c 128,-1,10
 208 788 208 788 208 766 c 128,-1,11
 208 744 208 744 194 729 c 128,-1,12
 180 714 180 714 196 714 c 256,13,14
 212 714 212 714 228 749 c 128,-1,15
 244 784 244 784 284 830 c 256,16,17
 322 874 322 874 330 903 c 128,-1,18
 338 932 338 932 372 939 c 128,-1,19
 406 946 406 946 532 946 c 128,-1,20
 658 946 658 946 707 920 c 128,-1,21
 756 894 756 894 831 760 c 128,-1,22
 906 626 906 626 912 575 c 128,-1,23
 918 524 918 524 918 471 c 128,-1,24
 918 418 918 418 888 270 c 128,-1,25
 858 122 858 122 814 54 c 1,26,27
 780 -6 780 -6 650 -38 c 128,-1,28
 520 -70 520 -70 461 -70 c 128,-1,29
 402 -70 402 -70 326 -50 c 0,30,31
 164 -8 164 -8 94 98 c 0,32,33
 72 132 72 132 65 179 c 128,-1,34
 58 226 58 226 58 478 c 128,-1,35
 58 730 58 730 116 840 c 0,36,37
 134 878 134 878 186 1008 c 128,-1,38
 238 1138 238 1138 279 1174 c 128,-1,39
 320 1210 320 1210 370 1275 c 128,-1,0
 420 1340 420 1340 500 1390 c 128,-1,1
554 852 m 128,-1,41
 474 852 474 852 442 831 c 128,-1,42
 410 810 410 810 358 754 c 128,-1,43
 306 698 306 698 266 624 c 128,-1,44
 226 550 226 550 192 518 c 2,45,-1
 158 486 l 1,46,-1
 164 352 l 1,47,48
 166 216 166 216 188 172 c 0,49,50
 262 26 262 26 442 26 c 0,51,52
 488 26 488 26 553 39 c 128,-1,53
 618 52 618 52 651 68 c 128,-1,54
 684 84 684 84 727 128 c 128,-1,55
 770 172 770 172 782 223 c 128,-1,56
 794 274 794 274 794 426 c 2,57,-1
 794 600 l 1,58,-1
 740 700 l 1,59,60
 692 802 692 802 663 827 c 128,-1,40
 634 852 634 852 554 852 c 128,-1,41
EndSplineSet
Validated: 1
EndChar

StartChar: seven
Encoding: 55 55 22
Width: 884
VWidth: 1894
Flags: W
HStem: 1296 104<180.688 672>
VStem: 52 122<1010.59 1276> 70 104<1010.59 1218.1> 712 132<978.416 1295.38>
LayerCount: 2
Fore
SplineSet
682 675 m 128,-1,1
 682 648 682 648 702 637 c 128,-1,2
 722 626 722 626 708 605 c 128,-1,3
 694 584 694 584 650 587 c 128,-1,4
 606 590 606 590 593 585 c 128,-1,5
 580 580 580 580 551 541 c 128,-1,6
 522 502 522 502 493 467 c 128,-1,7
 464 432 464 432 402 338 c 128,-1,8
 340 244 340 244 315 193 c 128,-1,9
 290 142 290 142 290 107 c 128,-1,10
 290 72 290 72 295 60 c 128,-1,11
 300 48 300 48 322 43 c 128,-1,12
 344 38 344 38 368 13 c 128,-1,13
 392 -12 392 -12 392 -35 c 128,-1,14
 392 -58 392 -58 364 -66 c 128,-1,15
 336 -74 336 -74 260 -79 c 128,-1,16
 184 -84 184 -84 153 -84 c 128,-1,17
 122 -84 122 -84 102 -76 c 128,-1,18
 82 -68 82 -68 82 -37 c 128,-1,19
 82 -6 82 -6 113 16 c 128,-1,20
 144 38 144 38 157 64 c 128,-1,21
 170 90 170 90 197 174 c 128,-1,22
 224 258 224 258 262 328 c 128,-1,23
 300 398 300 398 388 516 c 0,24,25
 400 534 400 534 370 553 c 128,-1,26
 340 572 340 572 329 603 c 128,-1,27
 318 634 318 634 338 663 c 128,-1,28
 358 692 358 692 438 692 c 128,-1,29
 518 692 518 692 542 713 c 128,-1,30
 566 734 566 734 610 808 c 128,-1,31
 654 882 654 882 668 918 c 128,-1,32
 682 954 682 954 697 1026 c 128,-1,33
 712 1098 712 1098 712 1156 c 128,-1,34
 712 1214 712 1214 690 1260 c 2,35,-1
 672 1296 l 1,36,-1
 344 1300 l 2,37,38
 260 1300 260 1300 224 1290 c 2,39,-1
 180 1276 l 1,40,-1
 174 1152 l 2,41,42
 170 1028 170 1028 153 1010 c 128,-1,43
 136 992 136 992 112 992 c 128,-1,44
 88 992 88 992 70 1060 c 128,-1,45
 52 1128 52 1128 52 1221 c 128,-1,46
 52 1314 52 1314 65 1340 c 128,-1,47
 78 1366 78 1366 144 1383 c 128,-1,48
 210 1400 210 1400 286 1400 c 1,49,-1
 456 1394 l 1,50,-1
 588 1400 l 1,51,52
 766 1400 766 1400 792 1386 c 0,53,54
 844 1360 844 1360 844 1252 c 128,-1,55
 844 1144 844 1144 803 992 c 128,-1,56
 762 840 762 840 722 771 c 128,-1,0
 682 702 682 702 682 675 c 128,-1,1
EndSplineSet
Validated: 1
EndChar

StartChar: eight
Encoding: 56 56 23
Width: 1028
VWidth: 1894
Flags: W
HStem: -34 102<325.673 672.646> 772 162<483.129 612.538> 1312 86<370.659 620>
VStem: 56 134<216.938 544.652> 148 112<1016.01 1159.74> 702 98<1060.31 1277.92> 864 102<342.022 632.505>
LayerCount: 2
Fore
SplineSet
629 772 m 128,-1,1
 582 772 582 772 552 755 c 128,-1,2
 522 738 522 738 446 716 c 0,3,4
 316 676 316 676 228 536 c 0,5,6
 196 484 196 484 190 374 c 0,7,8
 190 368 190 368 190 362 c 0,9,10
 190 260 190 260 250 176 c 1,11,12
 302 114 302 114 358 91 c 128,-1,13
 414 68 414 68 506 68 c 0,14,15
 596 68 596 68 640 90 c 0,16,17
 736 140 736 140 820 342 c 0,18,19
 864 452 864 452 864 504 c 0,20,21
 864 506 864 506 864 508 c 0,22,23
 864 560 864 560 815 642 c 128,-1,24
 766 724 766 724 721 748 c 128,-1,0
 676 772 676 772 629 772 c 128,-1,1
702 1190 m 0,25,26
 702 1192 702 1192 702 1194 c 0,27,28
 702 1310 702 1310 510 1312 c 0,29,30
 452 1312 452 1312 423 1302 c 128,-1,31
 394 1292 394 1292 328 1235 c 128,-1,32
 262 1178 262 1178 260 1120 c 0,33,34
 260 1118 260 1118 260 1116 c 0,35,36
 260 1060 260 1060 305 1016 c 128,-1,37
 350 972 350 972 374 968 c 0,38,39
 546 934 546 934 569 934 c 128,-1,40
 592 934 592 934 646 1038 c 128,-1,41
 700 1142 700 1142 702 1190 c 0,25,26
692 1366 m 2,42,43
 740 1346 740 1346 770 1308 c 0,44,45
 800 1272 800 1272 800 1176 c 0,46,47
 800 1156 800 1156 782 1093 c 128,-1,48
 764 1030 764 1030 734 978 c 1,49,50
 706 936 706 936 706 928 c 2,51,-1
 706 916 l 1,52,53
 712 904 712 904 800 832 c 0,54,55
 966 700 966 700 966 494 c 0,56,57
 966 492 966 492 966 490 c 0,58,59
 966 374 966 374 956 336 c 128,-1,60
 946 298 946 298 915 238 c 128,-1,61
 884 178 884 178 816 102 c 128,-1,62
 748 26 748 26 705 -3 c 128,-1,63
 662 -32 662 -32 628 -33 c 128,-1,64
 594 -34 594 -34 556 -34 c 128,-1,65
 518 -34 518 -34 421 -15 c 128,-1,66
 324 4 324 4 263 39 c 128,-1,67
 202 74 202 74 129 175 c 128,-1,68
 56 276 56 276 56 330 c 2,69,-1
 56 332 l 1,70,71
 58 386 58 386 81 479 c 128,-1,72
 104 572 104 572 118 583 c 128,-1,73
 132 594 132 594 182 671 c 128,-1,74
 232 748 232 748 282 783 c 128,-1,75
 332 818 332 818 332 837 c 128,-1,76
 332 856 332 856 238 908 c 0,77,78
 148 960 148 960 148 1010 c 2,79,-1
 148 1012 l 1,80,81
 150 1062 150 1062 209 1201 c 128,-1,82
 268 1340 268 1340 350 1362 c 1,83,84
 372 1394 372 1394 620 1398 c 1,85,-1
 692 1366 l 2,42,43
EndSplineSet
Validated: 1
EndChar

StartChar: nine
Encoding: 57 57 24
Width: 958
VWidth: 1894
Flags: W
HStem: -58 110<294.666 618.918> 394 120<383.025 636> 1260 88<344 555.409>
VStem: 64 122<714.562 1029.98> 742 118<196.974 424.305> 766 120<685.943 1181.49>
LayerCount: 2
Fore
SplineSet
402 1344 m 128,-1,1
 428 1344 428 1344 467 1358 c 128,-1,2
 506 1372 506 1372 557 1372 c 128,-1,3
 608 1372 608 1372 662 1350 c 0,4,5
 768 1308 768 1308 823 1224 c 128,-1,6
 878 1140 878 1140 886 1086 c 1,7,8
 886 1086 886 1086 886 1080 c 1,9,10
 888 1058 888 1058 888 1022 c 0,11,12
 888 956 888 956 880 842 c 0,13,14
 864 652 864 652 852 612 c 0,15,16
 846 592 846 592 846 554 c 0,17,18
 846 546 846 546 846 538 c 0,19,20
 846 504 846 504 852 458 c 0,21,22
 858 404 858 404 860 360 c 1,23,24
 860 312 860 312 852 278 c 0,25,26
 840 224 840 224 786 128 c 1,27,28
 736 44 736 44 712 -8 c 0,29,30
 688 -58 688 -58 550 -58 c 2,31,32
 550 -58 550 -58 540 -58 c 1,33,34
 392 -56 392 -56 284 -16 c 128,-1,35
 176 24 176 24 142 56 c 0,36,37
 124 72 124 72 100 130 c 0,38,39
 96 138 96 138 96 144 c 0,40,41
 94 156 94 156 94 164 c 128,-1,42
 94 172 94 172 96 174 c 0,43,44
 100 180 100 180 134 180 c 0,45,46
 136 180 136 180 136 182 c 1,47,48
 168 182 168 182 206 154 c 0,49,50
 336 52 336 52 460 52 c 0,51,52
 466 52 466 52 472 52 c 0,53,54
 586 52 586 52 620 70 c 0,55,56
 656 88 656 88 702 208 c 0,57,58
 742 314 742 314 742 364 c 0,59,60
 742 370 742 370 742 376 c 0,61,62
 734 430 734 430 724 430 c 0,63,64
 722 430 722 430 720 430 c 0,65,66
 704 430 704 430 674 412 c 0,67,68
 636 392 636 392 601 392 c 128,-1,69
 566 392 566 392 520 394 c 128,-1,70
 474 396 474 396 412 422 c 1,71,72
 254 494 254 494 170 606 c 128,-1,73
 86 718 86 718 76 742 c 0,74,75
 66 764 66 764 64 784 c 0,76,77
 64 790 64 790 64 796 c 0,78,79
 64 810 64 810 68 826 c 0,80,81
 72 848 72 848 88 935 c 128,-1,82
 104 1022 104 1022 118 1061 c 128,-1,83
 132 1100 132 1100 142 1150 c 1,84,85
 156 1248 156 1248 254 1318 c 0,86,87
 276 1332 276 1332 304 1344 c 0,88,89
 314 1348 314 1348 330 1348 c 2,90,91
 330 1348 330 1348 350 1348 c 1,92,0
 376 1344 376 1344 402 1344 c 128,-1,1
650 1210 m 128,-1,94
 616 1210 616 1210 567 1235 c 128,-1,95
 518 1260 518 1260 430 1260 c 2,96,-1
 344 1260 l 1,97,-1
 292 1198 l 2,98,99
 240 1136 240 1136 222 1084 c 128,-1,100
 204 1032 204 1032 192 956 c 0,101,102
 186 908 186 908 186 874 c 2,103,104
 186 874 186 874 186 860 c 2,105,106
 186 846 186 846 188 832 c 0,107,108
 196 784 196 784 206 758 c 128,-1,109
 216 732 216 732 256 678 c 0,110,111
 378 514 378 514 528 514 c 1,112,-1
 636 518 l 1,113,-1
 672 574 l 2,114,115
 738 680 738 680 754 860 c 0,116,117
 766 986 766 986 766 1048 c 2,118,119
 766 1048 766 1048 766 1066 c 2,120,121
 766 1082 766 1082 764 1090 c 0,122,123
 756 1140 756 1140 733 1169 c 128,-1,124
 710 1198 710 1198 697 1204 c 128,-1,93
 684 1210 684 1210 650 1210 c 128,-1,94
EndSplineSet
Validated: 1
EndChar

StartChar: less
Encoding: 60 60 27
Width: 1014
VWidth: 1894
Flags: W
VStem: 132 168<519.375 656.144>
LayerCount: 2
Fore
SplineSet
634 286 m 128,-1,1
 644 284 644 284 692 233 c 128,-1,2
 740 182 740 182 744 182 c 128,-1,3
 748 182 748 182 802 133 c 128,-1,4
 856 84 856 84 864 72 c 0,5,6
 870 62 870 62 870 54 c 1,7,8
 870 54 870 54 868 52 c 1,9,10
 868 40 868 40 866 24 c 128,-1,11
 864 8 864 8 836 -16 c 128,-1,12
 808 -40 808 -40 800 -40 c 2,13,-1
 788 -40 l 1,14,15
 772 -36 772 -36 756 2 c 128,-1,16
 740 40 740 40 665 116 c 128,-1,17
 590 192 590 192 527 231 c 128,-1,18
 464 270 464 270 322 390 c 128,-1,19
 180 510 180 510 156 540 c 0,20,21
 132 572 132 572 132 596 c 0,22,23
 132 606 132 606 136 616 c 0,24,25
 144 656 144 656 182 676 c 0,26,27
 212 694 212 694 224 694 c 2,28,29
 224 694 224 694 226 694 c 1,30,-1
 228 694 l 2,31,32
 240 694 240 694 362 801 c 128,-1,33
 484 908 484 908 619 1036 c 128,-1,34
 754 1164 754 1164 794 1172 c 1,35,36
 828 1184 828 1184 840 1184 c 2,37,-1
 844 1184 l 2,38,39
 856 1184 856 1184 862 1158 c 128,-1,40
 868 1132 868 1132 868 1116 c 128,-1,41
 868 1100 868 1100 864 1088 c 0,42,43
 856 1060 856 1060 726 968 c 128,-1,44
 596 876 596 876 538 821 c 128,-1,45
 480 766 480 766 446 746 c 128,-1,46
 412 726 412 726 358 671 c 128,-1,47
 304 616 304 616 300 592 c 1,48,49
 300 592 300 592 300 576 c 1,50,51
 300 576 300 576 298 576 c 1,52,53
 298 560 298 560 338 516 c 1,54,55
 378 468 378 468 426 439 c 128,-1,56
 474 410 474 410 548 348 c 1,57,0
 624 288 624 288 634 286 c 128,-1,1
EndSplineSet
Validated: 1
EndChar

StartChar: equal
Encoding: 61 61 28
Width: 1280
VWidth: 1894
Flags: W
HStem: 380 134<190.715 1115.19> 392 97<843.943 1133.8> 402 112<190 641> 706 134<184.653 1108.16> 717 98<835.944 1126.77> 726 114<184 636.656>
LayerCount: 2
Fore
SplineSet
836 380 m 2,0,-1
 524 380 l 2,1,2
 484 380 484 380 348 389 c 128,-1,3
 212 398 212 398 190 402 c 1,4,-1
 166 426 l 2,5,6
 152 442 152 442 152 456 c 0,7,8
 152 514 152 514 240 514 c 1,9,10
 240 514 240 514 730 500 c 1,11,12
 1048 496 1048 496 1088 489 c 128,-1,13
 1128 482 1128 482 1134 475 c 128,-1,14
 1140 468 1140 468 1140 436 c 128,-1,15
 1140 404 1140 404 1116 392 c 128,-1,16
 1092 380 1092 380 836 380 c 2,0,-1
828 706 m 2,17,-1
 514 706 l 2,18,19
 474 706 474 706 339 714 c 128,-1,20
 204 722 204 722 184 726 c 1,21,-1
 158 754 l 2,22,23
 144 770 144 770 144 782 c 0,24,25
 144 840 144 840 230 840 c 1,26,-1
 724 826 l 1,27,28
 1044 822 1044 822 1082 815 c 128,-1,29
 1120 808 1120 808 1127 802 c 128,-1,30
 1134 796 1134 796 1134 762 c 128,-1,31
 1134 728 1134 728 1109 717 c 128,-1,32
 1084 706 1084 706 828 706 c 2,17,-1
EndSplineSet
Validated: 1
EndChar

StartChar: greater
Encoding: 62 62 29
Width: 936
VWidth: 1894
Flags: W
VStem: 614 182<523.453 670.697>
LayerCount: 2
Fore
SplineSet
208 1144 m 2,0,1
 208 1144 208 1144 210 1144 c 2,2,3
 240 1144 240 1144 300 1076 c 1,4,5
 364 1008 364 1008 445 933 c 128,-1,6
 526 858 526 858 569 833 c 128,-1,7
 612 808 612 808 659 752 c 128,-1,8
 706 696 706 696 750 672 c 0,9,10
 796 648 796 648 796 620 c 2,11,-1
 796 616 l 2,12,13
 796 592 796 592 788 572 c 0,14,15
 780 548 780 548 598 348 c 128,-1,16
 416 148 416 148 242 -66 c 0,17,18
 222 -88 222 -88 188 -88 c 0,19,20
 184 -88 184 -88 178 -90 c 1,21,22
 152 -90 152 -90 148 -84 c 0,23,24
 140 -76 140 -76 140 -40 c 2,25,26
 140 -40 140 -40 140 -38 c 2,27,28
 140 0 140 0 164 32 c 1,29,30
 188 68 188 68 394 300 c 128,-1,31
 600 532 600 532 612 574 c 0,32,33
 614 578 614 578 614 592 c 1,34,35
 612 600 612 600 612 608 c 0,36,37
 612 636 612 636 540 704 c 1,38,39
 302 912 302 912 231 982 c 128,-1,40
 160 1052 160 1052 156 1080 c 1,41,42
 156 1080 156 1080 156 1090 c 2,43,44
 156 1110 156 1110 168 1124 c 1,45,46
 180 1144 180 1144 208 1144 c 2,0,1
EndSplineSet
Validated: 1
EndChar

StartChar: question
Encoding: 63 63 30
Width: 950
Flags: W
HStem: -20 98<459.692 499.794> 126 110<455.309 523.5> 311 105<432.969 587.969> 1299 94<347.518 627.143>
VStem: 170 90<842.032 1144.78> 208 100<782.013 977.96> 318 112<419.785 563> 332 121<78.3711 125.461> 500 94<78.6849 175.5> 742 96<871.073 1150.37>
LayerCount: 2
Fore
SplineSet
494 1393 m 2,0,1
 556 1393 556 1393 602 1375 c 0,2,3
 648 1357 648 1357 704 1305 c 0,4,5
 838 1182 838 1182 838 1003 c 0,6,7
 838 985 838 985 836 966 c 0,8,9
 820 740 820 740 502 595 c 1,10,-1
 430 563 l 1,11,-1
 428 481 l 2,12,13
 428 459 428 459 448 438 c 0,14,15
 466 418 466 418 486 416 c 0,16,17
 488 416 488 416 490 416 c 0,18,19
 510 416 510 416 542 429 c 0,20,21
 574 442 574 442 586 442 c 2,22,-1
 588 442 l 1,23,24
 598 440 598 440 606 425 c 0,25,26
 614 412 614 412 614 398 c 0,27,28
 614 383 614 383 590 348 c 0,29,30
 566 313 566 313 478 313 c 1,31,32
 476 311 476 311 458 311 c 0,33,34
 440 311 440 311 340 385 c 1,35,36
 318 418 318 418 318 490 c 0,37,38
 318 562 318 562 330 585 c 0,39,40
 342 607 342 607 386 637 c 0,41,42
 430 666 430 666 460 674 c 0,43,44
 490 681 490 681 550 725 c 0,45,46
 610 769 610 769 642 799 c 1,47,48
 742 906 742 906 742 1001 c 0,49,50
 742 1036 742 1036 708 1125 c 0,51,52
 674 1215 674 1215 630 1252 c 0,53,54
 586 1289 586 1289 562 1294 c 0,55,56
 538 1300 538 1300 514 1299 c 0,57,58
 490 1299 490 1299 448 1296 c 0,59,60
 406 1292 406 1292 374 1274 c 0,61,62
 342 1256 342 1256 306 1207 c 0,63,64
 270 1159 270 1159 262 1145 c 0,65,66
 260 1138 260 1138 260 1126 c 0,67,68
 260 1115 260 1115 262 1101 c 0,69,70
 266 1073 266 1073 276 979 c 0,71,72
 286 883 286 883 298 858 c 0,73,74
 308 836 308 836 308 827 c 2,75,-1
 308 825 l 1,76,77
 306 818 306 818 288 799 c 0,78,79
 270 781 270 781 246 777 c 0,80,81
 242 777 242 777 238 777 c 0,82,83
 220 777 220 777 208 792 c 0,84,85
 194 810 194 810 182 878 c 0,86,87
 170 946 170 946 170 979 c 0,88,89
 170 1012 170 1012 174 1049 c 0,90,91
 178 1086 178 1086 182 1156 c 0,92,93
 186 1226 186 1226 262 1310 c 0,94,95
 334 1393 334 1393 488 1393 c 2,96,-1
 494 1393 l 2,0,1
EndSplineSet
Refer: 13 46 N 1 0 0 1 156 -8 2
Validated: 1
EndChar

StartChar: at
Encoding: 64 64 31
Width: 1500
VWidth: 1894
Flags: W
HStem: 247 115<562.854 811.132 1052.33 1200.62> 927 104<603.124 845.864> 1404 78<507.944 807.569>
VStem: 58 104<316.304 826.232> 374 112<439.561 798.271> 924 112<458.188 817.275> 1320 102<531.075 1036.13>
LayerCount: 2
Fore
SplineSet
1040 569 m 1,0,-1
 1036 452 l 2,1,2
 1036 428 1036 428 1062 389 c 128,-1,3
 1088 350 1088 350 1115 350 c 128,-1,4
 1142 350 1142 350 1195 400 c 128,-1,5
 1248 450 1248 450 1266 499 c 128,-1,6
 1284 548 1284 548 1302 656 c 128,-1,7
 1320 764 1320 764 1320 850 c 128,-1,8
 1320 936 1320 936 1296 996 c 128,-1,9
 1272 1056 1272 1056 1203 1127 c 128,-1,10
 1134 1198 1134 1198 1120 1198 c 128,-1,11
 1106 1198 1106 1198 986 1276 c 128,-1,12
 866 1354 866 1354 760 1379 c 128,-1,13
 654 1404 654 1404 634 1404 c 128,-1,14
 614 1404 614 1404 558 1387 c 128,-1,15
 502 1370 502 1370 451 1323 c 128,-1,16
 400 1276 400 1276 340 1169 c 128,-1,17
 280 1062 280 1062 260 997 c 128,-1,18
 240 932 240 932 223 879 c 128,-1,19
 206 826 206 826 197 797 c 128,-1,20
 188 768 188 768 175 708 c 128,-1,21
 162 648 162 648 162 551 c 128,-1,22
 162 454 162 454 166 424 c 128,-1,23
 170 394 170 394 199 333 c 128,-1,24
 228 272 228 272 230 257 c 128,-1,25
 232 242 232 242 285 181 c 128,-1,26
 338 120 338 120 420 59 c 128,-1,27
 502 -2 502 -2 582 -34 c 128,-1,28
 662 -66 662 -66 771 -75 c 128,-1,29
 880 -84 880 -84 889 -88 c 128,-1,30
 898 -92 898 -92 940 -92 c 128,-1,31
 982 -92 982 -92 1100 -31 c 128,-1,32
 1218 30 1218 30 1294 188 c 1,33,34
 1342 276 1342 276 1362 301 c 128,-1,35
 1382 326 1382 326 1404 326 c 128,-1,36
 1426 326 1426 326 1431 317 c 128,-1,37
 1436 308 1436 308 1436 251 c 128,-1,38
 1436 194 1436 194 1360 80 c 128,-1,39
 1284 -34 1284 -34 1192 -96 c 2,40,-1
 1120 -144 l 1,41,-1
 836 -212 l 1,42,-1
 556 -138 l 1,43,44
 389 -58 389 -58 286.5 28 c 128,-1,45
 184 114 184 114 156 168 c 1,46,47
 90 302 90 302 74 359 c 128,-1,48
 58 416 58 416 58 587 c 128,-1,49
 58 758 58 758 115 922.5 c 128,-1,50
 172 1087 172 1087 204 1140.5 c 128,-1,51
 236 1194 236 1194 265 1250 c 128,-1,52
 294 1306 294 1306 347 1366 c 128,-1,53
 400 1426 400 1426 454 1454 c 128,-1,54
 508 1482 508 1482 621 1482 c 128,-1,55
 734 1482 734 1482 776 1472 c 128,-1,56
 818 1462 818 1462 1037.5 1352.5 c 128,-1,57
 1257 1243 1257 1243 1385 1045 c 0,58,59
 1422 988 1422 988 1422 866 c 128,-1,60
 1422 744 1422 744 1389.5 584 c 128,-1,61
 1357 424 1357 424 1280.5 329 c 128,-1,62
 1204 234 1204 234 1114 234 c 2,63,-1
 1112 234 l 2,64,65
 1024 234 1024 234 981 297 c 128,-1,66
 938 360 938 360 924 362 c 257,67,68
 910 362 910 362 857 305 c 128,-1,69
 804 248 804 248 734 248 c 0,70,71
 730 248 730 248 695 247 c 0,72,73
 693 247 693 247 691 247 c 0,74,75
 656 247 656 247 595 264 c 0,76,77
 530 282 530 282 501 303 c 128,-1,78
 472 324 472 324 423 409 c 128,-1,79
 374 494 374 494 374 638 c 0,80,81
 374 898 374 898 596 1002 c 0,82,83
 658 1030 658 1030 760.5 1031 c 128,-1,84
 863 1032 863 1032 889 1053 c 0,85,86
 919 1076 919 1076 942 1076 c 0,87,88
 980 1076 980 1076 998 1013 c 0,89,90
 1010 970 1010 970 1014 844 c 128,-1,91
 1018 718 1018 718 1029 662 c 128,-1,92
 1040 606 1040 606 1040 569 c 1,0,-1
486 620 m 0,93,94
 486 362 486 362 704 362 c 2,95,-1
 723 362 l 2,96,97
 766 362 766 362 805 400 c 128,-1,98
 844 438 844 438 882 445 c 128,-1,99
 920 452 920 452 922 458 c 128,-1,100
 924 464 924 464 924 471 c 128,-1,101
 924 478 924 478 920 512 c 128,-1,102
 916 546 916 546 905 673 c 128,-1,103
 894 800 894 800 863 859 c 128,-1,104
 832 918 832 918 756 926 c 0,105,106
 745 927 745 927 734 927 c 0,107,108
 669 927 669 927 601 887 c 0,109,110
 601 886 601 886 543.5 816.5 c 128,-1,111
 486 747 486 747 486 620 c 0,93,94
EndSplineSet
Validated: 1
EndChar

StartChar: A
Encoding: 65 65 32
Width: 1138
VWidth: 1894
Flags: W
HStem: 16 117<727.028 845.681> 558 108<314.938 844.9> 1248 122<444.266 690>
VStem: 128 130<111.057 501.222> 172 122<658 955.917> 848 134<154.263 527.749> 848 112<369.133 527.749 700.946 854.754 857.255 1118.21>
LayerCount: 2
Fore
SplineSet
1070 60 m 1,0,-1
 1056 2 l 1,1,-1
 750 16 l 1,2,3
 720 24 720 24 718 52 c 0,4,5
 718 54 718 54 718 56 c 0,6,7
 718 82 718 82 738 102 c 0,8,9
 760 124 760 124 798 133 c 128,-1,10
 836 142 836 142 846 154 c 0,11,12
 854 162 854 162 854 222 c 0,13,14
 854 248 854 248 852 280 c 0,15,16
 848 370 848 370 848 420 c 0,17,18
 848 432 848 432 848 444 c 2,19,20
 848 444 848 444 848 484 c 1,21,-1
 848 508 l 2,22,23
 848 520 848 520 845 528 c 128,-1,24
 842 536 842 536 815 547 c 128,-1,25
 788 558 788 558 615 558 c 128,-1,26
 442 558 442 558 376 542 c 128,-1,27
 310 526 310 526 297 502 c 128,-1,28
 284 478 284 478 268 340 c 0,29,30
 258 248 258 248 258 196 c 0,31,32
 258 188 258 188 258 180 c 2,33,34
 258 180 258 180 258 158 c 1,35,36
 262 118 262 118 322 106 c 0,37,38
 352 100 352 100 360 92 c 0,39,40
 362 88 362 88 364 82 c 1,41,42
 364 72 364 72 356 52 c 0,43,44
 344 22 344 22 306 14 c 128,-1,45
 268 6 268 6 194 6 c 128,-1,46
 120 6 120 6 89 14 c 128,-1,47
 58 22 58 22 56 48 c 1,48,-1
 56 50 l 2,49,50
 56 74 56 74 92 103 c 128,-1,51
 128 132 128 132 128 156 c 2,52,-1
 128 160 l 1,53,54
 128 160 128 160 128 166 c 2,55,56
 128 196 128 196 140 268 c 0,57,58
 152 352 152 352 164 478 c 0,59,60
 172 572 172 572 174 630 c 0,61,62
 174 652 174 652 172 668 c 1,63,64
 172 668 172 668 172 682 c 2,65,66
 172 748 172 748 204 902 c 0,67,68
 240 1074 240 1074 299 1172 c 128,-1,69
 358 1270 358 1270 396 1309 c 128,-1,70
 434 1348 434 1348 480 1359 c 128,-1,71
 526 1370 526 1370 550 1370 c 128,-1,72
 574 1370 574 1370 612 1368 c 0,73,74
 862 1348 862 1348 940 1058 c 0,75,76
 958 990 958 990 960 956 c 0,77,78
 964 896 964 896 964 856 c 128,-1,79
 964 816 964 816 960 794 c 1,80,-1
 982 142 l 1,81,-1
 1030 104 l 2,82,83
 1068 72 1068 72 1070 60 c 1,0,-1
294 658 m 1,84,-1
 562 676 l 1,85,86
 640 676 640 676 689 671 c 128,-1,87
 738 666 738 666 764 666 c 128,-1,88
 790 666 790 666 822 686 c 2,89,-1
 854 708 l 1,90,-1
 840 902 l 2,91,92
 828 1060 828 1060 808 1110 c 1,93,94
 790 1148 790 1148 742 1200 c 1,95,-1
 690 1248 l 1,96,-1
 596 1248 l 1,97,98
 500 1246 500 1246 476 1230 c 1,99,100
 416 1200 416 1200 358 1036 c 0,101,102
 294 860 294 860 294 728 c 2,103,-1
 294 658 l 1,84,-1
EndSplineSet
Validated: 1
EndChar

StartChar: B
Encoding: 66 66 33
Width: 1022
VWidth: 1894
Flags: W
HStem: -6 94<74.5625 234 340.203 658.72> 604 126<356.75 567.004> 1238 114<369.357 663.261>
VStem: 234 102<92.064 451.994> 242 116<372.758 580 730 1187.38> 848 112<270.195 515.627>
LayerCount: 2
Fore
SplineSet
421 1352 m 128,-1,1
 484 1352 484 1352 587 1333 c 128,-1,2
 690 1314 690 1314 748 1274 c 128,-1,3
 806 1234 806 1234 848 1152 c 128,-1,4
 890 1070 890 1070 890 1013 c 128,-1,5
 890 956 890 956 849 875 c 128,-1,6
 808 794 808 794 772 765 c 128,-1,7
 736 736 736 736 739 727 c 128,-1,8
 742 718 742 718 775 696 c 128,-1,9
 808 674 808 674 816 666 c 1,10,11
 870 630 870 630 915 538 c 128,-1,12
 960 446 960 446 960 404 c 128,-1,13
 960 362 960 362 941 293 c 128,-1,14
 922 224 922 224 868 154 c 128,-1,15
 814 84 814 84 722 36 c 128,-1,16
 630 -12 630 -12 338 -12 c 1,17,-1
 122 -6 l 1,18,19
 78 0 78 0 69 15 c 128,-1,20
 60 30 60 30 60 40 c 0,21,22
 58 52 58 52 74 70 c 1,23,24
 92 84 92 84 110 88 c 1,25,-1
 234 88 l 1,26,-1
 236 482 l 1,27,-1
 242 1008 l 2,28,29
 242 1080 242 1080 234 1138 c 2,30,-1
 224 1200 l 1,31,-1
 130 1192 l 2,32,33
 108 1192 108 1192 90 1206 c 128,-1,34
 72 1220 72 1220 88 1255 c 128,-1,35
 104 1290 104 1290 135 1306 c 128,-1,36
 166 1322 166 1322 255 1331 c 128,-1,37
 344 1340 344 1340 351 1346 c 128,-1,0
 358 1352 358 1352 421 1352 c 128,-1,1
372 1032 m 1,38,-1
 352 730 l 1,39,-1
 406 730 l 2,40,41
 468 730 468 730 513 748 c 128,-1,42
 558 766 558 766 619 808 c 128,-1,43
 680 850 680 850 704 875 c 128,-1,44
 728 900 728 900 750 938 c 1,45,-1
 780 996 l 1,46,47
 754 1080 754 1080 726 1162 c 1,48,-1
 646 1202 l 1,49,50
 580 1238 580 1238 560 1238 c 128,-1,51
 540 1238 540 1238 527 1233 c 128,-1,52
 514 1228 514 1228 447 1227 c 128,-1,53
 380 1226 380 1226 369 1214 c 128,-1,54
 358 1202 358 1202 358 1183 c 128,-1,55
 358 1164 358 1164 365 1135 c 128,-1,56
 372 1106 372 1106 372 1032 c 1,38,-1
632 604 m 2,57,58
 632 604 632 604 520 604 c 2,59,60
 452 604 452 604 404 592 c 2,61,-1
 356 580 l 1,62,-1
 342 128 l 1,63,64
 338 110 338 110 336 102 c 128,-1,65
 334 94 334 94 340 92 c 128,-1,66
 346 90 346 90 417 90 c 128,-1,67
 488 90 488 90 634 124 c 0,68,69
 706 142 706 142 777 233 c 128,-1,70
 848 324 848 324 848 380 c 128,-1,71
 848 436 848 436 815 496 c 128,-1,72
 782 556 782 556 750 577 c 128,-1,73
 718 598 718 598 697 601 c 128,-1,74
 676 604 676 604 632 604 c 2,57,58
EndSplineSet
Validated: 1
EndChar

StartChar: C
Encoding: 67 67 34
Width: 1036
VWidth: 1894
Flags: W
HStem: -52 106<388.289 703.638> 56 230<787.086 910.775> 1272 114<543.456 745.865>
VStem: 60 128<332.653 848.688> 770 202<114.852 222.893>
LayerCount: 2
Fore
SplineSet
666 1386 m 128,-1,1
 774 1386 774 1386 804 1364 c 257,2,3
 828 1350 828 1350 850 1350 c 2,4,-1
 878 1350 l 257,5,6
 922 1352 922 1352 940 1337 c 128,-1,7
 958 1322 958 1322 954 1280 c 128,-1,8
 950 1238 950 1238 934 1218 c 128,-1,9
 918 1198 918 1198 887 1142 c 128,-1,10
 856 1086 856 1086 824 1068 c 1,11,-1
 788 1042 l 1,12,-1
 740 1104 l 1,13,14
 736 1116 736 1116 749 1157 c 128,-1,15
 762 1198 762 1198 752 1218 c 128,-1,16
 742 1238 742 1238 711 1255 c 128,-1,17
 680 1272 680 1272 661 1272 c 128,-1,18
 642 1272 642 1272 624 1264 c 0,19,20
 518 1228 518 1228 429 1136 c 128,-1,21
 340 1044 340 1044 313 1004 c 128,-1,22
 286 964 286 964 245 876 c 128,-1,23
 204 788 204 788 196 754 c 128,-1,24
 188 720 188 720 188 643 c 128,-1,25
 188 566 188 566 210 473 c 128,-1,26
 232 380 232 380 232 333 c 128,-1,27
 232 286 232 286 251 248 c 128,-1,28
 270 210 270 210 348 132 c 128,-1,29
 426 54 426 54 531 54 c 128,-1,30
 636 54 636 54 703 98 c 128,-1,31
 770 142 770 142 770 196 c 128,-1,32
 770 250 770 250 782 268 c 128,-1,33
 794 286 794 286 827 286 c 128,-1,34
 860 286 860 286 900 251 c 128,-1,35
 940 216 940 216 956 176 c 128,-1,36
 972 136 972 136 972 121 c 128,-1,37
 972 106 972 106 964 83 c 128,-1,38
 956 60 956 60 946 56 c 128,-1,39
 936 52 936 52 914 54 c 128,-1,40
 892 56 892 56 871 56 c 128,-1,41
 850 56 850 56 827 38 c 128,-1,42
 804 20 804 20 749 -10 c 128,-1,43
 694 -40 694 -40 664 -46 c 128,-1,44
 634 -52 634 -52 538 -52 c 128,-1,45
 442 -52 442 -52 394 -36 c 128,-1,46
 346 -20 346 -20 270 44 c 0,47,48
 122 166 122 166 112 272 c 256,49,50
 100 378 100 378 80 497 c 128,-1,51
 60 616 60 616 60 657 c 128,-1,52
 60 698 60 698 68 749 c 128,-1,53
 76 800 76 800 145 943 c 128,-1,54
 214 1086 214 1086 284 1164 c 128,-1,55
 354 1242 354 1242 456 1314 c 128,-1,0
 558 1386 558 1386 666 1386 c 128,-1,1
EndSplineSet
Validated: 1
EndChar

StartChar: D
Encoding: 68 68 35
Width: 1218
VWidth: 1894
Flags: W
HStem: 2 116<374 561.047> 4 88<112.507 223.998> 1182 118<72.0073 207.623> 1230 138<402.582 815.934>
VStem: 236 114<119.281 974.674> 236 98<169.25 470.192 475.646 954> 1040 118<614 1005.37>
LayerCount: 2
Fore
SplineSet
126 1182 m 0,0,1
 64 1182 64 1182 64 1225 c 128,-1,2
 64 1268 64 1268 120 1300 c 128,-1,3
 176 1332 176 1332 259 1350 c 128,-1,4
 342 1368 342 1368 496 1368 c 128,-1,5
 650 1368 650 1368 731 1350 c 128,-1,6
 812 1332 812 1332 889 1287 c 128,-1,7
 966 1242 966 1242 997 1197 c 128,-1,8
 1028 1152 1028 1152 1080 1094 c 1,9,10
 1128 1036 1128 1036 1144 984 c 0,11,12
 1158 938 1158 938 1158 890 c 0,13,14
 1158 884 1158 884 1158 878 c 2,15,-1
 1158 818 l 1,16,17
 1152 706 1152 706 1112 591 c 128,-1,18
 1072 476 1072 476 1023 419 c 128,-1,19
 974 362 974 362 952 322 c 128,-1,20
 930 282 930 282 874 226 c 128,-1,21
 818 170 818 170 750 123 c 128,-1,22
 682 76 682 76 534 39 c 128,-1,23
 386 2 386 2 274 2 c 128,-1,24
 162 2 162 2 141 4 c 128,-1,25
 120 6 120 6 108 22 c 0,26,27
 102 30 102 30 102 38 c 0,28,29
 104 48 104 48 112 60 c 0,30,31
 128 80 128 80 172 92 c 128,-1,32
 216 104 216 104 224 136 c 1,33,34
 236 168 236 168 236 214 c 2,35,36
 236 214 236 214 236 236 c 2,37,38
 236 284 236 284 232 376 c 0,39,40
 230 414 230 414 230 472 c 0,41,42
 230 588 230 588 236 788 c 1,43,-1
 248 986 l 1,44,45
 248 986 248 986 248 1008 c 2,46,47
 248 1054 248 1054 242 1116 c 0,48,49
 234 1192 234 1192 220 1196 c 0,50,51
 216 1198 216 1198 208 1198 c 0,52,53
 196 1198 196 1198 176 1192 c 0,54,55
 144 1182 144 1182 126 1182 c 0,0,1
718 1230 m 1,56,-1
 402 1236 l 1,57,-1
 392 1088 l 2,58,59
 382 952 382 952 359 824 c 128,-1,60
 336 696 336 696 334 628 c 1,61,62
 334 628 334 628 334 608 c 2,63,64
 334 556 334 556 342 521 c 128,-1,65
 350 486 350 486 350 408 c 0,66,67
 350 392 350 392 350 376 c 2,68,69
 350 376 350 376 350 350 c 2,70,71
 350 262 350 262 362 200 c 1,72,-1
 374 118 l 1,73,-1
 416 118 l 2,74,75
 456 118 456 118 518 135 c 128,-1,76
 580 152 580 152 626 176 c 0,77,78
 716 220 716 220 876 428 c 128,-1,79
 1036 636 1036 636 1040 756 c 1,80,81
 1040 756 1040 756 1040 806 c 2,82,83
 1040 892 1040 892 1028 938 c 0,84,85
 1012 998 1012 998 930 1088 c 128,-1,86
 848 1178 848 1178 801 1202 c 128,-1,87
 754 1226 754 1226 718 1230 c 1,56,-1
EndSplineSet
Validated: 1
EndChar

StartChar: E
Encoding: 69 69 36
Width: 1094
VWidth: 1894
Flags: W
HStem: 32 102<76.0542 116> 122 88<338 739.836> 572 262<510.875 625.799> 1146 162<810.134 913.344> 1246 88<551.085 789.984> 1368 20G<980 1020>
VStem: 218 86<208 847>
LayerCount: 2
Fore
SplineSet
322 553 m 1,0,-1
 340 390 l 1,1,-1
 330 251 l 1,2,3
 330 210 330 210 362 210 c 0,4,5
 384 210 384 210 424 216 c 128,-1,6
 464 222 464 222 592 222 c 128,-1,7
 720 222 720 222 762 215 c 128,-1,8
 804 208 804 208 814 208 c 2,9,-1
 830 208 l 1,10,11
 844 212 844 212 869 249 c 128,-1,12
 894 286 894 286 928 286 c 2,13,-1
 930 286 l 2,14,15
 964 286 964 286 964 227 c 128,-1,16
 964 168 964 168 906 106 c 128,-1,17
 848 44 848 44 848 32 c 1,18,-1
 850 32 l 1,19,20
 850 20 850 20 828 12 c 128,-1,21
 806 4 806 4 794 4 c 0,22,23
 762 4 762 4 754 46 c 128,-1,24
 746 88 746 88 735 96 c 128,-1,25
 724 104 724 104 686 113 c 128,-1,26
 648 122 648 122 613 122 c 128,-1,27
 578 122 578 122 413 92 c 128,-1,28
 248 62 248 62 197 48 c 128,-1,29
 146 34 146 34 134 34 c 128,-1,30
 122 34 122 34 118 32 c 1,31,32
 72 32 72 32 72 68.5 c 128,-1,33
 72 105 72 105 116 134 c 1,34,-1
 218 208 l 1,35,36
 206 1098 206 1098 162 1142 c 0,37,38
 156 1148 156 1148 140 1150 c 1,39,-1
 118 1150 l 2,40,41
 116 1150 116 1150 112 1146 c 1,42,43
 46 1146 46 1146 44 1204 c 1,44,45
 44 1276 44 1276 195 1315 c 0,46,47
 268 1334 268 1334 516 1334 c 128,-1,48
 764 1334 764 1334 803 1321 c 128,-1,49
 842 1308 842 1308 858 1308 c 128,-1,50
 874 1308 874 1308 891 1312 c 128,-1,51
 908 1316 908 1316 936 1352 c 128,-1,52
 964 1388 964 1388 996 1388 c 0,53,54
 1044 1388 1044 1388 1044 1332 c 0,55,56
 1044 1308 1044 1308 1009 1251 c 128,-1,57
 974 1194 974 1194 943 1170 c 128,-1,58
 912 1146 912 1146 881 1146 c 128,-1,59
 850 1146 850 1146 829 1173 c 128,-1,60
 808 1200 808 1200 740 1223 c 128,-1,61
 672 1246 672 1246 647 1246 c 1,62,-1
 366 1204 l 1,63,-1
 320 1204 l 1,64,-1
 320 1070 l 2,65,66
 320 940 320 940 312 905 c 128,-1,67
 304 870 304 870 304 847 c 128,-1,68
 304 824 304 824 312 797 c 128,-1,69
 320 770 320 770 325 764 c 128,-1,70
 330 758 330 758 338 758 c 128,-1,71
 346 758 346 758 366 764 c 128,-1,72
 386 770 386 770 454 778 c 128,-1,73
 522 786 522 786 557 810 c 128,-1,74
 592 834 592 834 606 834 c 2,75,-1
 608 834 l 2,76,77
 622 834 622 834 652 821 c 128,-1,78
 682 808 682 808 682 755 c 128,-1,79
 682 702 682 702 640 637 c 128,-1,80
 598 572 598 572 564 572 c 128,-1,81
 530 572 530 572 496 616 c 1,82,-1
 462 658 l 1,83,84
 356 635 356 635 339 620.5 c 128,-1,85
 322 606 322 606 322 553 c 1,0,-1
EndSplineSet
Validated: 1
EndChar

StartChar: F
Encoding: 70 70 37
Width: 1184
VWidth: 1894
Flags: W
HStem: 0 144<335.357 425.297> 624 114<362 602> 1146 116<74.3254 245.404 402 478.919> 1198 112<456.328 932> 1342 20G<1056 1092>
VStem: 226 106<137.512 613.5> 254 102<160.078 620 726.002 1137.73>
LayerCount: 2
Fore
SplineSet
192 1148 m 2,0,-1
 128 1146 l 2,1,2
 66 1146 66 1146 62 1198 c 1,3,-1
 62 1208 l 1,4,5
 64 1232 64 1232 74 1247 c 128,-1,6
 84 1262 84 1262 147 1262 c 128,-1,7
 210 1262 210 1262 239 1280 c 128,-1,8
 268 1298 268 1298 302 1298 c 128,-1,9
 336 1298 336 1298 366 1282 c 128,-1,10
 396 1266 396 1266 422 1266 c 128,-1,11
 448 1266 448 1266 554 1288 c 128,-1,12
 660 1310 660 1310 803 1310 c 128,-1,13
 946 1310 946 1310 975 1314 c 128,-1,14
 1004 1318 1004 1318 1028 1340 c 128,-1,15
 1052 1362 1052 1362 1060 1362 c 2,16,-1
 1068 1362 l 2,17,18
 1116 1362 1116 1362 1120 1304 c 1,19,-1
 1120 1268 l 2,20,21
 1120 1236 1120 1236 1090 1172 c 128,-1,22
 1060 1108 1060 1108 1030 1108 c 128,-1,23
 1000 1108 1000 1108 968 1150 c 2,24,-1
 932 1198 l 1,25,-1
 824 1198 l 2,26,27
 710 1198 710 1198 614 1180 c 2,28,-1
 402 1144 l 1,29,-1
 394 1094 l 1,30,31
 374 996 374 996 370 888 c 128,-1,32
 366 780 366 780 361 761 c 128,-1,33
 356 742 356 742 356 734 c 128,-1,34
 356 726 356 726 367 726 c 128,-1,35
 378 726 378 726 423 732 c 128,-1,36
 468 738 468 738 529 738 c 128,-1,37
 590 738 590 738 608 745 c 128,-1,38
 626 752 626 752 644 776 c 128,-1,39
 662 800 662 800 693 800 c 128,-1,40
 724 800 724 800 737 791 c 128,-1,41
 750 782 750 782 750 744 c 128,-1,42
 750 706 750 706 739 637 c 128,-1,43
 728 568 728 568 716 554 c 128,-1,44
 704 540 704 540 692 540 c 0,45,46
 648 540 648 540 624 588 c 1,47,-1
 602 624 l 1,48,-1
 482 624 l 1,49,-1
 362 620 l 1,50,-1
 358 474 l 2,51,52
 356 412 356 412 344 370 c 128,-1,53
 332 328 332 328 332 290 c 2,54,-1
 332 228 l 1,55,56
 336 144 336 144 354 144 c 128,-1,57
 372 144 372 144 404 118 c 128,-1,58
 436 92 436 92 439 85 c 128,-1,59
 442 78 442 78 442 71 c 128,-1,60
 442 64 442 64 438 50 c 0,61,62
 418 0 418 0 250 0 c 128,-1,63
 82 0 82 0 71 12 c 128,-1,64
 60 24 60 24 60 36 c 2,65,-1
 60 38 l 2,66,67
 60 66 60 66 144 104 c 0,68,69
 226 142 226 142 226 228 c 2,70,-1
 226 262 l 2,71,72
 226 286 226 286 240 360 c 128,-1,73
 254 434 254 434 254 512 c 1,74,-1
 236 976 l 2,75,76
 236 1016 236 1016 241 1042 c 128,-1,77
 246 1068 246 1068 246 1080 c 2,78,-1
 246 1098 l 1,79,80
 244 1148 244 1148 192 1148 c 2,0,-1
EndSplineSet
Validated: 1
EndChar

StartChar: G
Encoding: 71 71 38
Width: 1066
VWidth: 1894
Flags: W
HStem: -18 108<420.192 699.367> 544 120<623.926 875.978> 560 104<617.547 875.978> 1280 98<517.197 774.289> 1338 20G<921 963>
VStem: 58 114<224.553 892.719> 878 126<360.58 530 532 542.828>
LayerCount: 2
Fore
SplineSet
698 664 m 1,0,-1
 780 658 l 1,1,2
 838 660 838 660 885 676 c 128,-1,3
 932 692 932 692 944 692 c 128,-1,4
 956 692 956 692 974 668 c 1,5,6
 1002 642 1002 642 1003 612 c 128,-1,7
 1004 582 1004 582 1004 540 c 128,-1,8
 1004 498 1004 498 989 336 c 128,-1,9
 974 174 974 174 971 135 c 128,-1,10
 968 96 968 96 954 82 c 0,11,12
 936 64 936 64 914 64 c 0,13,14
 904 64 904 64 894 68 c 1,15,16
 860 74 860 74 844 74 c 0,17,18
 836 74 836 74 830 72 c 0,19,20
 816 68 816 68 786 48 c 0,21,22
 688 -18 688 -18 524 -18 c 2,23,-1
 518 -18 l 2,24,25
 350 -18 350 -18 277 22 c 128,-1,26
 204 62 204 62 156 117 c 128,-1,27
 108 172 108 172 88 220 c 1,28,29
 64 268 64 268 60 340 c 0,30,31
 58 388 58 388 58 434 c 2,32,33
 58 434 58 434 58 480 c 1,34,35
 56 526 56 526 56 566 c 0,36,37
 56 804 56 804 96 906 c 0,38,39
 128 988 128 988 145 1059 c 128,-1,40
 162 1130 162 1130 242 1222 c 128,-1,41
 322 1314 322 1314 405 1346 c 128,-1,42
 488 1378 488 1378 563 1378 c 128,-1,43
 638 1378 638 1378 729 1355 c 128,-1,44
 820 1332 820 1332 844 1332 c 128,-1,45
 868 1332 868 1332 884 1344 c 0,46,47
 904 1358 904 1358 938 1358 c 0,48,49
 988 1356 988 1356 992 1300 c 1,50,51
 992 1300 992 1300 992 1268 c 1,52,53
 992 1268 992 1268 994 1266 c 2,54,55
 994 1264 994 1264 994 1262 c 0,56,57
 994 1234 994 1234 964 1170 c 0,58,59
 932 1100 932 1100 908 1100 c 1,60,-1
 908 1098 l 1,61,62
 884 1100 884 1100 852 1152 c 128,-1,63
 820 1204 820 1204 789 1226 c 128,-1,64
 758 1248 758 1248 703 1264 c 128,-1,65
 648 1280 648 1280 598 1280 c 1,66,-1
 474 1258 l 1,67,68
 332 1204 332 1204 256 1006 c 0,69,70
 216 906 216 906 204 838 c 0,71,72
 172 666 172 666 172 482 c 0,73,74
 172 324 172 324 190 276 c 128,-1,75
 208 228 208 228 253 175 c 128,-1,76
 298 122 298 122 312 122 c 1,77,-1
 508 90 l 1,78,79
 674 90 674 90 738 168 c 128,-1,80
 802 246 802 246 840 380 c 128,-1,81
 878 514 878 514 878 530 c 1,82,-1
 876 532 l 1,83,84
 876 544 876 544 786 544 c 128,-1,85
 696 544 696 544 660 560 c 1,86,87
 616 576 616 576 616 620 c 1,88,89
 616 620 616 620 614 622 c 1,90,91
 614 664 614 664 698 664 c 1,0,-1
EndSplineSet
Validated: 1
EndChar

StartChar: H
Encoding: 72 72 39
Width: 1184
VWidth: 1894
Flags: W
HStem: 764 112<601.407 912> 1326 20G<288 306 960 1040>
VStem: 896 234<1216.75 1290 1292 1342.16> 902 108<148.009 675.084> 932 126<876 1244.04>
LayerCount: 2
Fore
SplineSet
904 1262 m 256,0,1
 896 1274 896 1274 896 1290 c 0,2,3
 896 1308 896 1308 904 1328 c 0,4,5
 920 1370 920 1370 1000 1370 c 128,-1,6
 1080 1370 1080 1370 1104 1343 c 128,-1,7
 1128 1316 1128 1316 1128 1292 c 1,8,9
 1128 1292 1128 1292 1130 1290 c 1,10,11
 1130 1266 1130 1266 1104 1246 c 1,12,13
 1058 1204 1058 1204 1058 972 c 2,14,15
 1058 972 1058 972 1058 916 c 2,16,17
 1058 812 1058 812 1042 666 c 128,-1,18
 1026 520 1026 520 1020 404 c 128,-1,19
 1014 288 1014 288 1012 254 c 256,20,21
 1010 240 1010 240 1010 230 c 0,22,23
 1010 216 1010 216 1014 206 c 0,24,25
 1018 192 1018 192 1054 148 c 128,-1,26
 1090 104 1090 104 1090 88 c 2,27,28
 1090 88 1090 88 1090 86 c 2,29,30
 1090 48 1090 48 1020 18 c 0,31,32
 948 -12 948 -12 916 -12 c 128,-1,33
 884 -12 884 -12 862 -8 c 128,-1,34
 840 -4 840 -4 832 3 c 128,-1,35
 824 10 824 10 824 41 c 128,-1,36
 824 72 824 72 864 108 c 1,37,38
 898 144 898 144 902 194 c 1,39,-1
 912 764 l 1,40,-1
 820 764 l 2,41,42
 744 764 744 764 685 748 c 128,-1,43
 626 732 626 732 521 687 c 128,-1,44
 416 642 416 642 374 628 c 128,-1,45
 332 614 332 614 324 582 c 1,46,-1
 286 154 l 1,47,-1
 368 76 l 2,48,49
 372 72 372 72 372 66 c 0,50,51
 372 58 372 58 364 50 c 1,52,53
 342 6 342 6 198 6 c 2,54,-1
 182 6 l 2,55,56
 60 6 60 6 58 76 c 0,57,58
 58 78 58 78 58 80 c 0,59,60
 58 132 58 132 124 140 c 1,61,62
 152 148 152 148 162 172 c 128,-1,63
 172 196 172 196 184 300 c 128,-1,64
 196 404 196 404 204 484 c 0,65,66
 208 524 208 524 208 635 c 128,-1,67
 208 746 208 746 204 928 c 2,68,-1
 198 1298 l 1,69,-1
 228 1318 l 1,70,71
 272 1344 272 1344 304 1346 c 1,72,-1
 306 1342 l 1,73,74
 338 1342 338 1342 370 1342 c 128,-1,75
 402 1342 402 1342 420 1328 c 0,76,77
 432 1320 432 1320 432 1302 c 0,78,79
 432 1300 432 1300 432 1298 c 0,80,81
 430 1290 430 1290 430 1284 c 0,82,83
 426 1254 426 1254 400 1225 c 128,-1,84
 374 1196 374 1196 366 1168 c 1,85,-1
 340 772 l 1,86,-1
 464 794 l 2,87,88
 526 804 526 804 557 822 c 128,-1,89
 588 840 588 840 678 858 c 128,-1,90
 768 876 768 876 836 876 c 2,91,-1
 932 876 l 1,92,-1
 928 1058 l 1,93,94
 922 1238 922 1238 904 1262 c 256,0,1
EndSplineSet
Validated: 1
EndChar

StartChar: I
Encoding: 73 73 40
Width: 524
VWidth: 1894
Flags: W
HStem: -6 130<74.375 178.877> 1320 20G<340 362>
VStem: 185 133<148.061 870.033> 218 100<548.271 1148.4>
LayerCount: 2
Fore
SplineSet
432 24 m 0,0,1
 396 -6 396 -6 230 -6 c 128,-1,2
 64 -6 64 -6 64 48 c 2,3,-1
 64 50 l 2,4,5
 64 84 64 84 108 104 c 0,6,7
 154 124 154 124 169 124 c 128,-1,8
 184 124 184 124 185 397 c 128,-1,9
 186 670 186 670 194 684 c 0,10,11
 202 700 202 700 210 824 c 0,12,13
 218 936 218 936 218 986 c 1,14,15
 216 992 216 992 216 998 c 0,16,17
 216 1048 216 1048 214 1089 c 128,-1,18
 212 1130 212 1130 202 1149 c 128,-1,19
 192 1168 192 1168 132 1179 c 128,-1,20
 72 1190 72 1190 70 1234 c 1,21,22
 70 1234 70 1234 70 1240 c 1,23,24
 72 1280 72 1280 100 1290 c 0,25,26
 132 1302 132 1302 230 1321 c 128,-1,27
 328 1340 328 1340 352 1340 c 0,28,29
 372 1340 372 1340 396 1320 c 2,30,-1
 428 1292 l 1,31,-1
 370 1196 l 2,32,33
 342 1152 342 1152 336 1094 c 1,34,35
 324 1008 324 1008 320 940 c 0,36,37
 318 908 318 908 318 818 c 2,38,39
 318 818 318 818 318 712 c 1,40,41
 318 712 318 712 318 546 c 1,42,-1
 318 384 l 1,43,44
 318 384 318 384 318 288 c 2,45,46
 318 210 318 210 316 200 c 0,47,48
 314 196 314 196 314 190 c 0,49,50
 314 188 314 188 314 186 c 0,51,52
 314 174 314 174 324 168 c 0,53,54
 340 156 340 156 396 133 c 128,-1,55
 452 110 452 110 460 82 c 0,56,57
 462 78 462 78 462 72 c 0,58,59
 462 48 462 48 432 24 c 0,0,1
EndSplineSet
Validated: 1
EndChar

StartChar: J
Encoding: 74 74 41
Width: 984
VWidth: 1894
Flags: W
HStem: -40 102<282.037 528.461> 556 129<566.305 724.713> 592 144<708.944 759.997> 1236 120<335.815 785.51>
VStem: 62 146<126.448 275.366> 786 130<736 1233.22>
LayerCount: 2
Fore
SplineSet
204 1050 m 0,0,1
 138 1050 138 1050 138 1164 c 0,2,3
 138 1192 138 1192 149 1221 c 128,-1,4
 160 1250 160 1250 231 1282 c 128,-1,5
 302 1314 302 1314 400 1325 c 128,-1,6
 498 1336 498 1336 573 1346 c 128,-1,7
 648 1356 648 1356 685 1356 c 128,-1,8
 722 1356 722 1356 792 1343 c 128,-1,9
 862 1330 862 1330 891 1301 c 128,-1,10
 920 1272 920 1272 920 1112 c 1,11,-1
 910 890 l 1,12,-1
 916 744 l 1,13,14
 916 682 916 682 885 525 c 128,-1,15
 854 368 854 368 826 289 c 128,-1,16
 798 210 798 210 741 125 c 128,-1,17
 684 40 684 40 645 0 c 128,-1,18
 606 -40 606 -40 480 -40 c 2,19,20
 480 -40 480 -40 470 -40 c 2,21,22
 266 -40 266 -40 164 36 c 128,-1,23
 62 112 62 112 62 193 c 128,-1,24
 62 274 62 274 73 285 c 128,-1,25
 84 296 84 296 118 296 c 128,-1,26
 152 296 152 296 170 276 c 128,-1,27
 188 256 188 256 208 198 c 128,-1,28
 228 140 228 140 242 126 c 128,-1,29
 256 112 256 112 335 87 c 128,-1,30
 414 62 414 62 463 62 c 128,-1,31
 512 62 512 62 529 70 c 128,-1,32
 546 78 546 78 591 123 c 128,-1,33
 636 168 636 168 681 263 c 128,-1,34
 726 358 726 358 743 443 c 128,-1,35
 760 528 760 528 760 547 c 128,-1,36
 760 566 760 566 747 579 c 128,-1,37
 734 592 734 592 725 592 c 128,-1,38
 716 592 716 592 685 574 c 128,-1,39
 654 556 654 556 626 556 c 0,40,41
 574 556 574 556 556 632 c 0,42,43
 548 666 548 666 582 685 c 128,-1,44
 616 704 616 704 700 720 c 2,45,-1
 786 736 l 1,46,-1
 786 1236 l 1,47,-1
 672 1236 l 2,48,49
 580 1236 580 1236 467 1218 c 128,-1,50
 354 1200 354 1200 317 1185 c 128,-1,51
 280 1170 280 1170 268 1124 c 256,52,53
 256 1078 256 1078 245 1064 c 128,-1,54
 234 1050 234 1050 204 1050 c 0,0,1
EndSplineSet
Validated: 1
EndChar

StartChar: K
Encoding: 75 75 42
Width: 1200
VWidth: 1894
Flags: W
HStem: -6 21G<169 199> 1173 173<95.0498 168.775>
VStem: 60 308<1184.3 1309.93> 194 114<145.62 431.844 574.085 1155.68> 892 248<12.543 133.601>
LayerCount: 2
Fore
SplineSet
832 1218 m 1,0,-1
 818 1296 l 1,1,2
 820 1360 820 1360 952 1360 c 0,3,4
 958 1360 958 1360 964 1360 c 0,5,6
 1086 1360 1086 1360 1105 1343 c 128,-1,7
 1124 1326 1124 1326 1124 1312 c 0,8,9
 1124 1258 1124 1258 1078 1240 c 1,10,11
 998 1204 998 1204 978 1176 c 0,12,13
 882 1044 882 1044 778 916 c 1,14,15
 628 694 628 694 610 680 c 1,16,17
 620 680 620 680 708 585 c 128,-1,18
 796 490 796 490 880 392 c 128,-1,19
 964 294 964 294 1006 237 c 128,-1,20
 1048 180 1048 180 1094 135 c 128,-1,21
 1140 90 1140 90 1140 76 c 0,22,23
 1140 0 1140 0 1034 0 c 128,-1,24
 928 0 928 0 910 31 c 128,-1,25
 892 62 892 62 892 86 c 1,26,-1
 902 194 l 1,27,-1
 594 556 l 2,28,29
 548 608 548 608 536 608 c 128,-1,30
 524 608 524 608 432 512 c 128,-1,31
 340 416 340 416 324 408 c 128,-1,32
 308 400 308 400 308 382 c 2,33,-1
 308 362 l 1,34,-1
 318 140 l 1,35,-1
 360 116 l 2,36,37
 398 94 398 94 402 78 c 1,38,-1
 402 68 l 2,39,40
 402 60 402 60 376 33 c 128,-1,41
 350 6 350 6 282 0 c 128,-1,42
 214 -6 214 -6 184 -6 c 128,-1,43
 154 -6 154 -6 128 -1 c 128,-1,44
 102 4 102 4 90 22 c 128,-1,45
 78 40 78 40 78 54 c 128,-1,46
 78 68 78 68 93 84 c 128,-1,47
 108 100 108 100 138 113 c 128,-1,48
 168 126 168 126 172 145 c 128,-1,49
 176 164 176 164 185 292 c 128,-1,50
 194 420 194 420 194 728 c 128,-1,51
 194 1036 194 1036 185 1091 c 128,-1,52
 176 1146 176 1146 169 1156 c 128,-1,53
 162 1166 162 1166 131 1173 c 128,-1,54
 100 1180 100 1180 80 1201 c 128,-1,55
 60 1222 60 1222 60 1232 c 1,56,57
 88 1346 88 1346 215 1346 c 128,-1,58
 342 1346 342 1346 360 1324 c 0,59,60
 368 1314 368 1314 368 1301 c 128,-1,61
 368 1288 368 1288 350 1264 c 0,62,63
 322 1224 322 1224 312 898 c 0,64,65
 308 764 308 764 308 670 c 128,-1,66
 308 576 308 576 336 574 c 1,67,68
 338 576 338 576 344 578 c 128,-1,69
 350 580 350 580 406 635 c 128,-1,70
 462 690 462 690 604 854 c 0,71,72
 748 1018 748 1018 790 1106 c 128,-1,73
 832 1194 832 1194 832 1218 c 1,0,-1
EndSplineSet
Validated: 1
EndChar

StartChar: L
Encoding: 76 76 43
Width: 1098
VWidth: 1894
Flags: W
HStem: -30 122<66.2461 232> 36 126<587.362 856.31> 1216 133<96.7681 208>
VStem: 212 122<478.56 1202> 232 112<114.826 296 376 665.44>
LayerCount: 2
Fore
SplineSet
538 114 m 2,0,1
 598 114 598 114 695 138 c 128,-1,2
 792 162 792 162 832 162 c 128,-1,3
 872 162 872 162 885 166 c 128,-1,4
 898 170 898 170 904 189 c 128,-1,5
 910 208 910 208 934 237 c 128,-1,6
 958 266 958 266 976 266 c 128,-1,7
 994 266 994 266 1014 236 c 128,-1,8
 1034 206 1034 206 1034 162 c 128,-1,9
 1034 118 1034 118 984 56 c 0,10,11
 932 -6 932 -6 920 -16 c 1,12,13
 912 -20 912 -20 900 -20 c 2,14,15
 900 -20 900 -20 882 -20 c 1,16,17
 858 -16 858 -16 838 10 c 128,-1,18
 818 36 818 36 766 36 c 128,-1,19
 714 36 714 36 662 17 c 128,-1,20
 610 -2 610 -2 424 -12 c 128,-1,21
 238 -22 238 -22 205 -26 c 128,-1,22
 172 -30 172 -30 156 -30 c 0,23,24
 64 -30 64 -30 64 30 c 2,25,26
 64 30 64 30 64 32 c 2,27,28
 64 92 64 92 168 92 c 2,29,30
 168 92 168 92 174 92 c 1,31,-1
 232 92 l 1,32,-1
 212 892 l 1,33,-1
 208 1202 l 1,34,-1
 156 1216 l 2,35,36
 116 1228 116 1228 94 1254 c 1,37,38
 86 1268 86 1268 84 1278 c 1,39,40
 84 1294 84 1294 96 1310 c 0,41,42
 120 1338 120 1338 218 1349 c 128,-1,43
 316 1360 316 1360 326 1362 c 0,44,45
 328 1362 328 1362 330 1362 c 0,46,47
 344 1360 344 1360 366 1352 c 1,48,49
 392 1338 392 1338 392 1305 c 128,-1,50
 392 1272 392 1272 360 1250 c 1,51,-1
 334 1230 l 1,52,-1
 334 898 l 2,53,54
 334 574 334 574 342 541 c 128,-1,55
 350 508 350 508 350 486 c 2,56,-1
 344 376 l 1,57,-1
 350 296 l 1,58,-1
 344 222 l 1,59,60
 344 140 344 140 366 114 c 0,61,62
 380 100 380 100 400 100 c 2,63,64
 400 100 400 100 406 100 c 2,65,66
 420 100 420 100 432 104 c 0,67,68
 464 114 464 114 506 114 c 2,69,70
 506 114 506 114 520 114 c 1,71,72
 520 114 520 114 538 114 c 2,0,1
EndSplineSet
Validated: 1
EndChar

StartChar: M
Encoding: 77 77 44
Width: 1554
VWidth: 1894
Flags: W
HStem: -32 114<95.5718 212.567> 610 122<836.241 884> 1320 20G<35.0476 80 1423 1461>
VStem: 204 112<79.374 1041.42> 1230 124<392 982> 1252 108<141.406 578.416>
LayerCount: 2
Fore
SplineSet
1494 68 m 128,-1,1
 1494 56 1494 56 1486 26 c 128,-1,2
 1478 -4 1478 -4 1446 -18 c 0,3,4
 1432 -24 1432 -24 1418 -24 c 0,5,6
 1400 -24 1400 -24 1386 -14 c 0,7,8
 1358 4 1358 4 1327 4 c 128,-1,9
 1296 4 1296 4 1257 -11 c 128,-1,10
 1218 -26 1218 -26 1208 -26 c 128,-1,11
 1198 -26 1198 -26 1173 -3 c 128,-1,12
 1148 20 1148 20 1148 36 c 128,-1,13
 1148 52 1148 52 1202 94 c 2,14,-1
 1252 134 l 1,15,-1
 1230 816 l 2,16,17
 1224 980 1224 980 1216 982 c 0,18,19
 1210 982 1210 982 1193 958 c 128,-1,20
 1176 934 1176 934 1094 821 c 128,-1,21
 1012 708 1012 708 993 674 c 128,-1,22
 974 640 974 640 953 625 c 128,-1,23
 932 610 932 610 887 610 c 128,-1,24
 842 610 842 610 808 632 c 128,-1,25
 774 654 774 654 733 720 c 128,-1,26
 692 786 692 786 605 861 c 128,-1,27
 518 936 518 936 441 976 c 128,-1,28
 364 1016 364 1016 352 1036 c 0,29,30
 348 1042 348 1042 346 1042 c 0,31,32
 340 1042 340 1042 336 1016 c 0,33,34
 328 976 328 976 324 920 c 128,-1,35
 320 864 320 864 316 804 c 1,36,37
 316 804 316 804 316 706 c 1,38,39
 316 706 316 706 316 528 c 1,40,41
 318 400 318 400 318 320 c 2,42,43
 318 320 318 320 318 236 c 1,44,45
 318 236 318 236 318 200 c 2,46,47
 318 152 318 152 322 132 c 0,48,49
 328 104 328 104 344 80 c 1,50,51
 360 60 360 60 360 36 c 2,52,53
 360 36 360 36 360 32 c 1,54,55
 358 4 358 4 322 -16 c 0,56,57
 288 -34 288 -34 268 -34 c 1,58,-1
 266 -32 l 1,59,60
 246 -32 246 -32 226 -32 c 2,61,-1
 158 -32 l 2,62,63
 114 -32 114 -32 92 -10 c 0,64,65
 82 0 82 0 82 12 c 0,66,67
 84 24 84 24 96 38 c 0,68,69
 120 64 120 64 166 82 c 128,-1,70
 212 100 212 100 214 136 c 0,71,72
 214 144 214 144 214 152 c 0,73,74
 212 184 212 184 208 232 c 0,75,76
 204 276 204 276 204 444 c 2,77,78
 204 444 204 444 204 608 c 2,79,80
 204 652 204 652 206 694 c 1,81,82
 206 936 206 936 190 1000 c 0,83,84
 174 1070 174 1070 174 1098 c 2,85,86
 174 1098 174 1098 174 1104 c 1,87,88
 174 1104 174 1104 174 1106 c 2,89,90
 174 1132 174 1132 124 1172 c 0,91,92
 72 1212 72 1212 52 1238 c 0,93,94
 34 1262 34 1262 34 1292 c 2,95,96
 34 1292 34 1292 34 1298 c 1,97,-1
 36 1340 l 1,98,-1
 80 1334 l 1,99,100
 122 1326 122 1326 164 1291 c 128,-1,101
 206 1256 206 1256 216 1256 c 1,102,-1
 558 1036 l 2,103,104
 728 928 728 928 828 788 c 1,105,106
 862 736 862 736 878 732 c 1,107,108
 878 732 878 732 884 732 c 1,109,-1
 910 744 l 1,110,111
 926 760 926 760 1007 885 c 128,-1,112
 1088 1010 1088 1010 1112 1046 c 128,-1,113
 1136 1082 1136 1082 1164 1156 c 0,114,115
 1208 1276 1208 1276 1268 1334 c 0,116,117
 1270 1336 1270 1336 1337 1348 c 128,-1,118
 1404 1360 1404 1360 1442 1360 c 128,-1,119
 1480 1360 1480 1360 1480 1345 c 128,-1,120
 1480 1330 1480 1330 1446 1289 c 128,-1,121
 1412 1248 1412 1248 1399 1207 c 128,-1,122
 1386 1166 1386 1166 1370 1077 c 128,-1,123
 1354 988 1354 988 1354 707 c 128,-1,124
 1354 426 1354 426 1362 392 c 0,125,126
 1370 356 1370 356 1370 332 c 1,127,-1
 1360 244 l 1,128,129
 1360 160 1360 160 1418 134 c 256,130,131
 1452 118 1452 118 1473 99 c 128,-1,0
 1494 80 1494 80 1494 68 c 128,-1,1
EndSplineSet
Validated: 1
EndChar

StartChar: N
Encoding: 78 78 45
Width: 1232
VWidth: 1894
Flags: W
HStem: -32 128<73.541 171.649> 1338 20G<1106 1142>
VStem: 196 90<103.18 711.539> 912 146<8 129.191> 920 296<1191.88 1324.7> 976 92<557.442 828.253>
LayerCount: 2
Fore
SplineSet
1124 1358 m 128,-1,1
 1160 1358 1160 1358 1188 1333 c 128,-1,2
 1216 1308 1216 1308 1216 1290 c 2,3,4
 1216 1290 1216 1290 1216 1240 c 2,5,6
 1216 1212 1216 1212 1184 1198 c 128,-1,7
 1152 1184 1152 1184 1140 1164 c 0,8,9
 1076 1050 1076 1050 1068 406 c 1,10,-1
 1058 8 l 1,11,-1
 1024 -24 l 2,12,13
 992 -56 992 -56 960 -56 c 2,14,-1
 958 -56 l 2,15,16
 926 -56 926 -56 912 -37 c 128,-1,17
 898 -18 898 -18 880 80 c 128,-1,18
 862 178 862 178 748 408 c 128,-1,19
 634 638 634 638 561 720 c 128,-1,20
 488 802 488 802 441 870 c 128,-1,21
 394 938 394 938 377 955 c 128,-1,22
 360 972 360 972 346 972 c 256,23,24
 332 972 332 972 323 867 c 128,-1,25
 314 762 314 762 300 539 c 128,-1,26
 286 316 286 316 286 284 c 0,27,28
 286 136 286 136 336 98 c 0,29,30
 360 78 360 78 364 52 c 0,31,32
 366 46 366 46 364 40 c 1,33,34
 364 20 364 20 352 12 c 0,35,36
 336 0 336 0 264 -16 c 128,-1,37
 192 -32 192 -32 138 -32 c 128,-1,38
 84 -32 84 -32 70 10 c 1,39,40
 66 14 66 14 66 34 c 128,-1,41
 66 54 66 54 107 75 c 128,-1,42
 148 96 148 96 163 96 c 128,-1,43
 178 96 178 96 187 451 c 128,-1,44
 196 806 196 806 196 952 c 1,45,46
 194 1096 194 1096 185 1125 c 128,-1,47
 176 1154 176 1154 123 1180 c 128,-1,48
 70 1206 70 1206 60 1218 c 128,-1,49
 50 1230 50 1230 48 1262 c 1,50,-1
 42 1308 l 1,51,-1
 292 1304 l 1,52,-1
 302 1250 l 2,53,54
 314 1192 314 1192 349 1163 c 128,-1,55
 384 1134 384 1134 410 1110 c 1,56,57
 432 1084 432 1084 542 938 c 128,-1,58
 652 792 652 792 763 628 c 128,-1,59
 874 464 874 464 874 446 c 128,-1,60
 874 428 874 428 900 384 c 2,61,-1
 926 340 l 1,62,-1
 934 404 l 1,63,64
 962 574 962 574 976 986 c 2,65,-1
 982 1172 l 1,66,-1
 952 1196 l 2,67,68
 922 1222 922 1222 920 1244 c 1,69,70
 920 1324 920 1324 1012 1342 c 0,71,72
 1018 1342 1018 1342 1053 1350 c 128,-1,0
 1088 1358 1088 1358 1124 1358 c 128,-1,1
EndSplineSet
Validated: 1
EndChar

StartChar: O
Encoding: 79 79 46
Width: 1178
VWidth: 1894
Flags: W
HStem: -42 120<558.164 758.278> 1300 100<418.119 776.5>
VStem: 56 116<330.484 960.444> 990 124<412.912 1025.55>
LayerCount: 2
Fore
SplineSet
546 1400 m 0,0,1
 558 1400 558 1400 570 1400 c 0,2,3
 608 1400 608 1400 656 1392 c 0,4,5
 798 1366 798 1366 854 1324 c 0,6,7
 946 1254 946 1254 991 1195 c 128,-1,8
 1036 1136 1036 1136 1071 1022 c 128,-1,9
 1106 908 1106 908 1112 862 c 0,10,11
 1114 844 1114 844 1114 808 c 0,12,13
 1114 748 1114 748 1108 636 c 0,14,15
 1098 456 1098 456 1019 266 c 128,-1,16
 940 76 940 76 810 14 c 1,17,18
 706 -42 706 -42 652 -42 c 1,19,-1
 508 -20 l 1,20,21
 420 2 420 2 377 19 c 128,-1,22
 334 36 334 36 269 75 c 128,-1,23
 204 114 204 114 166 167 c 128,-1,24
 128 220 128 220 100 301 c 128,-1,25
 72 382 72 382 66 430 c 0,26,27
 60 476 60 476 56 536 c 1,28,29
 56 536 56 536 56 568 c 2,30,31
 56 630 56 630 66 750 c 0,32,33
 80 904 80 904 95 961 c 128,-1,34
 110 1018 110 1018 148 1120 c 128,-1,35
 186 1222 186 1222 202 1249 c 128,-1,36
 218 1276 218 1276 275 1317 c 128,-1,37
 332 1358 332 1358 388 1374 c 1,38,39
 454 1396 454 1396 546 1400 c 0,0,1
598 1300 m 128,-1,41
 524 1300 524 1300 448 1269 c 128,-1,42
 372 1238 372 1238 319 1180 c 128,-1,43
 266 1122 266 1122 227 996 c 128,-1,44
 188 870 188 870 176 738 c 0,45,46
 172 688 172 688 172 638 c 0,47,48
 172 556 172 556 184 474 c 0,49,50
 202 342 202 342 246 265 c 128,-1,51
 290 188 290 188 356 151 c 128,-1,52
 422 114 422 114 511 96 c 128,-1,53
 600 78 600 78 631 78 c 128,-1,54
 662 78 662 78 678 86 c 1,55,56
 834 140 834 140 906 272 c 0,57,58
 920 300 920 300 946 396 c 128,-1,59
 972 492 972 492 972 512 c 128,-1,60
 972 532 972 532 981 575 c 128,-1,61
 990 618 990 618 990 737 c 128,-1,62
 990 856 990 856 984 901 c 128,-1,63
 978 946 978 946 942 1035 c 128,-1,64
 906 1124 906 1124 870 1173 c 128,-1,65
 834 1222 834 1222 777 1255 c 128,-1,66
 720 1288 720 1288 696 1294 c 128,-1,40
 672 1300 672 1300 598 1300 c 128,-1,41
EndSplineSet
Validated: 1
EndChar

StartChar: P
Encoding: 80 80 47
Width: 1024
VWidth: 1894
Flags: W
HStem: -12 142<255.831 353.599> 342 88<349.252 669.211> 1224 122<300 691.871> 1226 102<300 395.349>
VStem: 164 112<480 925.611> 840 132<677.119 1108>
LayerCount: 2
Fore
SplineSet
22 1218 m 0,0,1
 22 1274 22 1274 126 1308 c 0,2,3
 186 1328 186 1328 235 1328 c 128,-1,4
 284 1328 284 1328 314 1337 c 128,-1,5
 344 1346 344 1346 397 1346 c 128,-1,6
 450 1346 450 1346 584 1325 c 128,-1,7
 718 1304 718 1304 803 1258 c 128,-1,8
 888 1212 888 1212 927 1133 c 128,-1,9
 966 1054 966 1054 969 1018 c 128,-1,10
 972 982 972 982 972 947 c 128,-1,11
 972 912 972 912 948 767 c 128,-1,12
 924 622 924 622 859 526 c 128,-1,13
 794 430 794 430 776 413 c 128,-1,14
 758 396 758 396 679 369 c 128,-1,15
 600 342 600 342 543 342 c 128,-1,16
 486 342 486 342 437 356 c 128,-1,17
 388 370 388 370 348 370 c 128,-1,18
 308 370 308 370 286 362 c 2,19,-1
 254 348 l 1,20,-1
 254 242 l 2,21,22
 254 134 254 134 266 130 c 1,23,24
 286 130 286 130 322 109 c 128,-1,25
 358 88 358 88 368 64 c 0,26,27
 372 56 372 56 372 50 c 0,28,29
 372 36 372 36 358 28 c 0,30,31
 338 16 338 16 256 2 c 128,-1,32
 174 -12 174 -12 123 -12 c 128,-1,33
 72 -12 72 -12 56 16 c 0,34,35
 52 24 52 24 52 30 c 0,36,37
 52 52 52 52 82 80 c 2,38,-1
 124 116 l 1,39,-1
 148 518 l 1,40,41
 164 726 164 726 164 888 c 128,-1,42
 164 1050 164 1050 156 1104 c 0,43,44
 148 1160 148 1160 144 1168 c 0,45,46
 140 1174 140 1174 130 1172 c 0,47,48
 122 1172 122 1172 112 1170 c 0,49,50
 104 1168 104 1168 96 1168 c 0,51,52
 76 1168 76 1168 54 1178 c 0,53,54
 22 1192 22 1192 22 1218 c 0,0,1
364 456 m 2,55,56
 452 434 452 434 491 432 c 128,-1,57
 530 430 530 430 566 430 c 128,-1,58
 602 430 602 430 630 448 c 1,59,60
 688 476 688 476 742 560 c 128,-1,61
 796 644 796 644 818 719 c 128,-1,62
 840 794 840 794 840 950 c 2,63,-1
 840 1108 l 1,64,-1
 790 1142 l 1,65,66
 736 1176 736 1176 664 1198 c 128,-1,67
 592 1220 592 1220 446 1224 c 2,68,-1
 300 1226 l 1,69,-1
 276 480 l 1,70,-1
 364 456 l 2,55,56
EndSplineSet
Validated: 1
EndChar

StartChar: Q
Encoding: 81 81 48
Width: 1132
VWidth: 1894
Flags: W
HStem: -288 194<894 982.531> -22 114<340.422 529.891> -18 240<537.108 747.679> 1284 100<380.428 646.67>
VStem: 52 120<264.582 823.561> 956 120<389.82 930.73>
LayerCount: 2
Fore
SplineSet
54 460 m 0,0,1
 52 492 52 492 52 522 c 0,2,3
 52 620 52 620 72 712 c 0,4,5
 98 832 98 832 125 950 c 128,-1,6
 152 1068 152 1068 204 1202 c 1,7,8
 260 1334 260 1334 299 1359 c 128,-1,9
 338 1384 338 1384 431 1384 c 128,-1,10
 524 1384 524 1384 562 1366 c 128,-1,11
 600 1348 600 1348 651 1340 c 128,-1,12
 702 1332 702 1332 766 1280 c 128,-1,13
 830 1228 830 1228 838 1228 c 128,-1,14
 846 1228 846 1228 918 1142 c 1,15,16
 1062 962 1062 962 1076 774 c 1,17,18
 1076 774 1076 774 1076 746 c 2,19,20
 1076 692 1076 692 1068 568 c 0,21,22
 1056 408 1056 408 1032 346 c 128,-1,23
 1008 284 1008 284 956 190 c 128,-1,24
 904 96 904 96 892 88 c 0,25,26
 884 82 884 82 884 40 c 0,27,28
 884 20 884 20 886 -6 c 2,29,-1
 894 -94 l 1,30,-1
 994 -94 l 2,31,32
 1042 -94 1042 -94 1042 -126 c 0,33,34
 1042 -128 1042 -128 1042 -130 c 0,35,36
 1042 -148 1042 -148 1030 -180 c 0,37,38
 1016 -216 1016 -216 972 -252 c 128,-1,39
 928 -288 928 -288 887 -288 c 128,-1,40
 846 -288 846 -288 830 -263 c 128,-1,41
 814 -238 814 -238 786 -139 c 128,-1,42
 758 -40 758 -40 748 -29 c 128,-1,43
 738 -18 738 -18 692 -18 c 2,44,-1
 584 -22 l 1,45,46
 412 -22 412 -22 315 28 c 128,-1,47
 218 78 218 78 183 116 c 128,-1,48
 148 154 148 154 106 241 c 128,-1,49
 64 328 64 328 54 460 c 0,0,1
530 152 m 1,50,51
 530 152 530 152 530 158 c 2,52,53
 530 222 530 222 642 222 c 0,54,55
 676 222 676 222 720 194 c 128,-1,56
 764 166 764 166 784 166 c 0,57,58
 786 166 786 166 788 166 c 0,59,60
 804 164 804 164 824 176 c 128,-1,61
 844 188 844 188 880 276 c 1,62,63
 912 364 912 364 936 524 c 0,64,65
 956 660 956 660 956 710 c 2,66,67
 956 710 956 710 956 724 c 1,68,69
 940 918 940 918 858 1032 c 0,70,71
 828 1074 828 1074 721 1179 c 128,-1,72
 614 1284 614 1284 518 1284 c 128,-1,73
 422 1284 422 1284 368 1229 c 128,-1,74
 314 1174 314 1174 290 1109 c 128,-1,75
 266 1044 266 1044 224 874 c 0,76,77
 184 704 184 704 176 644 c 0,78,79
 172 618 172 618 172 582 c 0,80,81
 172 536 172 536 176 472 c 0,82,83
 184 360 184 360 190 332 c 128,-1,84
 196 304 196 304 214 268 c 1,85,86
 278 158 278 158 364 126 c 1,87,88
 448 92 448 92 472 92 c 2,89,90
 472 92 472 92 486 92 c 2,91,92
 498 92 498 92 502 94 c 0,93,94
 530 100 530 100 530 142 c 2,95,96
 530 142 530 142 530 152 c 1,50,51
EndSplineSet
Validated: 1
EndChar

StartChar: R
Encoding: 82 82 49
Width: 1048
VWidth: 1894
Flags: W
HStem: -58 122<869.375 975.805> -6 21G<353 366> 298 88<337.413 515.423> 1224 116<354.285 769.269>
VStem: 181 117<150.19 249.125> 190 134<400.516 1076.01> 864 124<741.7 1140.27>
LayerCount: 2
Fore
SplineSet
508 1224 m 128,-1,1
 436 1224 436 1224 412 1212 c 1,2,3
 346 1196 346 1196 335 1139 c 128,-1,4
 324 1082 324 1082 324 748 c 128,-1,5
 324 414 324 414 337 400 c 128,-1,6
 350 386 350 386 392 386 c 128,-1,7
 434 386 434 386 566 455 c 128,-1,8
 698 524 698 524 762 624 c 0,9,10
 864 784 864 784 864 1014 c 1,11,12
 862 1094 862 1094 820 1141 c 128,-1,13
 778 1188 778 1188 757 1198 c 128,-1,14
 736 1208 736 1208 658 1216 c 128,-1,0
 580 1224 580 1224 508 1224 c 128,-1,1
660 20 m 2,15,-1
 680 104 l 1,16,-1
 680 110 l 2,17,18
 680 148 680 148 593 218 c 128,-1,19
 506 288 506 288 492 292 c 0,20,21
 474 298 474 298 450 298 c 0,22,23
 436 298 436 298 422 296 c 0,24,25
 374 292 374 292 346 278 c 0,26,27
 320 264 320 264 312 250 c 0,28,29
 298 222 298 222 298 194 c 0,30,31
 298 184 298 184 300 174 c 1,32,33
 300 156 300 156 304 150 c 0,34,35
 308 138 308 138 338 125 c 128,-1,36
 368 112 368 112 390 92 c 1,37,38
 404 76 404 76 404 66 c 2,39,-1
 404 64 l 2,40,41
 404 52 404 52 392 26 c 128,-1,42
 380 0 380 0 372 -4 c 0,43,44
 368 -6 368 -6 364 -6 c 2,45,46
 364 -6 364 -6 358 -6 c 1,47,48
 348 -4 348 -4 332 -2 c 0,49,50
 320 0 320 0 308 0 c 0,51,52
 274 0 274 0 252 -14 c 0,53,54
 224 -32 224 -32 200 -32 c 2,55,-1
 174 -32 l 2,56,57
 110 -32 110 -32 106 20 c 1,58,59
 108 24 108 24 110 41 c 128,-1,60
 112 58 112 58 142 82 c 128,-1,61
 172 106 172 106 181 185 c 128,-1,62
 190 264 190 264 190 656 c 0,63,64
 188 1048 188 1048 172 1077 c 128,-1,65
 156 1106 156 1106 142 1108 c 0,66,67
 132 1108 132 1108 114 1094 c 128,-1,68
 96 1080 96 1080 87 1080 c 128,-1,69
 78 1080 78 1080 56 1101 c 128,-1,70
 34 1122 34 1122 34 1149 c 128,-1,71
 34 1176 34 1176 53 1204 c 128,-1,72
 72 1232 72 1232 111 1251 c 128,-1,73
 150 1270 150 1270 254 1300 c 2,74,-1
 388 1336 l 2,75,76
 404 1340 404 1340 499 1340 c 128,-1,77
 594 1340 594 1340 706 1321 c 128,-1,78
 818 1302 818 1302 856 1278 c 128,-1,79
 894 1254 894 1254 941 1171 c 128,-1,80
 988 1088 988 1088 988 996 c 128,-1,81
 988 904 988 904 956 759 c 128,-1,82
 924 614 924 614 868 534 c 1,83,84
 836 494 836 494 747 434 c 128,-1,85
 658 374 658 374 658 359 c 128,-1,86
 658 344 658 344 700 290 c 128,-1,87
 742 236 742 236 770 218 c 128,-1,88
 798 200 798 200 846 136 c 128,-1,89
 894 72 894 72 932 64 c 128,-1,90
 970 56 970 56 976 46 c 128,-1,91
 982 36 982 36 982 -3 c 128,-1,92
 982 -42 982 -42 977 -50 c 128,-1,93
 972 -58 972 -58 938 -58 c 128,-1,94
 904 -58 904 -58 864 -44 c 128,-1,95
 824 -30 824 -30 760 -30 c 0,96,97
 658 -30 658 -30 658 10 c 1,98,99
 660 16 660 16 660 20 c 2,15,-1
EndSplineSet
Validated: 1
EndChar

StartChar: S
Encoding: 83 83 50
Width: 1070
VWidth: 1894
Flags: W
HStem: -20 116<380.456 761.578> 1254 140<390.332 738.637> 1338 20G<820 944>
VStem: 94 128<827.989 1118.94> 880 126<219.838 495.66>
LayerCount: 2
Fore
SplineSet
978 1315 m 128,-1,1
 978 1272 978 1272 904 1153 c 128,-1,2
 830 1034 830 1034 782 1034 c 0,3,4
 746 1034 746 1034 746 1072 c 128,-1,5
 746 1110 746 1110 750 1146 c 0,6,7
 752 1164 752 1164 752 1176 c 128,-1,8
 752 1188 752 1188 750 1192 c 0,9,10
 746 1208 746 1208 710 1231 c 128,-1,11
 674 1254 674 1254 568 1254 c 128,-1,12
 462 1254 462 1254 436 1248 c 128,-1,13
 410 1242 410 1242 355 1205 c 128,-1,14
 300 1168 300 1168 268 1121 c 128,-1,15
 236 1074 236 1074 229 1050 c 128,-1,16
 222 1026 222 1026 222 943 c 128,-1,17
 222 860 222 860 277 819 c 128,-1,18
 332 778 332 778 517 763 c 128,-1,19
 702 748 702 748 754 726 c 1,20,21
 878 680 878 680 958 518 c 0,22,23
 998 434 998 434 1002 396 c 128,-1,24
 1006 358 1006 358 1006 323 c 128,-1,25
 1006 288 1006 288 981 218 c 128,-1,26
 956 148 956 148 895 77 c 128,-1,27
 834 6 834 6 798 -7 c 128,-1,28
 762 -20 762 -20 644 -20 c 128,-1,29
 526 -20 526 -20 403 18 c 128,-1,30
 280 56 280 56 216 56 c 1,31,-1
 102 46 l 1,32,33
 48 46 48 46 48 100 c 0,34,35
 48 102 48 102 48 104 c 0,36,37
 48 140 48 140 76 196 c 1,38,39
 110 250 110 250 128 260 c 0,40,41
 130 260 130 260 134 262 c 1,42,43
 158 262 158 262 216 216 c 0,44,45
 284 162 284 162 427 129 c 128,-1,46
 570 96 570 96 614 96 c 128,-1,47
 658 96 658 96 699 104 c 128,-1,48
 740 112 740 112 810 189 c 128,-1,49
 880 266 880 266 880 324 c 128,-1,50
 880 382 880 382 852 455 c 128,-1,51
 824 528 824 528 804 554 c 128,-1,52
 784 580 784 580 739 603 c 128,-1,53
 694 626 694 626 652 633 c 128,-1,54
 610 640 610 640 481 642 c 128,-1,55
 352 644 352 644 318 652 c 0,56,57
 232 670 232 670 146 806 c 1,58,59
 110 872 110 872 102 898 c 128,-1,60
 94 924 94 924 94 1002 c 128,-1,61
 94 1080 94 1080 118 1134 c 0,62,63
 140 1188 140 1188 196 1244 c 1,64,65
 254 1306 254 1306 272 1316 c 0,66,67
 286 1324 286 1324 304 1324 c 1,68,69
 306 1322 306 1322 316 1322 c 2,70,71
 316 1322 316 1322 326 1322 c 2,72,73
 348 1322 348 1322 374 1340 c 0,74,75
 406 1360 406 1360 454 1377 c 128,-1,76
 502 1394 502 1394 561 1394 c 128,-1,77
 620 1394 620 1394 696 1372 c 128,-1,78
 772 1350 772 1350 820 1350 c 1,79,-1
 910 1358 l 1,80,0
 978 1358 978 1358 978 1315 c 128,-1,1
EndSplineSet
Validated: 1
EndChar

StartChar: T
Encoding: 84 84 51
Width: 1236
VWidth: 1894
Flags: W
HStem: -6 21G<501 523> 1196 112<270.24 548> 1218 130<683.645 1023> 1236 112<710.827 1024 1028 1063.81>
VStem: 524 132<142.381 1034.7> 1068 138<1074.88 1237.99>
LayerCount: 2
Fore
SplineSet
32 1140 m 128,-1,1
 32 1252 32 1252 44 1278 c 1,2,-1
 62 1308 l 1,3,-1
 284 1308 l 2,4,5
 438 1308 438 1308 596 1319 c 128,-1,6
 754 1330 754 1330 763 1340 c 128,-1,7
 772 1350 772 1350 844 1350 c 1,8,9
 856 1348 856 1348 866 1348 c 2,10,11
 866 1348 866 1348 1068 1348 c 2,12,13
 1180 1348 1180 1348 1193 1336 c 128,-1,14
 1206 1324 1206 1324 1206 1292 c 0,15,16
 1206 1096 1206 1096 1136 1050 c 0,17,18
 1122 1040 1122 1040 1112 1040 c 0,19,20
 1098 1040 1098 1040 1086 1052 c 256,21,22
 1068 1070 1068 1070 1068 1104 c 2,23,-1
 1064 1208 l 1,24,25
 1058 1238 1058 1238 1028 1238 c 1,26,-1
 1024 1236 l 1,27,28
 992 1236 992 1236 950 1227 c 128,-1,29
 908 1218 908 1218 822 1218 c 128,-1,30
 736 1218 736 1218 710 1206 c 128,-1,31
 684 1194 684 1194 673 1152 c 128,-1,32
 662 1110 662 1110 656 564 c 2,33,-1
 650 136 l 1,34,-1
 682 116 l 1,35,36
 714 100 714 100 732 68 c 0,37,38
 742 52 742 52 742 40 c 0,39,40
 742 38 742 38 742 36 c 0,41,42
 742 26 742 26 736 20 c 0,43,44
 722 6 722 6 628 0 c 128,-1,45
 534 -6 534 -6 512 -6 c 128,-1,46
 490 -6 490 -6 476 -4 c 128,-1,47
 462 -2 462 -2 442 17 c 128,-1,48
 422 36 422 36 418 46 c 1,49,-1
 418 48 l 1,50,51
 420 58 420 58 430 80 c 1,52,53
 444 104 444 104 475 117 c 128,-1,54
 506 130 506 130 515 142 c 128,-1,55
 524 154 524 154 531 189 c 128,-1,56
 538 224 538 224 538 255 c 128,-1,57
 538 286 538 286 532 318 c 256,58,59
 524 354 524 354 524 450 c 2,60,-1
 524 492 l 1,61,-1
 532 1038 l 1,62,63
 530 1074 530 1074 530 1096 c 1,64,-1
 548 1196 l 1,65,-1
 238 1180 l 1,66,67
 194 1170 194 1170 179 1150 c 128,-1,68
 164 1130 164 1130 154 1065 c 128,-1,69
 144 1000 144 1000 132 982 c 1,70,71
 118 966 118 966 100 966 c 2,72,-1
 96 966 l 1,73,74
 74 968 74 968 53 998 c 128,-1,0
 32 1028 32 1028 32 1140 c 128,-1,1
EndSplineSet
Validated: 1
EndChar

StartChar: U
Encoding: 85 85 52
Width: 1186
VWidth: 1894
Flags: W
HStem: -24 118<417.227 709.442> 1330 20G<313 321 1025.5 1040.5>
VStem: 128 114<288.694 1015.92> 156 100<564.943 1150.59> 960 120<665.543 1202.09>
LayerCount: 2
Fore
SplineSet
792 1248 m 1,0,1
 792 1248 792 1248 792 1254 c 2,2,3
 792 1304 792 1304 864 1312 c 1,4,5
 940 1324 940 1324 979 1340 c 128,-1,6
 1018 1356 1018 1356 1033 1356 c 128,-1,7
 1048 1356 1048 1356 1087 1336 c 128,-1,8
 1126 1316 1126 1316 1136 1304 c 128,-1,9
 1146 1292 1146 1292 1148 1264 c 257,10,11
 1148 1264 1148 1264 1148 1250 c 2,12,13
 1148 1232 1148 1232 1144 1224 c 0,14,15
 1140 1212 1140 1212 1126 1210 c 0,16,17
 1078 1200 1078 1200 1078 1128 c 1,18,19
 1080 1118 1080 1118 1080 1108 c 0,20,21
 1082 1094 1082 1094 1080 1074 c 1,22,23
 1080 974 1080 974 1048 752 c 0,24,25
 1012 486 1012 486 983 379 c 128,-1,26
 954 272 954 272 936 232 c 128,-1,27
 918 192 918 192 860 119 c 128,-1,28
 802 46 802 46 748 11 c 128,-1,29
 694 -24 694 -24 624 -24 c 128,-1,30
 554 -24 554 -24 456 -2 c 128,-1,31
 358 20 358 20 339 43 c 128,-1,32
 320 66 320 66 276 101 c 128,-1,33
 232 136 232 136 201 192 c 128,-1,34
 170 248 170 248 156 298 c 128,-1,35
 142 348 142 348 132 470 c 0,36,37
 128 512 128 512 128 562 c 0,38,39
 128 656 128 656 140 772 c 0,40,41
 156 922 156 922 156 982 c 2,42,43
 156 982 156 982 156 1004 c 1,44,45
 152 1052 152 1052 147 1095 c 128,-1,46
 142 1138 142 1138 135 1151 c 128,-1,47
 128 1164 128 1164 96 1180 c 128,-1,48
 64 1196 64 1196 54 1216 c 128,-1,49
 44 1236 44 1236 44 1248 c 0,50,51
 44 1250 44 1250 42 1250 c 1,52,53
 42 1260 42 1260 50 1272 c 0,54,55
 58 1288 58 1288 87 1298 c 128,-1,56
 116 1308 116 1308 145 1316 c 128,-1,57
 174 1324 174 1324 213 1330 c 128,-1,58
 252 1336 252 1336 280 1344 c 0,59,60
 306 1350 306 1350 320 1350 c 1,61,62
 322 1348 322 1348 324 1348 c 0,63,64
 338 1348 338 1348 362 1326 c 0,65,66
 384 1304 384 1304 388 1268 c 0,67,68
 388 1256 388 1256 390 1248 c 1,69,70
 390 1230 390 1230 386 1224 c 0,71,72
 380 1216 380 1216 340 1210 c 128,-1,73
 300 1204 300 1204 289 1179 c 128,-1,74
 278 1154 278 1154 272 1088 c 128,-1,75
 266 1022 266 1022 258 944 c 0,76,77
 254 896 254 896 254 852 c 1,78,79
 256 824 256 824 256 800 c 1,80,81
 258 778 258 778 256 748 c 1,82,83
 256 692 256 692 250 604 c 0,84,85
 242 510 242 510 242 464 c 0,86,87
 242 446 242 446 244 434 c 0,88,89
 254 310 254 310 346 202 c 128,-1,90
 438 94 438 94 572 94 c 0,91,92
 754 94 754 94 848 344 c 1,93,94
 900 488 900 488 934 714 c 0,95,96
 960 882 960 882 960 1002 c 0,97,98
 960 1044 960 1044 956 1082 c 2,99,-1
 946 1204 l 1,100,-1
 862 1194 l 1,101,102
 796 1194 796 1194 792 1248 c 1,0,1
EndSplineSet
Validated: 1
EndChar

StartChar: V
Encoding: 86 86 53
Width: 1234
VWidth: 1894
Flags: W
HStem: 1344 20G<266 350 1041 1099>
VStem: 615 171<-34.4297 155.75> 962 244<1262.35 1359.24>
LayerCount: 2
Fore
SplineSet
308 1364 m 128,-1,1
 392 1364 392 1364 392 1310 c 0,2,3
 392 1282 392 1282 358 1256 c 1,4,-1
 330 1226 l 1,5,-1
 346 1144 l 2,6,7
 362 1064 362 1064 404 943 c 128,-1,8
 446 822 446 822 469 737 c 128,-1,9
 492 652 492 652 587 448 c 128,-1,10
 682 244 682 244 702 244 c 128,-1,11
 722 244 722 244 802 545 c 128,-1,12
 882 846 882 846 915 962 c 128,-1,13
 948 1078 948 1078 962 1214 c 128,-1,14
 976 1350 976 1350 994 1370 c 128,-1,15
 1012 1390 1012 1390 1070 1390 c 128,-1,16
 1128 1390 1128 1390 1167 1355 c 128,-1,17
 1206 1320 1206 1320 1206 1301 c 128,-1,18
 1206 1282 1206 1282 1167 1265 c 128,-1,19
 1128 1248 1128 1248 1118 1232 c 128,-1,20
 1108 1216 1108 1216 1097 1182 c 128,-1,21
 1086 1148 1086 1148 1037 1002 c 128,-1,22
 988 856 988 856 974 808 c 1,23,24
 886 432 886 432 836 283 c 128,-1,25
 786 134 786 134 786 72 c 2,26,-1
 786 66 l 2,27,28
 786 6 786 6 749 -28 c 128,-1,29
 712 -62 712 -62 701 -62 c 128,-1,30
 690 -62 690 -62 667 -49 c 128,-1,31
 644 -36 644 -36 615 43 c 128,-1,32
 586 122 586 122 524 271 c 128,-1,33
 462 420 462 420 445 455 c 128,-1,34
 428 490 428 490 404 560 c 0,35,36
 382 630 382 630 358 677 c 128,-1,37
 334 724 334 724 312 804 c 128,-1,38
 290 884 290 884 250 964 c 128,-1,39
 210 1044 210 1044 200 1107 c 128,-1,40
 190 1170 190 1170 181 1179 c 128,-1,41
 172 1188 172 1188 127 1192 c 128,-1,42
 82 1196 82 1196 58 1220 c 2,43,-1
 30 1250 l 1,44,-1
 54 1284 l 2,45,46
 78 1318 78 1318 151 1341 c 128,-1,0
 224 1364 224 1364 308 1364 c 128,-1,1
EndSplineSet
Validated: 1
EndChar

StartChar: W
Encoding: 87 87 54
Width: 1530
VWidth: 1894
Flags: W
HStem: -4 156<599.662 654.783>
VStem: 130 136<989.566 1202.47> 736 194<321.877 565.3> 1300 192<1101.06 1261.69>
LayerCount: 2
Fore
SplineSet
20 1262 m 0,0,1
 20 1332 20 1332 210 1332 c 0,2,3
 310 1332 310 1332 319 1318 c 128,-1,4
 328 1304 328 1304 328 1274 c 2,5,6
 328 1274 328 1274 328 1266 c 2,7,8
 328 1230 328 1230 322 1220 c 128,-1,9
 316 1210 316 1210 291 1204 c 128,-1,10
 266 1198 266 1198 266 1179 c 128,-1,11
 266 1160 266 1160 317 966 c 128,-1,12
 368 772 368 772 434 620 c 128,-1,13
 500 468 500 468 556 310 c 128,-1,14
 612 152 612 152 623 152 c 128,-1,15
 634 152 634 152 678 242 c 128,-1,16
 722 332 722 332 729 364 c 128,-1,17
 736 396 736 396 736 470 c 128,-1,18
 736 544 736 544 744 566 c 128,-1,19
 752 588 752 588 787 597 c 128,-1,20
 822 606 822 606 854 621 c 128,-1,21
 886 636 886 636 896 636 c 1,22,-1
 898 638 l 1,23,24
 910 638 910 638 924 626 c 128,-1,25
 938 614 938 614 938 580 c 1,26,-1
 930 450 l 1,27,28
 930 380 930 380 976 320 c 1,29,30
 1024 264 1024 264 1042 264 c 2,31,-1
 1046 264 l 258,32,33
 1082 264 1082 264 1113 366 c 128,-1,34
 1144 468 1144 468 1153 491 c 128,-1,35
 1162 514 1162 514 1222 764 c 128,-1,36
 1282 1014 1282 1014 1292 1068 c 0,37,38
 1298 1096 1298 1096 1300 1148 c 0,39,40
 1302 1176 1302 1176 1298 1210 c 0,41,42
 1294 1232 1294 1232 1296 1238 c 1,43,44
 1296 1252 1296 1252 1298 1262 c 0,45,46
 1302 1276 1302 1276 1324 1294 c 256,47,48
 1340 1308 1340 1308 1394 1318 c 0,49,50
 1406 1320 1406 1320 1414 1320 c 0,51,52
 1444 1320 1444 1320 1464 1306 c 0,53,54
 1492 1288 1492 1288 1492 1259 c 128,-1,55
 1492 1230 1492 1230 1443 1088 c 128,-1,56
 1394 946 1394 946 1373 908 c 128,-1,57
 1352 870 1352 870 1297 675 c 128,-1,58
 1242 480 1242 480 1221 339 c 128,-1,59
 1200 198 1200 198 1160 110 c 128,-1,60
 1120 22 1120 22 1100 12 c 0,61,62
 1076 -2 1076 -2 1068 0 c 0,63,64
 996 20 996 20 960 106 c 0,65,66
 890 270 890 270 832 274 c 1,67,-1
 784 222 l 1,68,69
 762 182 762 182 750 132 c 0,70,71
 732 66 732 66 716 40 c 1,72,73
 698 4 698 4 686 0 c 1,74,-1
 632 -4 l 1,75,76
 546 -4 546 -4 523 30 c 128,-1,77
 500 64 500 64 474 144 c 128,-1,78
 448 224 448 224 415 331 c 128,-1,79
 382 438 382 438 336 528 c 128,-1,80
 290 618 290 618 269 699 c 128,-1,81
 248 780 248 780 223 831 c 128,-1,82
 198 882 198 882 164 986 c 128,-1,83
 130 1090 130 1090 130 1137 c 128,-1,84
 130 1184 130 1184 75 1208 c 128,-1,85
 20 1232 20 1232 20 1262 c 0,0,1
EndSplineSet
Validated: 1
EndChar

StartChar: X
Encoding: 88 88 55
Width: 1112
VWidth: 1894
Flags: W
HStem: 1352 20G<841 926>
VStem: 458 156<582.436 757.913> 738 250<1223.67 1346.04>
LayerCount: 2
Fore
SplineSet
748 168 m 0,0,1
 746 172 746 172 594 472 c 0,2,3
 568 520 568 520 556 520 c 128,-1,4
 544 520 544 520 528 510 c 0,5,6
 502 494 502 494 449 398 c 128,-1,7
 396 302 396 302 336 218 c 128,-1,8
 276 134 276 134 276 124 c 256,9,10
 276 114 276 114 310 99 c 128,-1,11
 344 84 344 84 354 66 c 0,12,13
 358 60 358 60 358 56 c 0,14,15
 356 42 356 42 340 24 c 0,16,17
 318 0 318 0 204 0 c 128,-1,18
 90 0 90 0 74 12 c 128,-1,19
 58 24 58 24 58 56 c 128,-1,20
 58 88 58 88 74 103 c 128,-1,21
 90 118 90 118 120 125 c 128,-1,22
 150 132 150 132 161 145 c 128,-1,23
 172 158 172 158 192 198 c 128,-1,24
 212 238 212 238 250 290 c 128,-1,25
 288 342 288 342 373 492 c 128,-1,26
 458 642 458 642 458 672 c 256,27,28
 458 702 458 702 405 792 c 128,-1,29
 352 882 352 882 307 964 c 128,-1,30
 262 1046 262 1046 224 1113 c 128,-1,31
 186 1180 186 1180 145 1206 c 128,-1,32
 104 1232 104 1232 93 1246 c 128,-1,33
 82 1260 82 1260 82 1285 c 128,-1,34
 82 1310 82 1310 97 1323 c 128,-1,35
 112 1336 112 1336 200 1336 c 128,-1,36
 288 1336 288 1336 334 1306 c 0,37,38
 382 1274 382 1274 382 1260 c 0,39,40
 382 1258 382 1258 382 1256 c 0,41,42
 382 1242 382 1242 366 1220 c 0,43,44
 350 1200 350 1200 350 1176 c 0,45,46
 350 1170 350 1170 352 1160 c 0,47,48
 360 1128 360 1128 439 968 c 128,-1,49
 518 808 518 808 552 806 c 1,50,51
 622 932 622 932 688 1060 c 1,52,53
 734 1156 734 1156 748 1196 c 0,54,55
 752 1202 752 1202 752 1212 c 0,56,57
 752 1238 752 1238 745 1260 c 128,-1,58
 738 1282 738 1282 738 1296 c 128,-1,59
 738 1310 738 1310 742 1320 c 0,60,61
 748 1330 748 1330 802 1356 c 0,62,63
 834 1372 834 1372 848 1372 c 0,64,65
 856 1372 856 1372 864 1372 c 0,66,67
 988 1372 988 1372 988 1280 c 0,68,69
 988 1256 988 1256 981 1245 c 128,-1,70
 974 1234 974 1234 950 1228 c 128,-1,71
 926 1222 926 1222 835 1086 c 128,-1,72
 744 950 744 950 700 846 c 128,-1,73
 656 742 656 742 635 726 c 128,-1,74
 614 710 614 710 614 692 c 128,-1,75
 614 674 614 674 698 494 c 128,-1,76
 782 314 782 314 823 276 c 128,-1,77
 864 238 864 238 887 196 c 128,-1,78
 910 154 910 154 956 136 c 128,-1,79
 1002 118 1002 118 1026 87 c 128,-1,80
 1050 56 1050 56 1050 44 c 128,-1,81
 1050 32 1050 32 1046 24 c 0,82,83
 1030 0 1030 0 924 0 c 0,84,85
 814 0 814 0 795 4 c 128,-1,86
 776 8 776 8 757 24 c 128,-1,87
 738 40 738 40 738 50 c 1,88,-1
 736 50 l 1,89,90
 736 60 736 60 751 79 c 128,-1,91
 766 98 766 98 766 122 c 0,92,93
 766 124 766 124 766 126 c 128,-1,94
 766 128 766 128 748 168 c 0,0,1
EndSplineSet
Validated: 1
EndChar

StartChar: Y
Encoding: 89 89 56
Width: 1260
VWidth: 1894
Flags: W
HStem: -26 120<538.646 602.449> 1206 150<70.3706 229.087> 1243 121<1113.83 1195.65> 1258 98<344.072 414.265>
VStem: 604 130<94.0728 418.603> 604 114<104.095 596.777>
LayerCount: 2
Fore
SplineSet
950 1280 m 1,0,1
 952 1364 952 1364 1050 1364 c 128,-1,2
 1148 1364 1148 1364 1190 1325 c 128,-1,3
 1232 1286 1232 1286 1232 1269 c 128,-1,4
 1232 1252 1232 1252 1179 1243 c 128,-1,5
 1126 1234 1126 1234 1118 1208 c 128,-1,6
 1110 1182 1110 1182 1005 1051 c 128,-1,7
 900 920 900 920 836 798 c 128,-1,8
 772 676 772 676 750 644 c 0,9,10
 718 598 718 598 718 420 c 0,11,12
 718 376 718 376 726 241 c 128,-1,13
 734 106 734 106 734 104 c 0,14,15
 762 82 762 82 765 75 c 128,-1,16
 768 68 768 68 770 10 c 0,17,18
 770 4 770 4 691 -11 c 128,-1,19
 612 -26 612 -26 572 -26 c 128,-1,20
 532 -26 532 -26 525 -21 c 128,-1,21
 518 -16 518 -16 518 5 c 128,-1,22
 518 26 518 26 547 60 c 128,-1,23
 576 94 576 94 596 94 c 1,24,25
 604 96 604 96 604 140 c 2,26,-1
 604 196 l 2,27,28
 604 296 604 296 591 425 c 128,-1,29
 578 554 578 554 571 576 c 128,-1,30
 564 598 564 598 533 630 c 128,-1,31
 502 662 502 662 466 726 c 128,-1,32
 430 790 430 790 430 810 c 128,-1,33
 430 830 430 830 318 1018 c 128,-1,34
 206 1206 206 1206 194 1206 c 0,35,36
 132 1206 132 1206 79 1244 c 128,-1,37
 26 1282 26 1282 26 1290 c 0,38,39
 26 1324 26 1324 69 1340 c 128,-1,40
 112 1356 112 1356 265 1356 c 128,-1,41
 418 1356 418 1356 418 1294 c 0,42,43
 418 1266 418 1266 388 1258 c 1,44,45
 346 1252 346 1252 344 1242 c 1,46,-1
 344 1240 l 2,47,48
 344 1138 344 1138 430 1022 c 128,-1,49
 516 906 516 906 537 850 c 128,-1,50
 558 794 558 794 594 752 c 128,-1,51
 630 710 630 710 644 710 c 2,52,-1
 646 710 l 1,53,54
 660 712 660 712 686 744 c 1,55,56
 788 900 788 900 844 1010 c 1,57,58
 954 1184 954 1184 954 1246 c 1,59,-1
 950 1280 l 1,0,1
EndSplineSet
Validated: 1
EndChar

StartChar: Z
Encoding: 90 90 57
Width: 1076
VWidth: 1894
Flags: W
HStem: -22 129<178.018 394.781> 42 64<501 607.917> 580 130<511.927 550.332> 1232 68<439.603 648.805> 1336 20G<794 942>
VStem: 62 116<38 191.98> 124 108<1019.2 1140.63> 532 122<707.873 786.879>
LayerCount: 2
Fore
SplineSet
978 284 m 0,0,1
 1020 284 1020 284 1020 178 c 0,2,3
 1020 152 1020 152 1004 78 c 1,4,5
 986 6 986 6 968 -10 c 0,6,7
 962 -14 962 -14 954 -14 c 0,8,9
 936 -14 936 -14 914 4 c 0,10,11
 878 32 878 32 858 37 c 128,-1,12
 838 42 838 42 798 42 c 2,13,-1
 702 42 l 2,14,15
 644 42 644 42 583 26 c 128,-1,16
 522 10 522 10 377 -6 c 128,-1,17
 232 -22 232 -22 164 -22 c 0,18,19
 62 -20 62 -20 62 96 c 0,20,21
 62 148 62 148 111 221 c 128,-1,22
 160 294 160 294 280 424 c 2,23,-1
 388 542 l 1,24,-1
 350 580 l 2,25,26
 328 604 328 604 324 614 c 0,27,28
 322 618 322 618 322 624 c 0,29,30
 322 626 322 626 322 628 c 0,31,32
 322 638 322 638 328 650 c 0,33,34
 336 674 336 674 411 692 c 128,-1,35
 486 710 486 710 509 710 c 128,-1,36
 532 710 532 710 532 722 c 128,-1,37
 532 734 532 734 584 797 c 128,-1,38
 636 860 636 860 715 1002 c 128,-1,39
 794 1144 794 1144 818 1168 c 0,40,41
 840 1192 840 1192 840 1200 c 128,-1,42
 840 1208 840 1208 789 1220 c 128,-1,43
 738 1232 738 1232 651 1232 c 128,-1,44
 564 1232 564 1232 417 1193 c 128,-1,45
 270 1154 270 1154 262 1142 c 0,46,47
 238 1098 238 1098 232 1062 c 1,48,49
 230 1026 230 1026 208 1012 c 0,50,51
 202 1008 202 1008 194 1008 c 0,52,53
 176 1008 176 1008 154 1034 c 1,54,55
 124 1064 124 1064 124 1146 c 2,56,57
 124 1146 124 1146 124 1156 c 1,58,59
 124 1156 124 1156 124 1162 c 2,60,61
 124 1256 124 1256 178 1306 c 0,62,63
 194 1322 194 1322 204 1326 c 0,64,65
 206 1326 206 1326 208 1326 c 0,66,67
 222 1326 222 1326 244 1314 c 0,68,69
 270 1300 270 1300 314 1300 c 128,-1,70
 358 1300 358 1300 514 1319 c 128,-1,71
 670 1338 670 1338 794 1346 c 2,72,-1
 934 1356 l 2,73,74
 950 1356 950 1356 968 1318 c 0,75,76
 984 1288 984 1288 984 1264 c 2,77,78
 984 1264 984 1264 984 1252 c 1,79,80
 980 1224 980 1224 847 1019 c 128,-1,81
 714 814 714 814 678 762 c 0,82,83
 654 724 654 724 654 696 c 0,84,85
 654 682 654 682 658 674 c 0,86,87
 672 636 672 636 672 612 c 0,88,89
 672 598 672 598 643 589 c 128,-1,90
 614 580 614 580 585 580 c 128,-1,91
 556 580 556 580 500 524 c 128,-1,92
 444 468 444 468 423 433 c 128,-1,93
 402 398 402 398 368 373 c 128,-1,94
 334 348 334 348 256 240 c 128,-1,95
 178 132 178 132 178 116 c 0,96,97
 178 108 178 108 252 107 c 128,-1,98
 326 106 326 106 397 106 c 128,-1,99
 468 106 468 106 583 132 c 128,-1,100
 698 158 698 158 793 170 c 128,-1,101
 888 182 888 182 900 189 c 128,-1,102
 912 196 912 196 932 240 c 128,-1,103
 952 284 952 284 978 284 c 0,0,1
EndSplineSet
Validated: 1
EndChar

StartChar: bracketleft
Encoding: 91 91 58
Width: 492
VWidth: 1894
Flags: W
HStem: -292 76<280.469 346 346 515.345> 1434 124<324.005 600.777>
VStem: 150 130<-198 173.92> 162 120<40.1067 601.561> 186 138<950.244 1432.14>
LayerCount: 2
Fore
SplineSet
162 438 m 1,0,1
 162 438 162 438 162 462 c 2,2,3
 162 550 162 550 172 828 c 1,4,5
 186 1080 186 1080 186 1444 c 2,6,-1
 186 1466 l 2,7,8
 186 1522 186 1522 274 1546 c 0,9,10
 314 1558 314 1558 425 1558 c 128,-1,11
 536 1558 536 1558 568 1552 c 128,-1,12
 600 1546 600 1546 608 1541 c 128,-1,13
 616 1536 616 1536 616 1520 c 0,14,15
 612 1434 612 1434 444 1434 c 0,16,17
 364 1434 364 1434 344 1429 c 128,-1,18
 324 1424 324 1424 324 1414 c 1,19,20
 290 1372 290 1372 282 156 c 2,21,-1
 280 -198 l 1,22,-1
 310 -212 l 2,23,24
 320 -216 320 -216 344 -216 c 0,25,26
 346 -216 346 -216 346 -218 c 1,27,28
 370 -218 370 -218 416 -204 c 0,29,30
 464 -190 464 -190 517 -190 c 128,-1,31
 570 -190 570 -190 602 -224 c 128,-1,32
 634 -258 634 -258 634 -268 c 128,-1,33
 634 -278 634 -278 621 -285 c 128,-1,34
 608 -292 608 -292 392 -292 c 2,35,-1
 150 -292 l 1,36,-1
 166 228 l 1,37,-1
 162 438 l 1,0,1
EndSplineSet
Validated: 1
EndChar

StartChar: backslash
Encoding: 92 92 59
Width: 768
VWidth: 1894
Flags: W
LayerCount: 2
Fore
SplineSet
166 1234 m 1,0,1
 332 872 332 872 470 614 c 128,-1,2
 608 356 608 356 710 160 c 128,-1,3
 812 -36 812 -36 820 -60 c 0,4,5
 824 -68 824 -68 824 -76 c 0,6,7
 824 -94 824 -94 812 -114 c 0,8,9
 800 -136 800 -136 780 -136 c 0,10,11
 762 -136 762 -136 740 -118 c 0,12,13
 724 -106 724 -106 699 -56 c 128,-1,14
 674 -6 674 -6 542 239 c 128,-1,15
 410 484 410 484 114 1082 c 0,16,17
 66 1176 66 1176 20 1246 c 1,18,19
 -68 1370 -68 1370 -68 1432 c 0,20,21
 -68 1450 -68 1450 -60 1462 c 0,22,23
 -50 1474 -50 1474 -28 1478 c 2,24,-1
 4 1484 l 1,25,-1
 166 1234 l 1,0,1
EndSplineSet
Validated: 1
EndChar

StartChar: bracketright
Encoding: 93 93 60
Width: 456
VWidth: 1894
Flags: W
HStem: -258 108<-70.4922 152> 1458 108<-103 95.491>
VStem: 188 114<-40.6162 1021.77>
LayerCount: 2
Fore
SplineSet
272 -130 m 0,0,1
 284 -154 284 -154 296 -186 c 1,2,-1
 266 -254 l 1,3,-1
 78 -258 l 1,4,5
 -78 -258 -78 -258 -78 -210 c 2,6,7
 -78 -210 -78 -210 -78 -208 c 2,8,9
 -78 -206 -78 -206 -70 -194 c 1,10,11
 -28 -150 -28 -150 90 -150 c 2,12,-1
 152 -150 l 1,13,-1
 174 240 l 1,14,15
 188 360 188 360 188 392 c 0,16,17
 188 396 188 396 188 400 c 2,18,-1
 174 772 l 1,19,20
 180 974 180 974 180 1116 c 0,21,22
 180 1368 180 1368 160 1430 c 0,23,24
 156 1444 156 1444 67 1449 c 128,-1,25
 -22 1454 -22 1454 -40 1458 c 128,-1,26
 -58 1462 -58 1462 -84 1484 c 2,27,-1
 -116 1510 l 1,28,-1
 -84 1538 l 2,29,30
 -58 1560 -58 1560 -36 1566 c 128,-1,31
 -14 1572 -14 1572 99 1577 c 128,-1,32
 212 1582 212 1582 234 1582 c 2,33,-1
 260 1582 l 2,34,35
 300 1582 300 1582 308 1543 c 128,-1,36
 316 1504 316 1504 316 1486 c 2,37,-1
 316 1460 l 1,38,-1
 290 934 l 1,39,-1
 302 414 l 1,40,41
 300 302 300 302 280 98 c 0,42,43
 268 -28 268 -28 268 -86 c 0,44,45
 268 -120 268 -120 272 -130 c 0,0,1
EndSplineSet
Validated: 1
EndChar

StartChar: a
Encoding: 97 97 61
Width: 808
VWidth: 1894
Flags: W
HStem: 0 98<217.508 475.605> 462 96<253.728 552.644> 770 108<287.974 569>
VStem: 68 106<164.825 354> 564 136<251.419 448.406> 608 116<547.647 729.796>
LayerCount: 2
Fore
SplineSet
608 628 m 0,0,1
 608 770 608 770 408 770 c 2,2,3
 408 770 408 770 342 770 c 2,4,5
 318 770 318 770 275 708 c 128,-1,6
 232 646 232 646 213 629 c 128,-1,7
 194 612 194 612 170 612 c 0,8,9
 150 612 150 612 140 628 c 0,10,11
 136 634 136 634 136 644 c 0,12,13
 136 660 136 660 144 682 c 0,14,15
 178 766 178 766 182 774 c 0,16,17
 184 778 184 778 240 828 c 128,-1,18
 296 878 296 878 391 878 c 128,-1,19
 486 878 486 878 553 846 c 128,-1,20
 620 814 620 814 639 796 c 128,-1,21
 658 778 658 778 685 721 c 128,-1,22
 712 664 712 664 714 658 c 128,-1,23
 716 652 716 652 720 616 c 0,24,25
 724 568 724 568 724 560 c 0,26,27
 722 550 722 550 720 540 c 1,28,29
 720 506 720 506 710 438 c 0,30,31
 700 376 700 376 700 364 c 0,32,33
 700 362 700 362 700 360 c 2,34,-1
 716 112 l 2,35,36
 718 86 718 86 740 64 c 1,37,-1
 748 58 l 1,38,-1
 728 22 l 2,39,40
 712 -10 712 -10 690 -10 c 2,41,42
 690 -10 690 -10 688 -10 c 2,43,44
 668 -10 668 -10 632 11 c 128,-1,45
 596 32 596 32 582 56 c 0,46,47
 572 72 572 72 564 74 c 1,48,49
 556 72 556 72 552 68 c 0,50,51
 536 56 536 56 493 28 c 128,-1,52
 450 0 450 0 400 0 c 128,-1,53
 350 0 350 0 274 16 c 0,54,55
 100 54 100 54 72 192 c 0,56,57
 68 214 68 214 68 246 c 128,-1,58
 68 278 68 278 91 368 c 128,-1,59
 114 458 114 458 152 480 c 128,-1,60
 190 502 190 502 307 530 c 128,-1,61
 424 558 424 558 456 558 c 1,62,-1
 562 546 l 1,63,64
 586 546 586 546 597 555 c 128,-1,65
 608 564 608 564 608 628 c 0,0,1
400 462 m 128,-1,67
 380 462 380 462 369 458 c 128,-1,68
 358 454 358 454 310 442 c 128,-1,69
 262 430 262 430 220 392 c 1,70,-1
 174 354 l 1,71,-1
 174 266 l 2,72,73
 174 190 174 190 193 164 c 128,-1,74
 212 138 212 138 267 118 c 128,-1,75
 322 98 322 98 383 98 c 128,-1,76
 444 98 444 98 475 141 c 128,-1,77
 506 184 506 184 533 211 c 128,-1,78
 560 238 560 238 562 251 c 128,-1,79
 564 264 564 264 564 329 c 128,-1,80
 564 394 564 394 553 422 c 128,-1,81
 542 450 542 450 481 456 c 128,-1,66
 420 462 420 462 400 462 c 128,-1,67
EndSplineSet
Validated: 1
EndChar

StartChar: b
Encoding: 98 98 62
Width: 958
VWidth: 1894
Flags: W
HStem: 18 92<387.217 518> 794 114<430.126 658.427> 1184 162<94.1445 156.625>
VStem: 62 240<1216.89 1292 1294 1328.51> 116 186<-3.3125 85.9363> 162 104<218.697 609.687 806.039 1203.89> 776 120<260.062 434>
LayerCount: 2
Fore
SplineSet
286 1245 m 128,-1,1
 272 1226 272 1226 268 1016 c 1,2,3
 268 1016 268 1016 268 966 c 2,4,5
 268 806 268 806 292 806 c 0,6,7
 298 806 298 806 355 843 c 128,-1,8
 412 880 412 880 460 894 c 128,-1,9
 508 908 508 908 520 908 c 128,-1,10
 532 908 532 908 544 907 c 128,-1,11
 556 906 556 906 642 878 c 128,-1,12
 728 850 728 850 784 785 c 128,-1,13
 840 720 840 720 868 592 c 0,14,15
 896 470 896 470 898 436 c 1,16,17
 898 436 898 436 896 434 c 1,18,19
 896 402 896 402 874 316 c 0,20,21
 822 126 822 126 630 48 c 0,22,23
 556 18 556 18 530 18 c 2,24,-1
 502 18 l 2,25,26
 452 18 452 18 399 48 c 128,-1,27
 346 78 346 78 331 83 c 128,-1,28
 316 88 316 88 310 88 c 128,-1,29
 304 88 304 88 303 86 c 128,-1,30
 302 84 302 84 302 77 c 128,-1,31
 302 70 302 70 304 57 c 128,-1,32
 306 44 306 44 306 40 c 0,33,34
 304 -8 304 -8 208 -8 c 0,35,36
 206 -8 206 -8 204 -10 c 1,37,38
 116 -10 116 -10 116 32 c 2,39,40
 116 32 116 32 116 34 c 2,41,42
 116 52 116 52 146 88 c 128,-1,43
 176 124 176 124 178 172 c 0,44,45
 178 180 178 180 178 188 c 0,46,47
 176 228 176 228 168 264 c 0,48,49
 162 286 162 286 162 404 c 2,50,51
 162 404 162 404 162 470 c 2,52,53
 162 568 162 568 164 710 c 0,54,55
 166 808 166 808 166 886 c 0,56,57
 166 1178 166 1178 142 1184 c 0,58,59
 138 1184 138 1184 96 1226 c 0,60,61
 62 1258 62 1258 62 1268 c 0,62,63
 64 1318 64 1318 146 1346 c 0,64,65
 168 1352 168 1352 216 1352 c 128,-1,66
 264 1352 264 1352 284 1336 c 0,67,68
 302 1320 302 1320 302 1294 c 1,69,-1
 300 1292 l 1,70,0
 300 1264 300 1264 286 1245 c 128,-1,1
718 692 m 0,71,72
 632 794 632 794 547 794 c 128,-1,73
 462 794 462 794 367 693 c 128,-1,74
 272 592 272 592 266 408 c 1,75,76
 266 408 266 408 266 370 c 2,77,78
 266 308 266 308 276 272 c 0,79,80
 290 226 290 226 366 170 c 1,81,82
 442 110 442 110 510 110 c 2,83,-1
 512 110 l 1,84,85
 512 110 512 110 518 110 c 1,86,-1
 640 156 l 1,87,88
 700 204 700 204 736 268 c 128,-1,89
 772 332 772 332 776 448 c 0,90,91
 778 480 778 480 778 508 c 0,92,93
 778 576 778 576 770 604 c 0,94,95
 760 644 760 644 718 692 c 0,71,72
EndSplineSet
Validated: 1
EndChar

StartChar: c
Encoding: 99 99 63
Width: 956
VWidth: 1894
Flags: W
HStem: -26 96<358.153 609.74> 64 224<705.07 835.784> 694 154<644.543 700 702 778.855> 762 120<406.923 661.688>
VStem: 56 114<211.809 544.227> 704 188<141.202 228.996>
LayerCount: 2
Fore
SplineSet
582 762 m 2,0,-1
 574 762 l 2,1,2
 526 762 526 762 420 724 c 1,3,4
 334 684 334 684 307 663 c 128,-1,5
 280 642 280 642 225 563 c 128,-1,6
 170 484 170 484 170 373 c 128,-1,7
 170 262 170 262 218 208 c 128,-1,8
 266 154 266 154 364 112 c 128,-1,9
 462 70 462 70 517 70 c 128,-1,10
 572 70 572 70 589 79 c 128,-1,11
 606 88 606 88 647 129 c 128,-1,12
 688 170 688 170 696 186 c 0,13,14
 702 198 702 198 704 210 c 1,15,16
 704 210 704 210 704 220 c 1,17,18
 700 236 700 236 700 244 c 0,19,20
 700 288 700 288 744 288 c 2,21,22
 744 288 744 288 746 288 c 2,23,24
 788 288 788 288 824 256 c 128,-1,25
 860 224 860 224 876 161 c 128,-1,26
 892 98 892 98 892 73 c 128,-1,27
 892 48 892 48 856 48 c 256,28,29
 824 48 824 48 802 58 c 0,30,31
 786 66 786 66 774 66 c 1,32,33
 772 64 772 64 768 64 c 0,34,35
 756 60 756 60 698 17 c 128,-1,36
 640 -26 640 -26 536 -26 c 128,-1,37
 432 -26 432 -26 356 0 c 128,-1,38
 280 26 280 26 250 44 c 128,-1,39
 220 62 220 62 167 116 c 128,-1,40
 114 170 114 170 88 224 c 128,-1,41
 62 278 62 278 59 295 c 128,-1,42
 56 312 56 312 56 330 c 0,43,44
 56 538 56 538 190 680 c 128,-1,45
 324 822 324 822 421 852 c 128,-1,46
 518 882 518 882 530 882 c 128,-1,47
 542 882 542 882 591 866 c 128,-1,48
 640 850 640 850 684 848 c 1,49,-1
 742 856 l 1,50,51
 822 856 822 856 822 831 c 128,-1,52
 822 806 822 806 801 769 c 128,-1,53
 780 732 780 732 752 714 c 128,-1,54
 724 696 724 696 702 696 c 1,55,-1
 700 694 l 1,56,57
 678 694 678 694 654 728 c 0,58,59
 628 762 628 762 582 762 c 2,0,-1
EndSplineSet
Validated: 1
EndChar

StartChar: d
Encoding: 100 100 64
Width: 1005
VWidth: 1894
Flags: W
HStem: -32 104<385.072 584.181> 776 112<350.201 616.281> 1342 20G<747 824>
VStem: 62 112<223.5 584.108> 668 204<1238.08 1345.56> 758 114<368 372 374 644.734 824.027 1236.36>
LayerCount: 2
Fore
SplineSet
872 1230 m 2,0,-1
 860 807 l 1,1,-1
 860 788 l 2,2,3
 860 773 860 773 865.5 669.5 c 128,-1,4
 871 566 871 566 872 533.5 c 128,-1,5
 873 501 873 501 882.5 379 c 128,-1,6
 892 257 892 257 894 195.5 c 128,-1,7
 896 134 896 134 920 105 c 128,-1,8
 944 76 944 76 944 64 c 1,9,-1
 942 64 l 1,10,11
 942 52 942 52 933 39 c 128,-1,12
 924 26 924 26 881 13 c 128,-1,13
 838 0 838 0 828 -0 c 1,14,-1
 826 2 l 1,15,16
 817 2 817 2 797 27.5 c 128,-1,17
 777 53 777 53 772 98 c 2,18,-1
 768 140 l 1,19,-1
 696 82 l 1,20,21
 560 -30 560 -30 446 -32 c 1,22,-1
 310 -0 l 1,23,-1
 196 62 l 1,24,25
 125 94 125 94 74 260 c 0,26,27
 60 306 60 306 61 317 c 128,-1,28
 62 328 62 328 62 330 c 2,29,-1
 62 378 l 2,30,31
 62 404 62 404 64 428 c 2,32,-1
 66 462 l 1,33,34
 76 558 76 558 160 677 c 128,-1,35
 244 796 244 796 288 818 c 128,-1,36
 332 840 332 840 413 864 c 128,-1,37
 494 888 494 888 524 888 c 2,38,-1
 582 888 l 2,39,40
 610 888 610 888 668.5 856.5 c 128,-1,41
 727 825 727 825 736 824 c 1,42,43
 752 824 752 824 752 935 c 2,44,-1
 752 964 l 2,45,46
 752 976 752 976 752 1021 c 0,47,48
 752 1211 752 1211 702 1248 c 0,49,50
 668 1274 668 1274 668 1300 c 2,51,-1
 668 1308 l 1,52,53
 670 1341 670 1341 722 1358 c 0,54,55
 734 1362 734 1362 760 1362 c 2,56,-1
 794 1362 l 1,57,58
 854 1360 854 1360 863 1346 c 128,-1,59
 872 1332 872 1332 872 1290 c 2,60,-1
 872 1240 l 2,61,62
 872 1236 872 1236 872 1230 c 2,0,-1
608 737 m 128,-1,64
 552 776 552 776 500 776 c 128,-1,65
 448 776 448 776 377.5 760.5 c 128,-1,66
 307 745 307 745 212 574 c 0,67,68
 183 522 183 522 180 480 c 2,69,-1
 174 360 l 1,70,-1
 174 348 l 1,71,72
 185 213 185 213 324 120 c 0,73,74
 395 72 395 72 458 72 c 2,75,-1
 461 72 l 2,76,77
 463 72 463 72 464 72 c 0,78,79
 522 72 522 72 574 108 c 0,80,81
 684 185 684 185 734 322 c 0,82,83
 753 374 753 374 756 374 c 2,84,-1
 758 374 l 1,85,-1
 758 462 l 2,86,87
 758 548 758 548 731 610 c 128,-1,88
 704 672 704 672 684 685 c 128,-1,63
 664 698 664 698 608 737 c 128,-1,64
758 368 m 2,89,-1
 758 372 l 2,90,91
 758 370 758 370 758 368 c 2,89,-1
EndSplineSet
Validated: 1
EndChar

StartChar: e
Encoding: 101 101 65
Width: 854
VWidth: 1894
Flags: W
HStem: -18 110<279.605 573.645> 432 72<324.041 500.516> 810 92<346.48 533.092>
VStem: 66 138<212.565 364> 620 166<117.79 251.609 558.592 686.465>
LayerCount: 2
Fore
SplineSet
204 258 m 2,0,1
 204 230 204 230 211 212 c 128,-1,2
 218 194 218 194 271 144 c 128,-1,3
 324 94 324 94 430 92 c 1,4,-1
 444 92 l 2,5,6
 532 92 532 92 575 117 c 128,-1,7
 618 142 618 142 620 204 c 128,-1,8
 622 266 622 266 644 284 c 2,9,-1
 670 306 l 1,10,-1
 720 272 l 1,11,12
 786 218 786 218 786 160 c 128,-1,13
 786 102 786 102 779 87 c 128,-1,14
 772 72 772 72 717 58 c 128,-1,15
 662 44 662 44 624 26 c 128,-1,16
 586 8 586 8 524 -5 c 128,-1,17
 462 -18 462 -18 434 -18 c 128,-1,18
 406 -18 406 -18 350 -4 c 128,-1,19
 294 10 294 10 267 22 c 128,-1,20
 240 34 240 34 187 74 c 128,-1,21
 134 114 134 114 112 146 c 1,22,23
 98 170 98 170 82 223 c 128,-1,24
 66 276 66 276 66 302 c 2,25,-1
 66 336 l 1,26,27
 70 354 70 354 71 389 c 128,-1,28
 72 424 72 424 102 512 c 0,29,30
 204 798 204 798 279 850 c 128,-1,31
 354 902 354 902 406 902 c 128,-1,32
 458 902 458 902 529 884 c 128,-1,33
 600 866 600 866 624 847 c 128,-1,34
 648 828 648 828 704 747 c 128,-1,35
 760 666 760 666 775 603 c 128,-1,36
 790 540 790 540 790 497 c 128,-1,37
 790 454 790 454 768 436 c 128,-1,38
 746 418 746 418 680 418 c 1,39,-1
 546 432 l 1,40,41
 444 432 444 432 272 382 c 1,42,-1
 204 364 l 1,43,-1
 204 258 l 2,0,1
513 802 m 128,-1,45
 488 810 488 810 435 810 c 128,-1,46
 382 810 382 810 356 788 c 1,47,48
 298 730 298 730 251 636 c 128,-1,49
 204 542 204 542 204 534 c 256,50,51
 204 522 204 522 255 513 c 128,-1,52
 306 504 306 504 329 504 c 128,-1,53
 352 504 352 504 440 525 c 128,-1,54
 528 546 528 546 577 559 c 128,-1,55
 626 572 626 572 626 580 c 1,56,57
 582 718 582 718 560 756 c 128,-1,44
 538 794 538 794 513 802 c 128,-1,45
EndSplineSet
Validated: 1
EndChar

StartChar: f
Encoding: 102 102 66
Width: 688
VWidth: 1894
Flags: W
HStem: -16 114<68.2065 149.559> 1164 192<453.469 627.663> 1248 110<354.555 435.938>
VStem: 150 106<144.383 540.488 704 1127.61>
LayerCount: 2
Fore
SplineSet
438 1222 m 0,0,1
 428 1232 428 1232 428 1238 c 128,-1,2
 428 1244 428 1244 436 1246 c 1,3,4
 434 1248 434 1248 432 1248 c 0,5,6
 418 1248 418 1248 376 1220 c 0,7,8
 256 1142 256 1142 256 892 c 0,9,10
 256 884 256 884 256 876 c 2,11,-1
 260 704 l 1,12,-1
 330 688 l 1,13,14
 404 674 404 674 431 656 c 128,-1,15
 458 638 458 638 458 598 c 2,16,-1
 458 558 l 1,17,-1
 374 566 l 1,18,19
 374 566 374 566 366 566 c 2,20,21
 350 566 350 566 312 562 c 0,22,23
 270 558 270 558 266 542 c 0,24,25
 256 494 256 494 256 398 c 2,26,27
 256 398 256 398 256 364 c 1,28,29
 258 244 258 244 264 200 c 136,-1,30
 270 156 270 156 279 144 c 128,-1,31
 288 132 288 132 320 114 c 128,-1,32
 352 96 352 96 364 68 c 0,33,34
 370 56 370 56 370 48 c 0,35,36
 372 34 372 34 360 24 c 0,37,38
 340 8 340 8 256 -4 c 128,-1,39
 172 -16 172 -16 148 -16 c 128,-1,40
 124 -16 124 -16 106 -11 c 128,-1,41
 88 -6 88 -6 74 18 c 128,-1,42
 60 42 60 42 60 51 c 128,-1,43
 60 60 60 60 84 79 c 128,-1,44
 108 98 108 98 122 98 c 0,45,46
 150 98 150 98 150 144 c 2,47,-1
 154 724 l 1,48,49
 150 782 150 782 150 838 c 0,50,51
 150 964 150 964 170 1066 c 0,52,53
 216 1298 216 1298 342 1346 c 0,54,55
 374 1358 374 1358 404 1358 c 0,56,57
 408 1358 408 1358 412 1358 c 2,58,-1
 542 1356 l 2,59,60
 608 1354 608 1354 630 1336 c 256,61,62
 650 1318 650 1318 650 1296 c 0,63,64
 650 1266 650 1266 633 1221 c 128,-1,65
 616 1176 616 1176 598 1170 c 128,-1,66
 580 1164 580 1164 560 1164 c 0,67,68
 500 1164 500 1164 438 1222 c 0,0,1
EndSplineSet
Validated: 1
EndChar

StartChar: g
Encoding: 103 103 67
Width: 1094
VWidth: 1894
Flags: W
HStem: -348 98<460.847 686.424> -270 100<170.307 480.025> -72 118<227.745 398.791> 34 120<465.543 701.264> 160 138<324 516.83> 740 131<431.536 740.328> 880 21G<1002 1022> 926 154<898.155 993.781>
VStem: 34 140<-356.11 -283.102> 104 92<352.56 554.835> 736 104<-200.248 -2.36475> 790 244<927.19 1048.9> 868 122<455.6 676.518>
LayerCount: 2
Fore
SplineSet
922 926 m 0,0,1
 914 926 914 926 902 893 c 128,-1,2
 890 860 890 860 890 850 c 2,3,-1
 890 836 l 1,4,5
 892 822 892 822 941 769 c 128,-1,6
 990 716 990 716 990 644 c 2,7,-1
 990 642 l 2,8,9
 990 580 990 580 958 488 c 0,10,11
 886 274 886 274 726 230 c 0,12,13
 692 222 692 222 572 211 c 128,-1,14
 452 200 452 200 418 180 c 128,-1,15
 384 160 384 160 376 160 c 2,16,-1
 360 160 l 1,17,18
 340 164 340 164 324 164 c 1,19,-1
 322 166 l 1,20,21
 304 164 304 164 262 136 c 128,-1,22
 220 108 220 108 221 90 c 128,-1,23
 222 72 222 72 233 59 c 128,-1,24
 244 46 244 46 277 46 c 128,-1,25
 310 46 310 46 398 90 c 128,-1,26
 486 134 486 134 518 144 c 128,-1,27
 550 154 550 154 595 154 c 128,-1,28
 640 154 640 154 663 146 c 128,-1,29
 686 138 686 138 734 105 c 128,-1,30
 782 72 782 72 803 37 c 128,-1,31
 824 2 824 2 832 -46 c 128,-1,32
 840 -94 840 -94 840 -134 c 128,-1,33
 840 -174 840 -174 811 -235 c 128,-1,34
 782 -296 782 -296 725 -322 c 128,-1,35
 668 -348 668 -348 641 -348 c 128,-1,36
 614 -348 614 -348 585 -345 c 128,-1,37
 556 -342 556 -342 463 -309 c 128,-1,38
 370 -276 370 -276 354 -273 c 128,-1,39
 338 -270 338 -270 319 -270 c 128,-1,40
 300 -270 300 -270 237 -279 c 128,-1,41
 174 -288 174 -288 174 -303 c 128,-1,42
 174 -318 174 -318 131 -355 c 128,-1,43
 88 -392 88 -392 66 -392 c 128,-1,44
 44 -392 44 -392 39 -385 c 128,-1,45
 34 -378 34 -378 34 -340 c 128,-1,46
 34 -302 34 -302 63 -257 c 128,-1,47
 92 -212 92 -212 135 -191 c 128,-1,48
 178 -170 178 -170 259 -170 c 128,-1,49
 340 -170 340 -170 375 -177 c 128,-1,50
 410 -184 410 -184 490 -217 c 128,-1,51
 570 -250 570 -250 604 -250 c 128,-1,52
 638 -250 638 -250 678 -213 c 128,-1,53
 718 -176 718 -176 727 -160 c 128,-1,54
 736 -144 736 -144 736 -114 c 0,55,56
 736 -28 736 -28 683 3 c 128,-1,57
 630 34 630 34 592 34 c 128,-1,58
 554 34 554 34 504 8 c 128,-1,59
 454 -18 454 -18 379 -45 c 128,-1,60
 304 -72 304 -72 273 -72 c 128,-1,61
 242 -72 242 -72 180 -39 c 128,-1,62
 118 -6 118 -6 101 20 c 128,-1,63
 84 46 84 46 84 79 c 128,-1,64
 84 112 84 112 107 143 c 128,-1,65
 130 174 130 174 148 197 c 128,-1,66
 166 220 166 220 167 223 c 128,-1,67
 168 226 168 226 168 236 c 128,-1,68
 168 246 168 246 136 291 c 128,-1,69
 104 336 104 336 104 388 c 0,70,71
 104 462 104 462 154 568 c 1,72,73
 208 660 208 660 232 680 c 0,74,75
 316 746 316 746 320 756 c 256,76,77
 328 772 328 772 389 806 c 128,-1,78
 450 840 450 840 499 855 c 128,-1,79
 548 870 548 870 634 871 c 128,-1,80
 720 872 720 872 741 887 c 128,-1,81
 762 902 762 902 790 976 c 1,82,83
 824 1080 824 1080 918 1080 c 0,84,85
 956 1080 956 1080 995 1050 c 128,-1,86
 1034 1020 1034 1020 1034 950 c 128,-1,87
 1034 880 1034 880 1010 880 c 0,88,89
 994 880 994 880 970 900 c 256,90,91
 938 924 938 924 922 926 c 0,0,1
650 740 m 0,92,93
 476 740 476 740 336 647 c 128,-1,94
 196 554 196 554 196 452 c 0,95,96
 196 392 196 392 213 365 c 128,-1,97
 230 338 230 338 287 318 c 128,-1,98
 344 298 344 298 407 298 c 128,-1,99
 470 298 470 298 541 321 c 128,-1,100
 612 344 612 344 675 344 c 128,-1,101
 738 344 738 344 753 349 c 128,-1,102
 768 354 768 354 803 396 c 128,-1,103
 838 438 838 438 853 482 c 128,-1,104
 868 526 868 526 868 594 c 128,-1,105
 868 662 868 662 858 677 c 128,-1,106
 848 692 848 692 777 716 c 128,-1,107
 706 740 706 740 650 740 c 0,92,93
EndSplineSet
Validated: 1
EndChar

StartChar: h
Encoding: 104 104 68
Width: 870
VWidth: 1894
Flags: W
HStem: -6 21G<754.5 775.5> 788 120<394.938 579.058> 1348 20G<110 207>
VStem: 50 196<1027.52 1351.78> 66 198<17.0372 90.72> 100 118<64.0938 496.641 642.812 1125.86> 614 194<24.439 114.844> 672 138<126 455.375> 676 104<126 717.167>
LayerCount: 2
Fore
SplineSet
142 -24 m 256,0,1
 66 -24 66 -24 66 14 c 0,2,3
 66 32 66 32 79 63 c 128,-1,4
 92 94 92 94 94 157 c 128,-1,5
 96 220 96 220 98 318 c 0,6,7
 100 516 100 516 100 672 c 0,8,9
 100 1216 100 1216 68 1236 c 0,10,11
 50 1248 50 1248 50 1262 c 0,12,13
 52 1368 52 1368 168 1368 c 0,14,15
 246 1368 246 1368 246 1322 c 2,16,17
 246 1322 246 1322 246 1320 c 2,18,19
 246 1298 246 1298 232 1212 c 128,-1,20
 218 1126 218 1126 218 940 c 128,-1,21
 218 754 218 754 226 694 c 1,22,-1
 236 642 l 1,23,-1
 274 720 l 1,24,25
 372 908 372 908 466 908 c 2,26,-1
 468 908 l 2,27,28
 566 908 566 908 647 864 c 128,-1,29
 728 820 728 820 756 720 c 0,30,31
 782 630 782 630 782 456 c 1,32,33
 780 436 780 436 780 416 c 2,34,35
 780 416 780 416 780 356 c 2,36,37
 780 204 780 204 794 150 c 0,38,39
 810 90 810 90 810 54 c 1,40,41
 808 52 808 52 808 50 c 0,42,43
 808 14 808 14 797 4 c 128,-1,44
 786 -6 786 -6 765 -6 c 128,-1,45
 744 -6 744 -6 696 0 c 0,46,47
 648 8 648 8 630 24 c 0,48,49
 614 38 614 38 614 58 c 1,50,51
 616 62 616 62 616 66 c 0,52,53
 620 92 620 92 646 106 c 1,54,-1
 672 126 l 1,55,-1
 676 364 l 1,56,57
 676 364 676 364 676 424 c 2,58,59
 676 536 676 536 670 590 c 0,60,61
 662 658 662 658 636 710 c 128,-1,62
 610 762 610 762 580 775 c 128,-1,63
 550 788 550 788 502 788 c 0,64,65
 470 788 470 788 422 764 c 0,66,67
 362 732 362 732 316 624 c 0,68,69
 258 486 258 486 256 480 c 0,70,71
 224 412 224 412 224 386 c 2,72,-1
 224 384 l 1,73,-1
 226 362 l 1,74,-1
 230 264 l 2,75,76
 236 142 236 142 248 98 c 2,77,-1
 264 28 l 1,78,-1
 230 2 l 2,79,80
 198 -24 198 -24 142 -24 c 256,0,1
EndSplineSet
Validated: 1
EndChar

StartChar: k
Encoding: 107 107 71
Width: 896
VWidth: 1894
Flags: W
HStem: -14 116<71.2422 151.625> 28 102<280.063 357.875> 860 20G<574 658> 1326 20G<172 212>
VStem: 80 200<1010.19 1293.26> 126 106<1193.91 1340.84> 160 106<126.005 216.504 360.002 826> 170 110<360.125 952> 532 190<761.951 820 824 860.408> 618 218<5.52905 121.003>
LayerCount: 2
Fore
SplineSet
836 44 m 1,0,1
 836 44 836 44 836 42 c 2,2,3
 836 -12 836 -12 748 -12 c 0,4,5
 658 -12 658 -12 638 5 c 128,-1,6
 618 22 618 22 618 30 c 2,7,8
 618 30 618 30 618 32 c 2,9,10
 618 42 618 42 632 66 c 0,11,12
 646 92 646 92 648 108 c 1,13,-1
 648 112 l 2,14,15
 648 128 648 128 640 148 c 0,16,17
 634 164 634 164 604 200 c 2,18,-1
 516 304 l 2,19,20
 456 372 456 372 442 372 c 128,-1,21
 428 372 428 372 391 310 c 128,-1,22
 354 248 354 248 318 222 c 128,-1,23
 282 196 282 196 274 186 c 128,-1,24
 266 176 266 176 266 160 c 0,25,26
 266 154 266 154 268 148 c 256,27,28
 272 126 272 126 278 126 c 0,29,30
 280 126 280 126 280 128 c 0,31,32
 282 130 282 130 286 130 c 0,33,34
 296 128 296 128 320 116 c 0,35,36
 352 100 352 100 366 72 c 0,37,38
 372 60 372 60 372 48 c 128,-1,39
 372 36 372 36 360 28 c 0,40,41
 340 12 340 12 257 -1 c 128,-1,42
 174 -14 174 -14 150 -14 c 128,-1,43
 126 -14 126 -14 108 -8 c 128,-1,44
 90 -2 90 -2 76 22 c 128,-1,45
 62 46 62 46 62 54 c 128,-1,46
 62 62 62 62 85 82 c 128,-1,47
 108 102 108 102 124 102 c 2,48,49
 124 102 124 102 126 102 c 2,50,51
 140 102 140 102 152 128 c 0,52,53
 160 150 160 150 160 278 c 2,54,55
 160 278 160 278 160 332 c 1,56,57
 160 332 160 332 160 382 c 2,58,59
 160 532 160 532 170 664 c 1,60,-1
 180 952 l 1,61,-1
 132 972 l 1,62,63
 86 1006 86 1006 82 1010 c 1,64,65
 80 1016 80 1016 80 1028 c 0,66,67
 80 1064 80 1064 98 1152 c 0,68,69
 124 1272 124 1272 126 1304 c 128,-1,70
 128 1336 128 1336 140 1341 c 128,-1,71
 152 1346 152 1346 192 1346 c 128,-1,72
 232 1346 232 1346 232 1328 c 256,73,74
 232 1310 232 1310 254 1281 c 128,-1,75
 276 1252 276 1252 280 1144 c 1,76,77
 280 1036 280 1036 284 976 c 0,78,79
 286 948 286 948 286 916 c 0,80,81
 284 884 284 884 284 848 c 0,82,83
 280 776 280 776 280 720 c 128,-1,84
 280 664 280 664 276 564 c 0,85,86
 272 468 272 468 266 424 c 0,87,88
 260 388 260 388 260 374 c 0,89,90
 260 372 260 372 260 370 c 0,91,92
 260 360 260 360 280 360 c 0,93,94
 310 360 310 360 314 392 c 0,95,96
 314 400 314 400 438 582 c 0,97,98
 482 646 482 646 508 714 c 0,99,100
 534 780 534 780 534 820 c 1,101,-1
 532 824 l 1,102,103
 532 824 532 824 532 834 c 2,104,105
 532 864 532 864 538 872 c 128,-1,106
 544 880 544 880 604 880 c 0,107,108
 612 880 612 880 620 880 c 0,109,110
 696 880 696 880 709 861 c 128,-1,111
 722 842 722 842 722 829 c 128,-1,112
 722 816 722 816 691 779 c 128,-1,113
 660 742 660 742 633 687 c 128,-1,114
 606 632 606 632 554 554 c 0,115,116
 516 498 516 498 516 476 c 0,117,118
 516 468 516 468 522 464 c 0,119,120
 542 452 542 452 560 433 c 128,-1,121
 578 414 578 414 644 312 c 128,-1,122
 710 210 710 210 772 143 c 128,-1,123
 834 76 834 76 836 44 c 1,0,1
EndSplineSet
Validated: 1
EndChar

StartChar: l
Encoding: 108 108 72
Width: 472
VWidth: 1894
Flags: W
HStem: 1336 20G<158 190>
VStem: 42 184<852 1190> 86 140<924.343 1327.12> 108 114<192.921 852 1022.11 1352.06>
LayerCount: 2
Fore
SplineSet
90 852 m 0,0,1
 88 852 88 852 86 852 c 0,2,3
 52 852 52 852 42 924 c 0,4,5
 42 934 42 934 74 1068 c 257,6,7
 86 1142 86 1142 86 1162 c 2,8,9
 86 1162 86 1162 86 1168 c 1,10,11
 86 1168 86 1168 86 1174 c 2,12,13
 86 1202 86 1202 100 1246 c 0,14,15
 104 1260 104 1260 107 1263 c 128,-1,16
 110 1266 110 1266 112 1280 c 0,17,18
 114 1296 114 1296 116 1298 c 0,19,20
 120 1302 120 1302 131 1329 c 128,-1,21
 142 1356 142 1356 174 1356 c 128,-1,22
 206 1356 206 1356 216 1328 c 128,-1,23
 226 1300 226 1300 226 1234 c 2,24,-1
 222 436 l 2,25,26
 222 220 222 220 240 192 c 128,-1,27
 258 164 258 164 272 160 c 0,28,29
 274 160 274 160 276 158 c 0,30,31
 292 156 292 156 312 172 c 1,32,33
 336 188 336 188 352 190 c 1,34,35
 410 190 410 190 410 137 c 128,-1,36
 410 84 410 84 375 51 c 128,-1,37
 340 18 340 18 299 18 c 128,-1,38
 258 18 258 18 239 26 c 128,-1,39
 220 34 220 34 183 67 c 128,-1,40
 146 100 146 100 128 138 c 0,41,42
 108 180 108 180 108 372 c 2,43,44
 108 372 108 372 108 612 c 1,45,46
 108 612 108 612 108 704 c 1,47,-1
 108 746 l 1,48,49
 114 800 114 800 114 850 c 1,50,51
 100 852 100 852 90 852 c 0,0,1
EndSplineSet
Validated: 1
EndChar

StartChar: m
Encoding: 109 109 73
Width: 1290
VWidth: 1894
Flags: W
HStem: 768 114<475.688 587.5> 784 104<921.062 1050.79>
VStem: 144 132<43.2461 195.875> 664 174<51.7576 137.308> 664 102<127.797 504.156> 1092 106<123.246 721.564>
LayerCount: 2
Fore
SplineSet
681 -20 m 128,-1,1
 636 -20 636 -20 636 16 c 0,2,3
 636 36 636 36 650 73 c 128,-1,4
 664 110 664 110 664 134 c 128,-1,5
 664 158 664 158 653 217 c 128,-1,6
 642 276 642 276 642 432 c 128,-1,7
 642 588 642 588 630 655 c 128,-1,8
 618 722 618 722 596 744 c 128,-1,9
 574 766 574 766 566 767 c 128,-1,10
 558 768 558 768 554 768 c 0,11,12
 502 768 502 768 418 658 c 0,13,14
 348 566 348 566 310 394 c 0,15,16
 282 266 282 266 278 196 c 0,17,18
 278 192 278 192 276 188 c 1,19,20
 276 130 276 130 296 102 c 0,21,22
 310 82 310 82 308 68 c 0,23,24
 308 62 308 62 304 58 c 1,25,26
 296 40 296 40 275 30 c 128,-1,27
 254 20 254 20 206 -8 c 128,-1,28
 158 -36 158 -36 130 -36 c 0,29,30
 98 -36 98 -36 88 -14 c 256,31,32
 86 -8 86 -8 86 9 c 128,-1,33
 86 26 86 26 114 66 c 0,34,35
 144 110 144 110 144 142 c 1,36,-1
 114 616 l 2,37,38
 110 656 110 656 92 690 c 1,39,-1
 62 734 l 1,40,-1
 100 792 l 2,41,42
 134 846 134 846 168 860 c 0,43,44
 202 876 202 876 211 876 c 128,-1,45
 220 876 220 876 237 858 c 128,-1,46
 254 840 254 840 257 816 c 128,-1,47
 260 792 260 792 260 766 c 128,-1,48
 260 740 260 740 255 705 c 128,-1,49
 250 670 250 670 250 648 c 128,-1,50
 250 626 250 626 268 626 c 0,51,52
 284 626 284 626 282 634 c 1,53,-1
 282 636 l 1,54,-1
 394 784 l 1,55,56
 394 792 394 792 466 837 c 128,-1,57
 538 882 538 882 578 882 c 128,-1,58
 618 882 618 882 658 848 c 128,-1,59
 698 814 698 814 713 762 c 128,-1,60
 728 710 728 710 749 710 c 128,-1,61
 770 710 770 710 808 768 c 128,-1,62
 846 826 846 826 873 857 c 128,-1,63
 900 888 900 888 944 888 c 128,-1,64
 988 888 988 888 1022 886 c 128,-1,65
 1056 884 1056 884 1085 857 c 128,-1,66
 1114 830 1114 830 1146 773 c 128,-1,67
 1178 716 1178 716 1188 663 c 128,-1,68
 1198 610 1198 610 1198 481 c 128,-1,69
 1198 352 1198 352 1192 301 c 128,-1,70
 1186 250 1186 250 1186 223 c 128,-1,71
 1186 196 1186 196 1207 171 c 128,-1,72
 1228 146 1228 146 1228 120 c 128,-1,73
 1228 94 1228 94 1196 65 c 128,-1,74
 1164 36 1164 36 1124 18 c 0,75,76
 1084 2 1084 2 1074 2 c 1,77,-1
 1074 6 l 1,78,79
 1066 6 1066 6 1044 24 c 0,80,81
 1022 44 1022 44 1022 50 c 0,82,83
 1022 52 1022 52 1022 54 c 0,84,85
 1022 64 1022 64 1030 74 c 0,86,87
 1038 86 1038 86 1047 123 c 128,-1,88
 1056 160 1056 160 1061 191 c 128,-1,89
 1066 222 1066 222 1073 270 c 128,-1,90
 1080 318 1080 318 1086 352 c 128,-1,91
 1092 386 1092 386 1092 530 c 128,-1,92
 1092 674 1092 674 1078 701 c 128,-1,93
 1064 728 1064 728 1035 756 c 128,-1,94
 1006 784 1006 784 986 784 c 128,-1,95
 966 784 966 784 926 745 c 128,-1,96
 886 706 886 706 862 661 c 128,-1,97
 838 616 838 616 802 469 c 128,-1,98
 766 322 766 322 766 268 c 128,-1,99
 766 214 766 214 776 176 c 0,100,101
 788 134 788 134 798 136 c 0,102,103
 806 138 806 138 824 108 c 0,104,105
 838 82 838 82 838 76 c 0,106,107
 838 74 838 74 836 70 c 0,108,109
 830 62 830 62 778 21 c 128,-1,0
 726 -20 726 -20 681 -20 c 128,-1,1
EndSplineSet
Validated: 1
EndChar

StartChar: n
Encoding: 110 110 74
Width: 1054
VWidth: 1894
Flags: W
HStem: -55 39<750 803> 772 108<415.157 686.063>
VStem: 62 190<734.25 854.839> 114 198<12.7246 203.182> 141 139<72.1865 275.417> 144 108<91.1914 534.688> 808 104<148 617.128>
LayerCount: 2
Fore
SplineSet
348 654 m 24,0,1
 308 594 308 594 280 470 c 1,2,3
 252 358 252 358 252 276 c 0,4,5
 252 258 252 258 280 154 c 1,6,7
 280 154 280 154 280 140 c 2,8,9
 280 102 280 102 308 80 c 0,10,11
 312 78 312 78 312 72 c 0,12,13
 312 54 312 54 264 10 c 0,14,15
 220 -32 220 -32 176 -32 c 0,16,17
 174 -32 174 -32 172 -32 c 0,18,19
 132 -30 132 -30 120 -12 c 0,20,21
 116 -4 116 -4 114 6 c 1,22,23
 114 18 114 18 122 32 c 0,24,25
 138 60 138 60 141 116 c 128,-1,26
 144 172 144 172 144 353 c 128,-1,27
 144 534 144 534 141 594 c 128,-1,28
 138 654 138 654 129 679 c 128,-1,29
 120 704 120 704 91 726 c 128,-1,30
 62 748 62 748 62 770 c 128,-1,31
 62 792 62 792 95 840 c 128,-1,32
 128 888 128 888 182 888 c 128,-1,33
 236 888 236 888 259 811 c 128,-1,34
 282 734 282 734 287 734 c 128,-1,35
 292 734 292 734 337 777 c 128,-1,36
 382 820 382 820 406 834 c 128,-1,37
 430 848 430 848 491 864 c 128,-1,38
 552 880 552 880 604 880 c 128,-1,39
 656 880 656 880 735 823 c 128,-1,40
 814 766 814 766 834 711 c 128,-1,41
 854 656 854 656 879 588 c 128,-1,42
 904 520 904 520 908 480 c 1,43,-1
 912 148 l 1,44,-1
 954 120 l 2,45,46
 994 92 994 92 994 78 c 0,47,48
 994 62 994 62 953 41 c 128,-1,49
 912 20 912 20 871 -17 c 128,-1,50
 830 -54 830 -54 803 -55 c 128,-1,51
 776 -56 776 -56 762 -40 c 0,52,53
 750 -28 750 -28 750 -16 c 1,54,55
 752 -16 752 -16 752 -12 c 0,56,57
 756 0 756 0 776 38 c 1,58,59
 800 74 800 74 804 108 c 128,-1,60
 808 142 808 142 808 284 c 128,-1,61
 808 426 808 426 803 473 c 128,-1,62
 798 520 798 520 772 595 c 128,-1,63
 746 670 746 670 690 724 c 0,64,65
 640 772 640 772 550 772 c 2,66,67
 550 772 550 772 528 772 c 1,68,69
 420 764 420 764 348 654 c 24,0,1
EndSplineSet
Validated: 1
EndChar

StartChar: o
Encoding: 111 111 75
Width: 892
VWidth: 1894
Flags: W
HStem: -30 120<312.822 594.497> 766 116<372.219 613.773>
VStem: 54 142<210.715 600.444> 718 120<259.728 647.929>
LayerCount: 2
Fore
SplineSet
454 882 m 128,-1,1
 510 882 510 882 576 854 c 257,2,3
 648 826 648 826 690 794 c 128,-1,4
 732 762 732 762 769 715 c 128,-1,5
 806 668 806 668 813 648 c 128,-1,6
 820 628 820 628 824 592 c 2,7,-1
 836 510 l 2,8,9
 838 496 838 496 838 484 c 0,10,11
 838 456 838 456 828 432 c 0,12,13
 814 400 814 400 814 353 c 128,-1,14
 814 306 814 306 782 218 c 128,-1,15
 750 130 750 130 716 72 c 0,16,17
 656 -30 656 -30 528 -30 c 128,-1,18
 400 -30 400 -30 310 13 c 128,-1,19
 220 56 220 56 175 93 c 128,-1,20
 130 130 130 130 94 222 c 128,-1,21
 58 314 58 314 54 338 c 1,22,23
 54 338 54 338 54 352 c 2,24,25
 54 384 54 384 64 458 c 0,26,27
 78 554 78 554 100 614 c 128,-1,28
 122 674 122 674 163 727 c 128,-1,29
 204 780 204 780 232 800 c 128,-1,30
 260 820 260 820 329 851 c 128,-1,0
 398 882 398 882 454 882 c 128,-1,1
518 766 m 0,31,32
 492 764 492 764 472 752 c 0,33,34
 454 740 454 740 438 742 c 0,35,36
 436 742 436 742 434 742 c 0,37,38
 416 744 416 744 400 744 c 128,-1,39
 384 744 384 744 353 727 c 128,-1,40
 322 710 322 710 260 629 c 128,-1,41
 198 548 198 548 196 472 c 1,42,43
 196 472 196 472 196 446 c 2,44,45
 196 384 196 384 204 316 c 0,46,47
 214 236 214 236 218 223 c 128,-1,48
 222 210 222 210 250 180 c 1,49,50
 348 90 348 90 482 90 c 2,51,52
 482 90 482 90 488 90 c 2,53,54
 548 90 548 90 596 124 c 0,55,56
 644 160 644 160 686 296 c 0,57,58
 718 404 718 404 718 476 c 1,59,60
 720 496 720 496 716 516 c 0,61,62
 704 600 704 600 668 657 c 128,-1,63
 632 714 632 714 588 740 c 128,-1,64
 544 766 544 766 518 766 c 0,31,32
EndSplineSet
Validated: 1
EndChar

StartChar: p
Encoding: 112 112 76
Width: 986
VWidth: 1894
Flags: W
HStem: -380 21G<60 112> 30 92<368.479 662.412> 812 110<471.219 705.855> 830 20G<137 220>
VStem: 110 128<-238 92.4985> 140 106<234.956 614.317> 826 102<349.844 504 506 657.798>
LayerCount: 2
Fore
SplineSet
96 782 m 0,0,1
 96 784 96 784 96 786 c 0,2,3
 96 850 96 850 178 850 c 0,4,5
 262 850 262 850 298 830 c 256,6,7
 322 818 322 818 342 818 c 1,8,9
 350 820 350 820 358 820 c 1,10,11
 384 828 384 828 428 866 c 256,12,13
 472 906 472 906 497 914 c 128,-1,14
 522 922 522 922 591 922 c 128,-1,15
 660 922 660 922 733 886 c 128,-1,16
 806 850 806 850 865 739 c 128,-1,17
 924 628 924 628 928 506 c 0,18,19
 928 498 928 498 928 490 c 0,20,21
 928 376 928 376 872 268 c 0,22,23
 812 152 812 152 793 129 c 128,-1,24
 774 106 774 106 733 80 c 128,-1,25
 692 54 692 54 658 42 c 128,-1,26
 624 30 624 30 551 30 c 128,-1,27
 478 30 478 30 401 62 c 128,-1,28
 324 94 324 94 282 94 c 2,29,-1
 236 94 l 1,30,31
 236 -72 236 -72 238 -238 c 1,32,-1
 282 -262 l 1,33,34
 316 -284 316 -284 318 -296 c 0,35,36
 318 -308 318 -308 294 -336 c 0,37,38
 268 -364 268 -364 200 -370 c 1,39,40
 136 -380 136 -380 88 -380 c 0,41,42
 86 -380 86 -380 84 -380 c 0,43,44
 36 -380 36 -380 36 -348 c 2,45,-1
 36 -346 l 2,46,47
 36 -316 36 -316 72 -292 c 128,-1,48
 108 -268 108 -268 110 -245 c 128,-1,49
 112 -222 112 -222 114 -96 c 128,-1,50
 116 30 116 30 130 118 c 0,51,52
 140 174 140 174 140 310 c 0,53,54
 140 378 140 378 138 464 c 0,55,56
 130 726 130 726 114 735 c 128,-1,57
 98 744 98 744 96 782 c 0,0,1
246 516 m 1,58,59
 246 516 246 516 246 370 c 1,60,61
 250 264 250 264 269 234 c 128,-1,62
 288 204 288 204 354 170 c 128,-1,63
 420 136 420 136 447 129 c 128,-1,64
 474 122 474 122 536 122 c 128,-1,65
 598 122 598 122 637 146 c 128,-1,66
 676 170 676 170 727 249 c 128,-1,67
 778 328 778 328 802 404 c 0,68,69
 826 476 826 476 826 504 c 1,70,-1
 824 506 l 1,71,72
 824 534 824 534 820 561 c 128,-1,73
 816 588 816 588 781 660 c 128,-1,74
 746 732 746 732 715 760 c 128,-1,75
 684 788 684 788 636 800 c 128,-1,76
 588 812 588 812 567 812 c 128,-1,77
 546 812 546 812 518 798 c 0,78,79
 460 770 460 770 450 734 c 0,80,81
 446 718 446 718 334 676 c 1,82,83
 262 646 262 646 256 616 c 0,84,85
 246 562 246 562 246 526 c 2,86,87
 246 526 246 526 246 516 c 1,58,59
EndSplineSet
Validated: 1
EndChar

StartChar: q
Encoding: 113 113 77
Width: 996
VWidth: 1894
Flags: W
HStem: 4 106<240.718 467.19> 754 110<283.422 563.579>
VStem: 60 88<196.422 573.587> 646 104<-210 187.744 354.195 622.718> 648 112<357.938 622.718>
LayerCount: 2
Fore
SplineSet
726 810 m 0,0,1
 762 810 762 810 762 769 c 128,-1,2
 762 728 762 728 760 678.5 c 128,-1,3
 758 629 758 629 748 526 c 0,4,5
 740 451 740 451 740 424 c 2,6,7
 740 424 740 424 740 416 c 1,8,9
 741 384 741 384 744 322 c 0,10,11
 757 86 757 86 758 82 c 1,12,13
 750 74 750 74 750 -28 c 0,14,15
 750 -96 750 -96 754 -208 c 1,16,17
 754 -208 754 -208 754 -210 c 1,18,19
 758 -210 758 -210 772 -176 c 1,20,-1
 806 10 l 1,21,22
 806 24 806 24 839 59 c 128,-1,23
 872 94 872 94 880 102 c 0,24,25
 882 104 882 104 886 104 c 0,26,27
 896 104 896 104 918 94 c 2,28,-1
 954 78 l 1,29,-1
 948 16 l 2,30,31
 943 -37 943 -37 928 -74 c 0,32,33
 916 -104 916 -104 863 -236 c 128,-1,34
 810 -368 810 -368 787 -385 c 128,-1,35
 764 -402 764 -402 754 -402 c 128,-1,36
 744 -402 744 -402 718 -397 c 128,-1,37
 692 -392 692 -392 680 -387 c 128,-1,38
 668 -382 668 -382 658 -364 c 128,-1,39
 648 -346 648 -346 640 -310 c 1,40,-1
 634 -28 l 1,41,42
 646 94 646 94 646 148 c 0,43,44
 646 180 646 180 642 188 c 256,45,46
 634 200 634 200 624 200 c 0,47,48
 606 200 606 200 582 148 c 0,49,50
 532 40 532 40 508 30 c 0,51,52
 447 4 447 4 396 4 c 0,53,54
 344 4 344 4 243 36 c 128,-1,55
 142 68 142 68 98 122 c 1,56,57
 62 169 62 169 56 268 c 0,58,59
 54 300 54 300 48 380 c 1,60,61
 57 419 57 419 60 504 c 0,62,63
 61 530 61 530 96 612 c 0,64,65
 124 678 124 678 152 713 c 128,-1,66
 180 748 180 748 251 798 c 128,-1,67
 322 848 322 848 353 856 c 128,-1,68
 384 864 384 864 444 864 c 128,-1,69
 504 864 504 864 565.5 828 c 128,-1,70
 627 792 627 792 640 792 c 0,71,72
 642 792 642 792 644 792 c 0,73,74
 656 792 656 792 680 800 c 0,75,76
 708 810 708 810 726 810 c 0,0,1
630 462 m 128,-1,78
 630 528 630 528 639 560 c 128,-1,79
 648 592 648 592 648 603 c 128,-1,80
 648 614 648 614 644 623 c 128,-1,81
 640 632 640 632 580 693 c 128,-1,82
 520 754 520 754 483 754 c 128,-1,83
 446 754 446 754 424 748 c 1,84,85
 366 742 366 742 356 742 c 0,86,87
 233 732 233 732 154 574 c 0,88,89
 148 562 148 562 148 396 c 0,90,91
 148 360 148 360 163.5 284.5 c 128,-1,92
 179 209 179 209 186 196 c 0,93,94
 198 174 198 174 272 138 c 0,95,96
 330 110 330 110 364 110 c 1,97,98
 376 108 376 108 388 112 c 0,99,100
 428 124 428 124 466 154 c 128,-1,101
 504 184 504 184 551 268 c 128,-1,102
 598 352 598 352 614 374 c 128,-1,77
 630 396 630 396 630 462 c 128,-1,78
EndSplineSet
Validated: 1
EndChar

StartChar: r
Encoding: 114 114 78
Width: 736
VWidth: 1894
Flags: W
HStem: 650 280<486.625 642.025> 696 160<88.2544 162>
VStem: 92 228<24.457 116.201> 162 102<140 656.883>
LayerCount: 2
Fore
SplineSet
470 912 m 1,0,1
 500 930 500 930 556 930 c 128,-1,2
 612 930 612 930 643 909 c 128,-1,3
 674 888 674 888 674 804 c 0,4,5
 674 650 674 650 584 650 c 0,6,7
 548 650 548 650 512 677 c 128,-1,8
 476 704 476 704 464 704 c 2,9,10
 464 704 464 704 448 704 c 1,11,12
 412 714 412 714 400 714 c 0,13,14
 376 714 376 714 316 664 c 0,15,16
 268 624 268 624 264 442 c 1,17,-1
 264 428 l 2,18,19
 264 232 264 232 269 204 c 128,-1,20
 274 176 274 176 296 146 c 256,21,22
 320 112 320 112 320 108 c 2,23,-1
 320 102 l 2,24,25
 320 88 320 88 305 58 c 128,-1,26
 290 28 290 28 268 20 c 128,-1,27
 246 12 246 12 225 12 c 128,-1,28
 204 12 204 12 156 20 c 0,29,30
 106 28 106 28 92 56 c 1,31,32
 92 74 92 74 122 102 c 2,33,-1
 162 140 l 1,34,-1
 162 696 l 1,35,-1
 136 696 l 2,36,37
 110 696 110 696 86 722 c 128,-1,38
 62 748 62 748 62 758 c 128,-1,39
 62 768 62 768 70 786 c 0,40,41
 104 856 104 856 242 856 c 2,42,43
 242 856 242 856 270 856 c 2,44,45
 294 856 294 856 322 836 c 2,46,-1
 356 812 l 1,47,-1
 470 912 l 1,0,1
EndSplineSet
Validated: 1
EndChar

StartChar: s
Encoding: 115 115 79
Width: 766
VWidth: 1894
Flags: W
HStem: -38 104<300.657 511.218> 666 190<525.153 622.642> 768 120<294.287 510.646>
VStem: 104 116<570.529 691.64> 568 96<130.641 380.43>
LayerCount: 2
Fore
SplineSet
104 612 m 1,0,1
 106 644 106 644 107 655 c 128,-1,2
 108 666 108 666 114 687 c 128,-1,3
 120 708 120 708 153 762 c 128,-1,4
 186 816 186 816 235 848 c 128,-1,5
 284 880 284 880 300 884 c 128,-1,6
 316 888 316 888 337 888 c 128,-1,7
 358 888 358 888 398 885 c 128,-1,8
 438 882 438 882 490 869 c 128,-1,9
 542 856 542 856 551 856 c 128,-1,10
 560 856 560 856 569 857 c 128,-1,11
 578 858 578 858 605 876 c 128,-1,12
 632 894 632 894 666 894 c 128,-1,13
 700 894 700 894 700 865 c 128,-1,14
 700 836 700 836 661 767 c 128,-1,15
 622 698 622 698 590 682 c 1,16,17
 564 666 564 666 556 666 c 2,18,-1
 544 666 l 1,19,20
 532 670 532 670 527 700 c 128,-1,21
 522 730 522 730 511 738 c 128,-1,22
 500 746 500 746 447 757 c 128,-1,23
 394 768 394 768 375 768 c 128,-1,24
 356 768 356 768 342 764 c 128,-1,25
 328 760 328 760 274 702 c 128,-1,26
 220 644 220 644 220 605 c 128,-1,27
 220 566 220 566 312 566 c 0,28,29
 314 566 314 566 316 567 c 128,-1,30
 318 568 318 568 367 568 c 128,-1,31
 416 568 416 568 510 526 c 128,-1,32
 604 484 604 484 634 431 c 128,-1,33
 664 378 664 378 664 249 c 128,-1,34
 664 120 664 120 638 84 c 1,35,36
 572 -34 572 -34 484 -38 c 0,37,38
 454 -38 454 -38 384 -16 c 1,39,-1
 208 32 l 1,40,-1
 164 -24 l 2,41,42
 126 -72 126 -72 113 -72 c 128,-1,43
 100 -72 100 -72 82 -63 c 128,-1,44
 64 -54 64 -54 64 -24 c 128,-1,45
 64 6 64 6 69 93 c 128,-1,46
 74 180 74 180 83 210 c 128,-1,47
 92 240 92 240 107 250 c 128,-1,48
 122 260 122 260 134 260 c 128,-1,49
 146 260 146 260 168 245 c 128,-1,50
 190 230 190 230 240 170 c 128,-1,51
 290 110 290 110 310 99 c 128,-1,52
 330 88 330 88 384 77 c 128,-1,53
 438 66 438 66 447 66 c 128,-1,54
 456 66 456 66 465 68 c 128,-1,55
 474 70 474 70 497 92 c 128,-1,56
 520 114 520 114 544 179 c 128,-1,57
 568 244 568 244 568 281 c 128,-1,58
 568 318 568 318 558 336 c 128,-1,59
 548 354 548 354 520 384 c 2,60,-1
 472 434 l 1,61,-1
 228 448 l 1,62,63
 200 452 200 452 152 488 c 128,-1,64
 104 524 104 524 104 612 c 1,0,1
EndSplineSet
Validated: 1
EndChar

StartChar: t
Encoding: 116 116 80
Width: 638
VWidth: 1894
Flags: W
HStem: -21 107<444.648 565.298> 542 118<100 215.312 349.469 555.173> 546 146<348 547.174> 1340 20G<294 331>
VStem: 174 182<791.068 1137.73> 198 126<143.949 511.781> 232 124<697.558 815.362> 260 96<1115.75 1359.47>
LayerCount: 2
Fore
SplineSet
562 20 m 8,0,1
 532 -14 532 -14 514 -21 c 128,-1,2
 496 -28 496 -28 443 -28 c 128,-1,3
 390 -28 390 -28 342 4 c 256,4,5
 294 38 294 38 272 68 c 128,-1,6
 250 98 250 98 229 163 c 128,-1,7
 208 228 208 228 200 288 c 0,8,9
 198 310 198 310 198 332 c 0,10,11
 198 372 198 372 206 416 c 0,12,13
 216 468 216 468 216 498 c 2,14,15
 216 498 216 498 216 512 c 1,16,17
 214 536 214 536 154 542 c 0,18,19
 106 548 106 548 60 572 c 1,20,-1
 60 634 l 25,21,-1
 100 660 l 1,22,23
 154 676 154 676 224 684 c 16,24,25
 232 686 232 686 232 710 c 0,26,27
 232 728 232 728 228 756 c 0,28,29
 224 798 224 798 208 798 c 0,30,31
 182 798 182 798 174 872 c 0,32,33
 174 880 174 880 174 888 c 2,34,35
 174 888 174 888 174 898 c 2,36,37
 174 926 174 926 184 960 c 0,38,39
 200 1008 200 1008 222 1161 c 128,-1,40
 244 1314 244 1314 260 1338 c 1,41,42
 278 1358 278 1358 310 1360 c 1,43,44
 352 1360 352 1360 356 1308 c 1,45,46
 356 1308 356 1308 356 1290 c 2,47,48
 356 1264 356 1264 352 1216 c 0,49,50
 350 1184 350 1184 350 1132 c 0,51,52
 350 1072 350 1072 354 976 c 0,53,54
 356 902 356 902 356 852 c 0,55,56
 356 786 356 786 352 766 c 1,57,-1
 348 698 l 1,58,-1
 442 692 l 2,59,60
 522 688 522 688 548 674 c 0,61,62
 572 660 572 660 576 620 c 0,63,64
 576 616 576 616 578 612 c 1,65,66
 578 580 578 580 556 566 c 0,67,68
 530 550 530 550 444 546 c 2,69,-1
 344 542 l 1,70,-1
 330 486 l 2,71,72
 322 450 322 450 322 392 c 0,73,74
 322 358 322 358 324 318 c 0,75,76
 342 100 342 100 450 86 c 0,77,78
 572 72 572 72 572 40 c 0,79,80
 572 30 572 30 562 20 c 8,0,1
EndSplineSet
Validated: 1
EndChar

StartChar: u
Encoding: 117 117 81
Width: 994
VWidth: 1894
Flags: W
HStem: -36 100<283.652 518.484> 852 20G<158 252 767 815>
VStem: 96 120<230.187 705.156> 610 238<709.179 815.523> 701 103<330.812 444 448 683.813>
LayerCount: 2
Fore
SplineSet
252 872 m 1,0,-1
 222 310 l 1,1,2
 216 272 216 272 216 250 c 2,3,4
 216 250 216 250 216 240 c 2,5,6
 216 236 216 236 214 230 c 1,7,8
 216 212 216 212 220 194 c 0,9,10
 224 172 224 172 274 118 c 128,-1,11
 324 64 324 64 398 64 c 128,-1,12
 472 64 472 64 510 99 c 128,-1,13
 548 134 548 134 579 182 c 128,-1,14
 610 230 610 230 618 260 c 128,-1,15
 626 290 626 290 657 332 c 128,-1,16
 688 374 688 374 693 399 c 128,-1,17
 698 424 698 424 701 534 c 128,-1,18
 704 644 704 644 708 662 c 0,19,20
 710 670 710 670 712 674 c 0,21,22
 712 678 712 678 710 684 c 0,23,24
 706 690 706 690 685 694 c 128,-1,25
 664 698 664 698 637 724 c 128,-1,26
 610 750 610 750 610 764 c 128,-1,27
 610 778 610 778 680 838 c 128,-1,28
 750 898 750 898 784 898 c 0,29,30
 846 898 846 898 848 844 c 0,31,32
 848 812 848 812 826 648 c 1,33,34
 804 500 804 500 804 454 c 2,35,-1
 804 448 l 1,36,-1
 806 444 l 1,37,38
 806 404 806 404 816 356 c 128,-1,39
 826 308 826 308 828 241 c 128,-1,40
 830 174 830 174 848 162 c 1,41,-1
 934 60 l 1,42,-1
 902 26 l 2,43,44
 882 4 882 4 870 0 c 0,45,46
 866 -2 866 -2 858 -2 c 0,47,48
 844 -2 844 -2 824 4 c 0,49,50
 792 12 792 12 771 28 c 128,-1,51
 750 44 750 44 734 85 c 128,-1,52
 718 126 718 126 701 126 c 128,-1,53
 684 126 684 126 617 45 c 128,-1,54
 550 -36 550 -36 407 -36 c 128,-1,55
 264 -36 264 -36 186 32 c 256,56,57
 140 72 140 72 120 112 c 128,-1,58
 100 152 100 152 96 288 c 1,59,-1
 100 568 l 1,60,61
 98 670 98 670 80 701 c 128,-1,62
 62 732 62 732 62 743 c 128,-1,63
 62 754 62 754 74 786 c 0,64,65
 112 872 112 872 204 872 c 2,66,-1
 252 872 l 1,0,-1
EndSplineSet
Validated: 1
EndChar

StartChar: v
Encoding: 118 118 82
Width: 1034
VWidth: 1894
Flags: W
HStem: 824 20G<827 907>
VStem: 800 170<671.93 830.137>
LayerCount: 2
Fore
SplineSet
844 844 m 0,0,1
 970 844 970 844 970 760 c 0,2,3
 970 716 970 716 947 697 c 128,-1,4
 924 678 924 678 857 557 c 128,-1,5
 790 436 790 436 777 417 c 128,-1,6
 764 398 764 398 756 368 c 128,-1,7
 748 338 748 338 686 238 c 128,-1,8
 624 138 624 138 603 92 c 128,-1,9
 582 46 582 46 561 26 c 128,-1,10
 540 6 540 6 529 6 c 128,-1,11
 518 6 518 6 496 15 c 128,-1,12
 474 24 474 24 422 126 c 1,13,14
 378 226 378 226 273 379 c 128,-1,15
 168 532 168 532 147 591 c 128,-1,16
 126 650 126 650 96 665 c 128,-1,17
 66 680 66 680 61 690 c 128,-1,18
 56 700 56 700 56 741 c 128,-1,19
 56 782 56 782 77 812 c 128,-1,20
 98 842 98 842 138 842 c 128,-1,21
 178 842 178 842 202 814 c 128,-1,22
 226 786 226 786 237 753 c 128,-1,23
 248 720 248 720 266 636 c 0,24,25
 284 548 284 548 342 463 c 128,-1,26
 400 378 400 378 452 296 c 128,-1,27
 504 214 504 214 526 214 c 128,-1,28
 548 214 548 214 674 456 c 128,-1,29
 800 698 800 698 800 762 c 128,-1,30
 800 826 800 826 805 835 c 128,-1,31
 810 844 810 844 844 844 c 0,0,1
EndSplineSet
Validated: 1
EndChar

StartChar: w
Encoding: 119 119 83
Width: 1366
VWidth: 1894
Flags: W
HStem: 15 153<469.367 526.718> 848 20G<164.5 249.5 1177.5 1264.5>
VStem: 56 182<721.369 825.5> 1118 190<716.722 858.145>
LayerCount: 2
Fore
SplineSet
1221 868 m 128,-1,1
 1308 868 1308 868 1308 820 c 0,2,3
 1308 796 1308 796 1286 762 c 128,-1,4
 1264 728 1264 728 1231 633 c 128,-1,5
 1198 538 1198 538 1126 364 c 128,-1,6
 1054 190 1054 190 1035 128 c 128,-1,7
 1016 66 1016 66 980 37 c 128,-1,8
 944 8 944 8 917 8 c 128,-1,9
 890 8 890 8 868 52 c 128,-1,10
 846 96 846 96 781 165 c 128,-1,11
 716 234 716 234 700 234 c 0,12,13
 684 232 684 232 640 136 c 128,-1,14
 596 40 596 40 592 40 c 0,15,16
 532 16 532 16 505 15 c 128,-1,17
 478 14 478 14 456 31 c 128,-1,18
 434 48 434 48 389 146 c 128,-1,19
 344 244 344 244 324 280 c 128,-1,20
 304 316 304 316 289 356 c 128,-1,21
 274 396 274 396 212 505 c 128,-1,22
 150 614 150 614 143 658 c 128,-1,23
 136 702 136 702 128 715 c 128,-1,24
 120 728 120 728 98 738 c 256,25,26
 60 758 60 758 58 785 c 128,-1,27
 56 812 56 812 56 821 c 128,-1,28
 56 830 56 830 60 835 c 128,-1,29
 64 840 64 840 93 847 c 128,-1,30
 122 854 122 854 207 854 c 128,-1,31
 292 854 292 854 304 822 c 1,32,-1
 304 820 l 2,33,34
 304 808 304 808 271 788 c 128,-1,35
 238 768 238 768 238 737 c 128,-1,36
 238 706 238 706 281 608 c 128,-1,37
 324 510 324 510 355 432 c 128,-1,38
 386 354 386 354 439 262 c 128,-1,39
 492 170 492 170 504 168 c 1,40,-1
 506 168 l 2,41,42
 518 168 518 168 527 180 c 128,-1,43
 536 192 536 192 564 267 c 128,-1,44
 592 342 592 342 643 420 c 128,-1,45
 694 498 694 498 725 498 c 128,-1,46
 756 498 756 498 769 477 c 128,-1,47
 782 456 782 456 792 383 c 128,-1,48
 802 310 802 310 855 248 c 128,-1,49
 908 186 908 186 922 186 c 2,50,-1
 924 186 l 1,51,-1
 948 194 l 2,52,53
 966 202 966 202 1078 528 c 0,54,55
 1118 640 1118 640 1118 716 c 128,-1,56
 1118 792 1118 792 1122 810 c 0,57,0
 1134 868 1134 868 1221 868 c 128,-1,1
EndSplineSet
Validated: 1
EndChar

StartChar: x
Encoding: 120 120 84
Width: 870
VWidth: 1894
Flags: W
HStem: 838 20G<107 223 546 689>
VStem: 60 182<658.438 833> 532 222<735.883 863.435>
LayerCount: 2
Fore
SplineSet
754 841 m 128,-1,1
 754 808 754 808 688 697 c 128,-1,2
 622 586 622 586 559 488 c 128,-1,3
 496 390 496 390 496 378 c 128,-1,4
 496 366 496 366 560 294 c 128,-1,5
 624 222 624 222 652 186 c 128,-1,6
 680 150 680 150 727 120 c 128,-1,7
 774 90 774 90 789 70 c 128,-1,8
 804 50 804 50 804 18 c 128,-1,9
 804 -14 804 -14 784 -26 c 0,10,11
 776 -30 776 -30 768 -30 c 0,12,13
 752 -32 752 -32 730 -20 c 0,14,15
 694 0 694 0 656 6 c 256,16,17
 618 12 618 12 601 28 c 128,-1,18
 584 44 584 44 579 88 c 128,-1,19
 574 132 574 132 508 199 c 128,-1,20
 442 266 442 266 428 266 c 128,-1,21
 414 266 414 266 383 223 c 128,-1,22
 352 180 352 180 345 158 c 128,-1,23
 338 136 338 136 338 91 c 128,-1,24
 338 46 338 46 333 33 c 128,-1,25
 328 20 328 20 283 -10 c 128,-1,26
 238 -40 238 -40 188 -40 c 1,27,-1
 144 -36 l 1,28,29
 108 -24 108 -24 108 2 c 2,30,31
 108 2 108 2 108 4 c 2,32,33
 108 16 108 16 119 36 c 128,-1,34
 130 56 130 56 151 68 c 128,-1,35
 172 80 172 80 224 153 c 128,-1,36
 276 226 276 226 298 270 c 128,-1,37
 320 314 320 314 320 329 c 128,-1,38
 320 344 320 344 316 358 c 128,-1,39
 312 372 312 372 270 414 c 128,-1,40
 228 456 228 456 160 564 c 128,-1,41
 92 672 92 672 87 700 c 128,-1,42
 82 728 82 728 71 758 c 128,-1,43
 60 788 60 788 60 808 c 0,44,45
 60 858 60 858 154 858 c 0,46,47
 158 858 158 858 162 858 c 2,48,-1
 204 858 l 2,49,50
 242 858 242 858 280 849 c 128,-1,51
 318 840 318 840 318 819 c 128,-1,52
 318 798 318 798 280 766 c 128,-1,53
 242 734 242 734 242 700 c 0,54,55
 242 668 242 668 280 592 c 0,56,57
 316 516 316 516 348 484 c 0,58,59
 370 462 370 462 388 464 c 0,60,61
 396 464 396 464 402 468 c 0,62,63
 424 482 424 482 486 604 c 1,64,-1
 552 728 l 1,65,66
 532 780 532 780 532 816 c 0,67,68
 532 846 532 846 546 864 c 1,69,-1
 624 874 l 1,70,0
 754 874 754 874 754 841 c 128,-1,1
EndSplineSet
Validated: 1
EndChar

StartChar: y
Encoding: 121 121 85
Width: 900
VWidth: 1894
Flags: W
HStem: -380 138<270.183 467.086> 830 20G<248.5 253.5 756 807>
VStem: 156 126<257.807 636> 558 286<698.122 811.24> 670 140<329.303 697.238>
LayerCount: 2
Fore
SplineSet
558 756 m 0,0,1
 558 774 558 774 588 801 c 128,-1,2
 618 828 618 828 680 839 c 128,-1,3
 742 850 742 850 770 850 c 0,4,5
 844 850 844 850 844 810 c 2,6,7
 844 810 844 810 844 808 c 2,8,9
 844 766 844 766 818 724 c 0,10,11
 806 702 806 702 806 668 c 1,12,13
 804 648 804 648 808 624 c 0,14,15
 810 618 810 618 810 610 c 0,16,17
 810 516 810 516 712 80 c 0,18,19
 668 -116 668 -116 588 -236 c 128,-1,20
 508 -356 508 -356 430 -368 c 128,-1,21
 352 -380 352 -380 338 -380 c 128,-1,22
 324 -380 324 -380 309 -379 c 128,-1,23
 294 -378 294 -378 222 -332 c 128,-1,24
 150 -286 150 -286 139 -273 c 128,-1,25
 128 -260 128 -260 128 -249 c 128,-1,26
 128 -238 128 -238 136 -219 c 128,-1,27
 144 -200 144 -200 153 -194 c 128,-1,28
 162 -188 162 -188 191 -188 c 128,-1,29
 220 -188 220 -188 244 -205 c 128,-1,30
 268 -222 268 -222 298 -222 c 0,31,32
 324 -222 324 -222 376 -240 c 0,33,34
 384 -242 384 -242 394 -242 c 0,35,36
 440 -242 440 -242 494 -162 c 1,37,38
 548 -68 548 -68 548 -52 c 0,39,40
 548 -48 548 -48 548 -44 c 0,41,42
 548 -36 548 -36 546 -34 c 0,43,44
 534 4 534 4 433 42 c 128,-1,45
 332 80 332 80 266 144 c 0,46,47
 202 206 202 206 186 254 c 1,48,49
 156 366 156 366 156 510 c 2,50,-1
 156 636 l 1,51,-1
 106 680 l 2,52,53
 58 722 58 722 56 748 c 0,54,55
 56 750 56 750 56 752 c 0,56,57
 56 780 56 780 82 810 c 0,58,59
 114 846 114 846 180 857 c 128,-1,60
 246 868 246 868 251 868 c 128,-1,61
 256 868 256 868 300 856 c 128,-1,62
 344 844 344 844 344 817 c 128,-1,63
 344 790 344 790 318 770 c 0,64,65
 290 750 290 750 288 726 c 0,66,67
 282 678 282 678 282 634 c 0,68,69
 282 600 282 600 286 568 c 257,70,71
 296 394 296 394 302 324 c 1,72,73
 314 234 314 234 412 186 c 0,74,75
 512 138 512 138 540 138 c 0,76,77
 566 138 566 138 593 151 c 128,-1,78
 620 164 620 164 648 328 c 0,79,80
 670 458 670 458 670 550 c 1,81,82
 668 574 668 574 668 594 c 0,83,84
 660 698 660 698 622 698 c 2,85,-1
 600 698 l 2,86,87
 558 698 558 698 558 756 c 0,0,1
EndSplineSet
Validated: 1
EndChar

StartChar: z
Encoding: 122 122 86
Width: 778
VWidth: 1894
Flags: W
HStem: -394 118<228 448.138> -390 242<587.107 689.099> 724 108<315.409 512.256> 846 20G<135 318.235 610 658>
VStem: 46 676<-334.742 -303.224>
LayerCount: 2
Fore
SplineSet
634 884 m 128,-1,1
 682 884 682 884 702 862 c 128,-1,2
 722 840 722 840 722 810 c 128,-1,3
 722 780 722 780 683 738 c 128,-1,4
 644 696 644 696 639 680 c 128,-1,5
 634 664 634 664 581 550 c 128,-1,6
 528 436 528 436 528 422 c 128,-1,7
 528 408 528 408 544 377 c 128,-1,8
 560 346 560 346 560 336 c 0,9,10
 560 310 560 310 504 299 c 128,-1,11
 448 288 448 288 433 274 c 128,-1,12
 418 260 418 260 391 215 c 128,-1,13
 364 170 364 170 316 83 c 128,-1,14
 268 -4 268 -4 248 -102 c 128,-1,15
 228 -200 228 -200 228 -238 c 2,16,-1
 228 -276 l 1,17,-1
 298 -276 l 2,18,19
 370 -276 370 -276 436 -249 c 128,-1,20
 502 -222 502 -222 541 -212 c 128,-1,21
 580 -202 580 -202 611 -175 c 128,-1,22
 642 -148 642 -148 668 -148 c 128,-1,23
 694 -148 694 -148 708 -162 c 128,-1,24
 722 -176 722 -176 722 -204 c 0,25,26
 722 -208 722 -208 722 -212 c 0,27,28
 722 -240 722 -240 712 -288 c 0,29,30
 700 -344 700 -344 668 -368 c 0,31,32
 640 -390 640 -390 614 -390 c 0,33,34
 612 -390 612 -390 610 -390 c 2,35,-1
 604 -390 l 1,36,37
 572 -388 572 -388 554 -362 c 256,38,39
 536 -338 536 -338 516 -336 c 1,40,41
 516 -336 516 -336 510 -336 c 2,42,43
 492 -336 492 -336 452 -348 c 1,44,45
 408 -364 408 -364 298 -379 c 128,-1,46
 188 -394 188 -394 134 -394 c 128,-1,47
 80 -394 80 -394 63 -379 c 128,-1,48
 46 -364 46 -364 46 -337 c 128,-1,49
 46 -310 46 -310 62 -303 c 128,-1,50
 78 -296 78 -296 92 -179 c 128,-1,51
 106 -62 106 -62 178 70 c 0,52,53
 250 204 250 204 256 224 c 0,54,55
 260 238 260 238 260 252 c 0,56,57
 260 260 260 260 260 268 c 0,58,59
 256 292 256 292 256 302 c 0,60,61
 256 360 256 360 307 381 c 128,-1,62
 358 402 358 402 381 432 c 128,-1,63
 404 462 404 462 431 514 c 128,-1,64
 458 566 458 566 470 589 c 128,-1,65
 482 612 482 612 488 627 c 128,-1,66
 494 642 494 642 502 664 c 128,-1,67
 510 686 510 686 512 692 c 0,68,69
 514 696 514 696 514 700 c 0,70,71
 514 706 514 706 510 708 c 1,72,73
 502 720 502 720 498 720 c 2,74,-1
 496 720 l 1,75,-1
 496 718 l 1,76,77
 490 718 490 718 474 724 c 1,78,-1
 250 724 l 1,79,80
 228 720 228 720 222 699 c 128,-1,81
 216 678 216 678 181 640 c 128,-1,82
 146 602 146 602 130 602 c 0,83,84
 102 602 102 602 102 725 c 128,-1,85
 102 848 102 848 111 857 c 128,-1,86
 120 866 120 866 150 866 c 1,87,-1
 436 832 l 1,88,89
 458 832 458 832 522 858 c 128,-1,0
 586 884 586 884 634 884 c 128,-1,1
EndSplineSet
Validated: 1
EndChar

StartChar: braceleft
Encoding: 123 123 87
Width: 668
VWidth: 1894
Flags: W
HStem: -218 58<682.32 732.118> 1456 88<507.359 717.241>
VStem: 292 120<-57.0762 499.5 883.564 1367.52> 310 122<768 1356>
LayerCount: 2
Fore
SplineSet
310 794 m 1,0,-1
 292 1234 l 1,1,2
 292 1332 292 1332 296 1356 c 128,-1,3
 300 1380 300 1380 331 1433 c 128,-1,4
 362 1486 362 1486 468 1515 c 128,-1,5
 574 1544 574 1544 634 1544 c 128,-1,6
 694 1544 694 1544 718 1518 c 128,-1,7
 742 1492 742 1492 742 1474 c 128,-1,8
 742 1456 742 1456 740 1456 c 0,9,10
 562 1450 562 1450 487 1402 c 128,-1,11
 412 1354 412 1354 412 1088 c 0,12,13
 412 962 412 962 422 916 c 128,-1,14
 432 870 432 870 432 841 c 128,-1,15
 432 812 432 812 427 768 c 128,-1,16
 422 724 422 724 381 686 c 128,-1,17
 340 648 340 648 338 640 c 128,-1,18
 336 632 336 632 334 624 c 128,-1,19
 332 616 332 616 350 598 c 0,20,21
 416 526 416 526 416 348 c 1,22,-1
 408 146 l 1,23,24
 408 -90 408 -90 494 -108 c 2,25,-1
 754 -160 l 1,26,27
 740 -218 740 -218 698 -218 c 2,28,-1
 696 -218 l 2,29,30
 420 -218 420 -218 384 -192 c 1,31,-1
 312 -58 l 2,32,33
 298 -30 298 -30 292 198 c 0,34,35
 286 408 286 408 282 441 c 128,-1,36
 278 474 278 474 258 493 c 128,-1,37
 238 512 238 512 231 512 c 128,-1,38
 224 512 224 512 223 510 c 128,-1,39
 222 508 222 508 214 508 c 128,-1,40
 206 508 206 508 188 520 c 128,-1,41
 170 532 170 532 153 557 c 128,-1,42
 136 582 136 582 136 602 c 0,43,44
 136 620 136 620 222 706 c 2,45,-1
 310 794 l 1,0,-1
EndSplineSet
Validated: 1
EndChar

StartChar: bar
Encoding: 124 124 88
Width: 436
VWidth: 1894
Flags: W
VStem: 142 124<846.392 1323.48> 150 130<-154.468 382.266 1324.58 1629.68> 154.5 133.5<-397.621 -139.376> 158 110<281.35 361.934 409.046 1231.95> 174 82<320.873 828.956>
LayerCount: 2
Fore
SplineSet
174 406 m 128,-1,1
 174 502 174 502 158 785 c 128,-1,2
 142 1068 142 1068 142 1308 c 128,-1,3
 142 1548 142 1548 153 1578 c 128,-1,4
 164 1608 164 1608 182.5 1622 c 128,-1,5
 201 1636 201 1636 210 1636 c 128,-1,6
 219 1636 219 1636 241.5 1627.5 c 128,-1,7
 264 1619 264 1619 274 1598 c 0,8,9
 288 1569 288 1569 288 1522 c 2,10,11
 288 1522 288 1522 288 1516 c 2,12,13
 288 1464 288 1464 274 1416 c 1,14,-1
 266 1214 l 1,15,-1
 268 1012 l 1,16,-1
 268 962 l 1,17,18
 256 774 256 774 256 732 c 3,19,20
 256 698 256 698 280 254 c 1,21,-1
 280 208 l 1,22,-1
 276 6 l 1,23,-1
 296 -302 l 1,24,25
 296 -356 296 -356 288 -373 c 128,-1,26
 280 -390 280 -390 257.5 -398 c 128,-1,27
 235 -406 235 -406 216 -408 c 128,-1,28
 197 -410 197 -410 178 -398 c 128,-1,29
 159 -386 159 -386 154.5 -358 c 128,-1,30
 150 -330 150 -330 150 -89 c 128,-1,31
 150 152 150 152 162 231 c 128,-1,0
 174 310 174 310 174 406 c 128,-1,1
EndSplineSet
Validated: 1
EndChar

StartChar: asciitilde
Encoding: 126 126 89
Width: 1352
VWidth: 1894
Flags: W
HStem: 440 116<830.532 959.183> 648 108<359.709 627.246>
LayerCount: 2
Fore
SplineSet
1162 796 m 0,0,1
 1208 796 1208 796 1208 740 c 0,2,3
 1208 728 1208 728 1201 697 c 128,-1,4
 1194 666 1194 666 1117 587 c 128,-1,5
 1040 508 1040 508 1015 480 c 128,-1,6
 990 452 990 452 976 446 c 128,-1,7
 962 440 962 440 925 440 c 128,-1,8
 888 440 888 440 862 452 c 128,-1,9
 836 464 836 464 722 542 c 128,-1,10
 608 620 608 620 568 634 c 128,-1,11
 528 648 528 648 496 648 c 128,-1,12
 464 648 464 648 418 635 c 128,-1,13
 372 622 372 622 286 542 c 128,-1,14
 200 462 200 462 184 462 c 0,15,16
 140 462 140 462 140 546 c 2,17,18
 140 546 140 546 140 576 c 2,19,20
 140 596 140 596 191 643 c 128,-1,21
 242 690 242 690 298 716 c 128,-1,22
 354 742 354 742 385 749 c 128,-1,23
 416 756 416 756 503 756 c 128,-1,24
 590 756 590 756 628 739 c 128,-1,25
 666 722 666 722 778 638 c 0,26,27
 890 556 890 556 909 556 c 128,-1,28
 928 556 928 556 988 638 c 0,29,30
 1100 796 1100 796 1162 796 c 0,0,1
EndSplineSet
Validated: 1
EndChar

StartChar: cent
Encoding: 162 162 90
Width: 1084
VWidth: 1894
Flags: W
HStem: -22 100<506.068 753.133> 870 20G<974 1002>
VStem: 64 116<225.095 500> 256 76<-382 -311.371> 650 142<923.812 1189.15>
LayerCount: 2
Fore
SplineSet
436 -82 m 1,0,1
 404 -266 404 -266 332 -382 c 0,2,3
 328 -388 328 -388 320 -388 c 2,4,5
 320 -388 320 -388 316 -388 c 1,6,-1
 256 -382 l 1,7,-1
 256 -350 l 1,8,9
 256 -350 256 -350 256 -348 c 2,10,11
 256 -314 256 -314 304 -84 c 1,12,-1
 324 0 l 1,13,-1
 284 28 l 1,14,15
 88 178 88 178 64 300 c 1,16,-1
 60 500 l 1,17,-1
 140 620 l 2,18,19
 220 740 220 740 318 808 c 128,-1,20
 416 876 416 876 498 886 c 128,-1,21
 580 896 580 896 600 917 c 128,-1,22
 620 938 620 938 650 1059 c 128,-1,23
 680 1180 680 1180 702 1197 c 128,-1,24
 724 1214 724 1214 750 1214 c 128,-1,25
 776 1214 776 1214 784 1205 c 128,-1,26
 792 1196 792 1196 792 1160 c 128,-1,27
 792 1124 792 1124 780 1067 c 128,-1,28
 768 1010 768 1010 764 990 c 128,-1,29
 760 970 760 970 760 954 c 1,30,31
 756 938 756 938 756 930 c 2,32,33
 756 930 756 930 756 924 c 2,34,35
 756 918 756 918 760 914 c 0,36,37
 764 906 764 906 776 896 c 0,38,39
 788 884 788 884 800 878 c 2,40,-1
 900 844 l 1,41,-1
 940 870 l 1,42,43
 964 890 964 890 984 890 c 0,44,45
 1020 890 1020 890 1020 840 c 128,-1,46
 1020 790 1020 790 976 735 c 128,-1,47
 932 680 932 680 916 677 c 128,-1,48
 900 674 900 674 886 674 c 128,-1,49
 872 674 872 674 832 725 c 128,-1,50
 792 776 792 776 740 776 c 2,51,52
 740 776 740 776 736 776 c 2,53,54
 692 776 692 776 666 684 c 128,-1,55
 640 592 640 592 614 531 c 128,-1,56
 588 470 588 470 548 334 c 128,-1,57
 508 198 508 198 506 168 c 128,-1,58
 504 138 504 138 504 126 c 128,-1,59
 504 114 504 114 506 107 c 128,-1,60
 508 100 508 100 534 89 c 128,-1,61
 560 78 560 78 620 78 c 128,-1,62
 680 78 680 78 720 98 c 128,-1,63
 760 118 760 118 814 197 c 128,-1,64
 868 276 868 276 884 287 c 128,-1,65
 900 298 900 298 920 298 c 1,66,-1
 924 300 l 1,67,68
 942 298 942 298 981 270 c 128,-1,69
 1020 242 1020 242 1020 201 c 128,-1,70
 1020 160 1020 160 1012 153 c 128,-1,71
 1004 146 1004 146 964 138 c 128,-1,72
 924 130 924 130 856 68 c 128,-1,73
 788 6 788 6 752 -6 c 0,74,75
 712 -20 712 -20 600 -22 c 2,76,-1
 460 -26 l 1,77,-1
 436 -82 l 1,0,1
556 728 m 0,78,79
 556 774 556 774 520 774 c 0,80,81
 500 774 500 774 444 752 c 128,-1,82
 388 730 388 730 304 640 c 128,-1,83
 220 550 220 550 200 497 c 128,-1,84
 180 444 180 444 180 368 c 128,-1,85
 180 292 180 292 200 256 c 128,-1,86
 220 220 220 220 268 183 c 128,-1,87
 316 146 316 146 340 146 c 128,-1,88
 364 146 364 146 376 173 c 128,-1,89
 388 200 388 200 440 367 c 128,-1,90
 492 534 492 534 524 622 c 128,-1,91
 556 710 556 710 556 728 c 0,78,79
EndSplineSet
Validated: 1
EndChar

StartChar: sterling
Encoding: 163 163 91
Width: 980
VWidth: 1894
Flags: W
HStem: -40 140<646.989 746.956> 554 110<377.749 567.621> 1270 132<480.434 716.312>
VStem: 302 64<810 926.671> 720 120<1145.54 1269.31>
LayerCount: 2
Fore
SplineSet
302 1116 m 1,0,1
 308 1262 308 1262 444 1364 c 0,2,3
 496 1402 496 1402 528 1402 c 256,4,5
 658 1402 658 1402 744 1346 c 0,6,7
 812 1302 812 1302 823 1277 c 128,-1,8
 834 1252 834 1252 836 1232 c 0,9,10
 840 1206 840 1206 840 1188 c 0,11,12
 840 1128 840 1128 798 1128 c 0,13,14
 770 1128 770 1128 754 1145 c 128,-1,15
 738 1162 738 1162 720 1216 c 128,-1,16
 702 1270 702 1270 678 1270 c 128,-1,17
 654 1270 654 1270 568 1255 c 128,-1,18
 482 1240 482 1240 464 1208 c 0,19,20
 444 1176 444 1176 432 1124 c 128,-1,21
 420 1072 420 1072 392 888 c 0,22,23
 366 718 366 718 366 694 c 2,24,-1
 366 692 l 2,25,26
 366 688 366 688 443 683 c 128,-1,27
 520 678 520 678 544 664 c 0,28,29
 568 652 568 652 576 612 c 0,30,31
 578 600 578 600 578 590 c 0,32,33
 576 572 576 572 568 564 c 1,34,35
 556 556 556 556 526 554 c 1,36,-1
 424 554 l 1,37,38
 414 550 414 550 390 524 c 128,-1,39
 366 498 366 498 356 474 c 128,-1,40
 346 450 346 450 346 381 c 128,-1,41
 346 312 346 312 348 297 c 128,-1,42
 350 282 350 282 377 274 c 128,-1,43
 404 266 404 266 535 183 c 128,-1,44
 666 100 666 100 696 100 c 256,45,46
 728 100 728 100 737 108 c 128,-1,47
 746 116 746 116 760 152 c 0,48,49
 792 238 792 238 850 238 c 128,-1,50
 908 238 908 238 916 188 c 0,51,52
 918 176 918 176 918 166 c 0,53,54
 918 148 918 148 910 144 c 0,55,56
 898 136 898 136 854 59 c 128,-1,57
 810 -18 810 -18 799 -29 c 128,-1,58
 788 -40 788 -40 746 -40 c 128,-1,59
 704 -40 704 -40 579 51 c 128,-1,60
 454 142 454 142 384 142 c 128,-1,61
 314 142 314 142 297 131 c 128,-1,62
 280 120 280 120 227 59 c 128,-1,63
 174 -2 174 -2 154 -17 c 128,-1,64
 134 -32 134 -32 108 -32 c 2,65,-1
 66 -32 l 1,66,-1
 56 22 l 2,67,68
 54 36 54 36 54 48 c 0,69,70
 54 68 54 68 60 80 c 0,71,72
 70 100 70 100 131 176 c 128,-1,73
 192 252 192 252 204 294 c 0,74,75
 228 368 228 368 234 438 c 0,76,77
 236 470 236 470 248 666 c 0,78,79
 256 810 256 810 302 1116 c 1,0,1
EndSplineSet
Validated: 1
EndChar

StartChar: section
Encoding: 167 167 92
Width: 830
VWidth: 1894
Flags: W
HStem: -52 88<184.655 423.731> 422 102<193.631 238 240 307.736> 486 138<325.195 472 472 530.662> 856 112<447.701 657.451> 1268 100<337.75 627.174>
VStem: 74 106<42.5908 185.247 534.617 627.438 628.125 715.791> 94 96<956 1128.23> 588 104<220.014 425.921> 634 132<1136.91 1257.96> 666 100<694.75 846.75>
LayerCount: 2
Fore
SplineSet
632 1166 m 1,0,1
 634 1178 634 1178 634 1188 c 0,2,3
 634 1268 634 1268 528 1268 c 2,4,-1
 442 1268 l 1,5,6
 332 1266 332 1266 244 1142 c 0,7,8
 198 1080 198 1080 194 1051 c 128,-1,9
 190 1022 190 1022 190 1002 c 1,10,11
 194 982 194 982 220 944 c 0,12,13
 266 876 266 876 314 876 c 2,14,15
 314 876 314 876 320 876 c 2,16,17
 342 876 342 876 438 920 c 0,18,19
 544 968 544 968 600 968 c 0,20,21
 658 966 658 966 700 930 c 0,22,23
 766 876 766 876 766 818 c 0,24,25
 766 810 766 810 764 802 c 2,26,-1
 754 736 l 2,27,28
 740 652 740 652 652 580 c 0,29,30
 620 554 620 554 616 538 c 0,31,32
 616 536 616 536 614 536 c 0,33,34
 612 520 612 520 644 488 c 1,35,36
 676 452 676 452 688 410 c 0,37,38
 692 392 692 392 692 368 c 0,39,40
 692 336 692 336 684 292 c 0,41,42
 672 216 672 216 661 190 c 128,-1,43
 650 164 650 164 614 112 c 128,-1,44
 578 60 578 60 526 27 c 128,-1,45
 474 -6 474 -6 387 -29 c 128,-1,46
 300 -52 300 -52 271 -52 c 128,-1,47
 242 -52 242 -52 198 -30 c 0,48,49
 114 10 114 10 86 102 c 1,50,51
 74 132 74 132 74 160 c 1,52,53
 72 172 72 172 76 184 c 0,54,55
 84 224 84 224 110 252 c 1,56,57
 142 280 142 280 174 280 c 0,58,59
 208 280 208 280 232 256 c 0,60,61
 254 236 254 236 254 222 c 1,62,63
 252 220 252 220 252 218 c 0,64,65
 248 202 248 202 217 180 c 128,-1,66
 186 158 186 158 180 128 c 1,67,68
 180 128 180 128 180 122 c 1,69,70
 178 116 178 116 178 108 c 0,71,72
 176 84 176 84 196 64 c 1,73,74
 220 36 220 36 256 36 c 0,75,76
 380 36 380 36 443 94 c 128,-1,77
 506 152 506 152 544 220 c 128,-1,78
 582 288 582 288 586 312 c 0,79,80
 588 326 588 326 588 338 c 2,81,82
 588 338 588 338 588 356 c 1,83,84
 584 376 584 376 540 431 c 128,-1,85
 496 486 496 486 476 486 c 128,-1,86
 456 486 456 486 378 460 c 257,87,88
 274 422 274 422 242 422 c 0,89,90
 114 422 114 422 74 542 c 0,91,92
 62 578 62 578 62 614 c 1,93,94
 60 632 60 632 64 650 c 0,95,96
 72 704 72 704 104 743 c 128,-1,97
 136 782 136 782 140 806 c 1,98,-1
 140 808 l 2,99,100
 140 812 140 812 140 816 c 0,101,102
 140 840 140 840 120 886 c 0,103,104
 96 940 96 940 96 954 c 0,105,106
 96 956 96 956 94 956 c 1,107,108
 94 976 94 976 106 1044 c 0,109,110
 118 1120 118 1120 172 1192 c 128,-1,111
 226 1264 226 1264 278 1295 c 128,-1,112
 330 1326 330 1326 413 1347 c 128,-1,113
 496 1368 496 1368 546 1368 c 128,-1,114
 596 1368 596 1368 664 1350 c 128,-1,115
 732 1332 732 1332 752 1300 c 0,116,117
 766 1280 766 1280 766 1246 c 0,118,119
 766 1230 766 1230 762 1210 c 0,120,121
 752 1150 752 1150 745 1135 c 128,-1,122
 738 1120 738 1120 708 1096 c 128,-1,123
 678 1072 678 1072 635 1072 c 128,-1,124
 592 1072 592 1072 588 1084 c 1,125,126
 608 1128 608 1128 632 1166 c 1,0,1
346 606 m 128,-1,128
 380 624 380 624 390 624 c 2,129,-1
 412 624 l 1,130,131
 412 624 412 624 470 624 c 2,132,133
 472 624 472 624 472 622 c 1,134,135
 514 624 514 624 583 664 c 128,-1,136
 652 704 652 704 666 780 c 1,137,138
 666 780 666 780 666 786 c 2,139,140
 666 804 666 804 646 828 c 0,141,142
 622 856 622 856 579 856 c 128,-1,143
 536 856 536 856 467 821 c 128,-1,144
 398 786 398 786 328 767 c 128,-1,145
 258 748 258 748 230 722 c 128,-1,146
 202 696 202 696 192 634 c 0,147,148
 192 632 192 632 190 628 c 0,149,150
 188 610 188 610 188 596 c 0,151,152
 188 562 188 562 204 548 c 0,153,154
 228 526 228 526 238 526 c 1,155,-1
 240 524 l 2,156,157
 242 524 242 524 244 524 c 0,158,159
 258 524 258 524 280 536 c 0,160,161
 306 550 306 550 309 569 c 128,-1,127
 312 588 312 588 346 606 c 128,-1,128
EndSplineSet
Validated: 1
EndChar

StartChar: guillemotleft
Encoding: 171 171 93
Width: 1238
VWidth: 1894
Flags: W
VStem: 144 162<564.396 684.981> 580 164<565.593 684.355>
LayerCount: 2
Fore
SplineSet
144 608 m 1,0,1
 144 642 144 642 232 735 c 128,-1,2
 320 828 320 828 400 930 c 1,3,4
 476 1032 476 1032 539 1074 c 128,-1,5
 602 1116 602 1116 618 1116 c 2,6,-1
 620 1116 l 2,7,8
 636 1116 636 1116 646 1100 c 1,9,10
 658 1088 658 1088 658 1076 c 1,11,12
 658 1076 658 1076 656 1076 c 1,13,14
 656 1076 656 1076 656 1060 c 2,15,16
 656 1034 656 1034 586 966 c 128,-1,17
 516 898 516 898 412 771 c 128,-1,18
 308 644 308 644 308 624 c 1,19,-1
 306 624 l 1,20,21
 306 624 306 624 306 622 c 2,22,23
 306 602 306 602 360 556 c 0,24,25
 416 508 416 508 503 456 c 128,-1,26
 590 404 590 404 623 372 c 128,-1,27
 656 340 656 340 656 308 c 0,28,29
 656 306 656 306 656 304 c 0,30,31
 654 256 654 256 600 256 c 0,32,33
 596 256 596 256 592 256 c 0,34,35
 532 260 532 260 428 358 c 0,36,37
 418 370 418 370 298 461 c 128,-1,38
 178 552 178 552 160 575 c 128,-1,39
 142 598 142 598 142 608 c 1,40,-1
 144 608 l 1,0,1
597 649 m 128,-1,42
 614 678 614 678 686 754 c 128,-1,43
 758 830 758 830 836 932 c 128,-1,44
 914 1034 914 1034 977 1076 c 128,-1,45
 1040 1118 1040 1118 1056 1118 c 1,46,-1
 1056 1116 l 1,47,48
 1072 1116 1072 1116 1084 1103 c 128,-1,49
 1096 1090 1096 1090 1096 1066 c 2,50,-1
 1096 1064 l 2,51,52
 1096 1040 1096 1040 1025 971 c 128,-1,53
 954 902 954 902 849 775 c 128,-1,54
 744 648 744 648 744 628 c 2,55,-1
 744 626 l 2,56,57
 744 604 744 604 798 557 c 128,-1,58
 852 510 852 510 940 459 c 128,-1,59
 1028 408 1028 408 1061 376 c 128,-1,60
 1094 344 1094 344 1094 310 c 0,61,62
 1094 308 1094 308 1094 306 c 0,63,64
 1092 258 1092 258 1038 258 c 1,65,66
 1036 260 1036 260 1032 260 c 0,67,68
 972 264 972 264 866 362 c 1,69,70
 856 374 856 374 736 465 c 128,-1,71
 616 556 616 556 598 580 c 128,-1,72
 580 604 580 604 580 612 c 128,-1,41
 580 620 580 620 597 649 c 128,-1,42
EndSplineSet
Validated: 1
EndChar

StartChar: guillemotright
Encoding: 187 187 94
Width: 1238
VWidth: 1894
Flags: W
VStem: 492 164<534.323 654.005> 928 164<537.447 612>
LayerCount: 2
Fore
SplineSet
928 596 m 1,0,1
 930 598 930 598 930 602 c 0,2,3
 928 620 928 620 880 664 c 0,4,5
 820 716 820 716 733 766 c 128,-1,6
 646 816 646 816 613 849 c 128,-1,7
 580 882 580 882 580 914 c 0,8,9
 580 916 580 916 580 918 c 0,10,11
 582 966 582 966 636 966 c 1,12,13
 640 964 640 964 644 964 c 0,14,15
 704 960 704 960 808 864 c 1,16,17
 818 852 818 852 938 761 c 128,-1,18
 1058 670 1058 670 1076 647 c 128,-1,19
 1094 624 1094 624 1094 614 c 1,20,-1
 1092 612 l 1,21,22
 1092 580 1092 580 1004 487 c 128,-1,23
 916 394 916 394 838 292 c 128,-1,24
 760 190 760 190 697 148 c 128,-1,25
 634 106 634 106 618 106 c 1,26,-1
 616 108 l 1,27,28
 600 108 600 108 589 121 c 128,-1,29
 578 134 578 134 578 158 c 1,30,-1
 580 160 l 1,31,32
 580 184 580 184 650 254 c 128,-1,33
 720 324 720 324 824 450 c 128,-1,34
 928 576 928 576 928 596 c 1,0,1
656 610 m 0,35,36
 656 578 656 578 567 485 c 128,-1,37
 478 392 478 392 399 290 c 128,-1,38
 320 188 320 188 257 146 c 128,-1,39
 194 104 194 104 180 104 c 0,40,41
 164 104 164 104 152 118 c 128,-1,42
 140 132 140 132 140 156 c 2,43,-1
 140 160 l 2,44,45
 140 184 140 184 211 252 c 128,-1,46
 282 320 282 320 386 446 c 0,47,48
 492 572 492 572 492 594 c 128,-1,49
 492 616 492 616 436 664 c 128,-1,50
 380 712 380 712 294 764 c 128,-1,51
 208 816 208 816 175 848 c 128,-1,52
 142 880 142 880 142 912 c 0,53,54
 142 914 142 914 142 916 c 0,55,56
 144 964 144 964 198 964 c 2,57,-1
 204 964 l 1,58,59
 264 960 264 960 370 860 c 0,60,61
 380 848 380 848 500 758 c 128,-1,62
 620 668 620 668 638 644 c 128,-1,63
 656 620 656 620 656 610 c 0,35,36
EndSplineSet
Validated: 1
EndChar

StartChar: questiondown
Encoding: 191 191 95
Width: 768
VWidth: 1894
Flags: W
HStem: -332 118<253.978 510.76> 88 170<464 579.81> 124 134<464.315 579.81> 988 270<318.521 493.969>
VStem: 54 132<-141.424 134.811> 284 244<1022.84 1233.78> 360 136<464.549 801.486> 604 106<-88.0737 113.616>
LayerCount: 2
Fore
SplineSet
368 1256 m 0,0,1
 384 1258 384 1258 429 1258 c 128,-1,2
 474 1258 474 1258 501 1209 c 128,-1,3
 528 1160 528 1160 528 1123 c 128,-1,4
 528 1086 528 1086 521 1069 c 128,-1,5
 514 1052 514 1052 482 1020 c 128,-1,6
 450 988 450 988 428 988 c 2,7,-1
 398 988 l 2,8,9
 360 988 360 988 322 1029 c 128,-1,10
 284 1070 284 1070 284 1138 c 1,11,12
 294 1244 294 1244 368 1256 c 0,0,1
496 572 m 1,13,14
 496 572 496 572 496 570 c 2,15,16
 496 544 496 544 458 462 c 128,-1,17
 420 380 420 380 339 285 c 128,-1,18
 258 190 258 190 222 119 c 128,-1,19
 186 48 186 48 186 -18 c 128,-1,20
 186 -84 186 -84 236 -149 c 128,-1,21
 286 -214 286 -214 348 -214 c 128,-1,22
 410 -214 410 -214 514 -172 c 1,23,-1
 592 -90 l 1,24,25
 604 -28 604 -28 604 -12 c 2,26,27
 604 -12 604 -12 604 -8 c 2,28,29
 604 4 604 4 596 53 c 128,-1,30
 588 102 588 102 580 114 c 0,31,32
 574 122 574 122 556 124 c 0,33,34
 552 124 552 124 548 124 c 0,35,36
 522 122 522 122 490 104 c 0,37,38
 462 88 462 88 446 88 c 2,39,-1
 440 88 l 1,40,41
 426 90 426 90 420 94 c 128,-1,42
 414 98 414 98 414 125 c 128,-1,43
 414 152 414 152 438 184 c 128,-1,44
 462 216 462 216 494 237 c 128,-1,45
 526 258 526 258 567 258 c 128,-1,46
 608 258 608 258 644 233 c 128,-1,47
 680 208 680 208 695 140 c 128,-1,48
 710 72 710 72 710 46 c 0,49,50
 710 -148 710 -148 638 -208 c 1,51,52
 622 -258 622 -258 554 -280 c 0,53,54
 432 -318 432 -318 426 -330 c 0,55,56
 424 -332 424 -332 420 -332 c 0,57,58
 418 -332 418 -332 416 -332 c 0,59,60
 378 -332 378 -332 250 -302 c 0,61,62
 210 -294 210 -294 149 -233 c 128,-1,63
 88 -172 88 -172 71 -141 c 128,-1,64
 54 -110 54 -110 54 -64 c 0,65,66
 54 138 54 138 152 236 c 0,67,68
 156 240 156 240 240 354 c 128,-1,69
 324 468 324 468 342 515 c 128,-1,70
 360 562 360 562 360 600 c 1,71,-1
 352 712 l 1,72,73
 352 786 352 786 368 802 c 128,-1,74
 384 818 384 818 401 828 c 128,-1,75
 418 838 418 838 428 838 c 128,-1,76
 438 838 438 838 460 814 c 0,77,78
 480 792 480 792 482 772 c 2,79,-1
 496 572 l 1,13,14
EndSplineSet
Validated: 1
EndChar

StartChar: germandbls
Encoding: 223 223 115
Width: 928
VWidth: 1894
Flags: W
HStem: -42 106<348.936 627.756> 1336 20G<500.5 585.5>
VStem: 50 158<-400 -279.23> 696 110<882.387 1180.22> 748 126<193.132 515.088>
LayerCount: 2
Fore
SplineSet
249 972 m 128,-1,1
 286 1088 286 1088 372 1222 c 128,-1,2
 458 1356 458 1356 543 1356 c 128,-1,3
 628 1356 628 1356 659 1339 c 128,-1,4
 690 1322 690 1322 748 1226 c 128,-1,5
 806 1130 806 1130 806 1024 c 128,-1,6
 806 918 806 918 765 832 c 128,-1,7
 724 746 724 746 724 730 c 128,-1,8
 724 714 724 714 799 596 c 128,-1,9
 874 478 874 478 874 360 c 128,-1,10
 874 242 874 242 825 153 c 128,-1,11
 776 64 776 64 714 11 c 128,-1,12
 652 -42 652 -42 561 -42 c 128,-1,13
 470 -42 470 -42 438 -36 c 256,14,15
 356 -24 356 -24 343 -14 c 128,-1,16
 330 -4 330 -4 330 42 c 128,-1,17
 330 88 330 88 335 94 c 128,-1,18
 340 100 340 100 354 100 c 128,-1,19
 368 100 368 100 428 82 c 128,-1,20
 488 64 488 64 502 64 c 128,-1,21
 516 64 516 64 526 66 c 128,-1,22
 536 68 536 68 593 90 c 128,-1,23
 650 112 650 112 699 186 c 128,-1,24
 748 260 748 260 748 335 c 128,-1,25
 748 410 748 410 711 497 c 128,-1,26
 674 584 674 584 644 610 c 1,27,-1
 616 640 l 1,28,-1
 550 604 l 2,29,30
 502 576 502 576 473 576 c 128,-1,31
 444 576 444 576 435 595 c 128,-1,32
 426 614 426 614 426 628 c 0,33,34
 426 680 426 680 509 737 c 128,-1,35
 592 794 592 794 622 832 c 128,-1,36
 652 870 652 870 674 945 c 128,-1,37
 696 1020 696 1020 696 1041 c 128,-1,38
 696 1062 696 1062 678 1119 c 128,-1,39
 660 1176 660 1176 628 1214 c 2,40,-1
 594 1252 l 1,41,-1
 536 1224 l 2,42,43
 490 1204 490 1204 461 1164 c 128,-1,44
 432 1124 432 1124 395 1046 c 128,-1,45
 358 968 358 968 333 829 c 128,-1,46
 308 690 308 690 269 438 c 128,-1,47
 230 186 230 186 212 -256 c 1,48,-1
 208 -400 l 1,49,-1
 50 -400 l 1,50,-1
 116 156 l 2,51,52
 128 258 128 258 138 296 c 128,-1,53
 148 334 148 334 148 403 c 128,-1,54
 148 472 148 472 186 674 c 1,55,0
 212 856 212 856 249 972 c 128,-1,1
EndSplineSet
Validated: 1
EndChar

StartChar: quoteright
Encoding: 8217 8217 135
Width: 448
VWidth: 1894
Flags: W
HStem: 1106 396<114.861 185.473>
VStem: 60 234<1265.9 1443.37> 114 180<1216.78 1317.28>
LayerCount: 2
Fore
SplineSet
112 1106 m 0,0,1
 88 1106 88 1106 88 1122 c 0,2,3
 88 1134 88 1134 102 1154 c 1,4,5
 114 1176 114 1176 114 1220 c 128,-1,6
 114 1264 114 1264 88 1290 c 0,7,8
 60 1316 60 1316 60 1372 c 2,9,10
 60 1372 60 1372 60 1378 c 2,11,12
 60 1424 60 1424 72 1444 c 128,-1,13
 84 1464 84 1464 118 1483 c 128,-1,14
 152 1502 152 1502 178 1502 c 1,15,-1
 206 1498 l 1,16,17
 244 1486 244 1486 268 1458 c 128,-1,18
 292 1430 292 1430 294 1360 c 0,19,20
 294 1358 294 1358 294 1356 c 0,21,22
 294 1234 294 1234 182 1146 c 0,23,24
 128 1106 128 1106 112 1106 c 0,0,1
EndSplineSet
EndChar

StartChar: quotedblleft
Encoding: 8220 8220 136
Width: 812
VWidth: 1894
Flags: W
HStem: 1102 416
VStem: 128 246<1176.49 1361.69> 506 182<1211 1384.77>
LayerCount: 2
Fore
SplineSet
132 1231 m 128,-1,1
 128 1248 128 1248 128 1282 c 128,-1,2
 128 1316 128 1316 186 1401 c 128,-1,3
 244 1486 244 1486 266 1502 c 128,-1,4
 288 1518 288 1518 313 1518 c 128,-1,5
 338 1518 338 1518 344 1514 c 128,-1,6
 350 1510 350 1510 350 1488 c 128,-1,7
 350 1466 350 1466 319 1425 c 128,-1,8
 288 1384 288 1384 300 1380 c 0,9,10
 338 1366 338 1366 356 1322 c 128,-1,11
 374 1278 374 1278 374 1250 c 0,12,13
 374 1116 374 1116 264 1116 c 0,14,15
 236 1116 236 1116 222 1127 c 128,-1,16
 208 1138 208 1138 172 1176 c 128,-1,0
 136 1214 136 1214 132 1231 c 128,-1,1
692 1496 m 0,17,18
 736 1496 736 1496 702 1448 c 0,19,20
 688 1428 688 1428 688 1383 c 128,-1,21
 688 1338 688 1338 713 1312 c 128,-1,22
 738 1286 738 1286 738 1231 c 128,-1,23
 738 1176 738 1176 724 1157 c 128,-1,24
 710 1138 710 1138 678 1120 c 128,-1,25
 646 1102 646 1102 620 1102 c 1,26,-1
 592 1106 l 1,27,28
 554 1118 554 1118 530 1147 c 128,-1,29
 506 1176 506 1176 506 1246 c 0,30,31
 506 1370 506 1370 622 1458 c 1,32,33
 676 1496 676 1496 692 1496 c 0,17,18
EndSplineSet
Validated: 1
EndChar

StartChar: quotedblright
Encoding: 8221 8221 137
Width: 812
VWidth: 1894
Flags: W
HStem: 1092 410
VStem: 60 234<1265.9 1443.37> 114 180<1216.78 1317.28> 426 246<1250.88 1433.53>
LayerCount: 2
Fore
SplineSet
666 1382 m 0,0,1
 672 1366 672 1366 672 1332 c 2,2,3
 672 1332 672 1332 672 1330 c 2,4,5
 672 1296 672 1296 616 1212 c 0,6,7
 560 1126 560 1126 540 1110 c 0,8,9
 516 1092 516 1092 492 1092 c 0,10,11
 488 1092 488 1092 484 1092 c 0,12,13
 464 1092 464 1092 460 1096 c 0,14,15
 452 1100 452 1100 453 1122 c 128,-1,16
 454 1144 454 1144 484 1184 c 0,17,18
 506 1214 506 1214 506 1224 c 0,19,20
 506 1228 506 1228 502 1230 c 0,21,22
 464 1244 464 1244 445 1288 c 128,-1,23
 426 1332 426 1332 426 1358 c 0,24,25
 426 1360 426 1360 426 1362 c 0,26,27
 426 1492 426 1492 532 1494 c 0,28,29
 560 1494 560 1494 575 1484 c 128,-1,30
 590 1474 590 1474 626 1436 c 128,-1,31
 662 1398 662 1398 666 1382 c 0,0,1
112 1106 m 0,32,33
 88 1106 88 1106 88 1122 c 0,34,35
 88 1134 88 1134 102 1154 c 1,36,37
 114 1176 114 1176 114 1220 c 128,-1,38
 114 1264 114 1264 88 1290 c 0,39,40
 60 1316 60 1316 60 1372 c 2,41,42
 60 1372 60 1372 60 1378 c 2,43,44
 60 1424 60 1424 72 1444 c 128,-1,45
 84 1464 84 1464 118 1483 c 128,-1,46
 152 1502 152 1502 178 1502 c 1,47,-1
 206 1498 l 1,48,49
 244 1486 244 1486 268 1458 c 128,-1,50
 292 1430 292 1430 294 1360 c 0,51,52
 294 1358 294 1358 294 1356 c 0,53,54
 294 1234 294 1234 182 1146 c 0,55,56
 128 1106 128 1106 112 1106 c 0,32,33
EndSplineSet
Validated: 1
EndChar

StartChar: bullet
Encoding: 8226 8226 138
Width: 778
VWidth: 1894
Flags: W
HStem: 384 500<302.563 497.496>
VStem: 142 490<466.176 746.113>
LayerCount: 2
Fore
SplineSet
158 530 m 128,-1,1
 142 578 142 578 142 652 c 128,-1,2
 142 726 142 726 213 800 c 128,-1,3
 284 874 284 874 302 879 c 128,-1,4
 320 884 320 884 340 884 c 128,-1,5
 360 884 360 884 415 870 c 128,-1,6
 470 856 470 856 492 843 c 128,-1,7
 514 830 514 830 550 794 c 1,8,9
 632 702 632 702 632 624 c 128,-1,10
 632 546 632 546 604 487 c 128,-1,11
 576 428 576 428 532 406 c 128,-1,12
 488 384 488 384 408 384 c 128,-1,13
 328 384 328 384 305 389 c 128,-1,14
 282 394 282 394 241 421 c 128,-1,15
 200 448 200 448 187 465 c 128,-1,0
 174 482 174 482 158 530 c 128,-1,1
EndSplineSet
Validated: 1
EndChar

